<?xml version="1.0" encoding="utf-8" standalone="no"?>
<!DOCTYPE svg PUBLIC "-//W3C//DTD SVG 1.1//EN"
  "http://www.w3.org/Graphics/SVG/1.1/DTD/svg11.dtd">
<svg xmlns:xlink="http://www.w3.org/1999/xlink" width="720pt" height="432pt" viewBox="0 0 720 432" xmlns="http://www.w3.org/2000/svg" version="1.1">
 <metadata>
  <rdf:RDF xmlns:dc="http://purl.org/dc/elements/1.1/" xmlns:cc="http://creativecommons.org/ns#" xmlns:rdf="http://www.w3.org/1999/02/22-rdf-syntax-ns#">
   <cc:Work>
    <dc:type rdf:resource="http://purl.org/dc/dcmitype/StillImage"/>
    <dc:date>2025-03-19T19:46:02.404090</dc:date>
    <dc:format>image/svg+xml</dc:format>
    <dc:creator>
     <cc:Agent>
      <dc:title>Matplotlib v3.6.3, https://matplotlib.org/</dc:title>
     </cc:Agent>
    </dc:creator>
   </cc:Work>
  </rdf:RDF>
 </metadata>
 <defs>
  <style type="text/css">*{stroke-linejoin: round; stroke-linecap: butt}</style>
 </defs>
 <g id="figure_1">
  <g id="patch_1">
   <path d="M 0 432 
L 720 432 
L 720 0 
L 0 0 
z
" style="fill: #ffffff"/>
  </g>
  <g id="axes_1">
   <g id="patch_2">
    <path d="M 90 384.48 
L 648 384.48 
L 648 51.84 
L 90 51.84 
z
" style="fill: #ffffff"/>
   </g>
   <g id="PathCollection_1">
    <path d="M 400.980549 347.215456 
L 408.051617 340.144388 
M 400.980549 340.144388 
L 408.051617 347.215456 
" clip-path="url(#p935e160985)" style="fill: #440154; stroke: #440154; stroke-width: 1.5"/>
    <path d="M 315.562189 302.568427 
L 322.633257 295.497359 
M 315.562189 295.497359 
L 322.633257 302.568427 
" clip-path="url(#p935e160985)" style="fill: #fde725; stroke: #fde725; stroke-width: 1.5"/>
    <path d="M 422.4866 192.511693 
L 429.557668 185.440625 
M 422.4866 185.440625 
L 429.557668 192.511693 
" clip-path="url(#p935e160985)" style="fill: #440154; stroke: #440154; stroke-width: 1.5"/>
    <path d="M 437.573683 337.920618 
L 444.64475 330.84955 
M 437.573683 330.84955 
L 444.64475 337.920618 
" clip-path="url(#p935e160985)" style="fill: #440154; stroke: #440154; stroke-width: 1.5"/>
    <path d="M 460.636585 319.298868 
L 467.707652 312.2278 
M 460.636585 312.2278 
L 467.707652 319.298868 
" clip-path="url(#p935e160985)" style="fill: #440154; stroke: #440154; stroke-width: 1.5"/>
    <path d="M 131.897874 243.552182 
L 138.968942 236.481115 
M 131.897874 236.481115 
L 138.968942 243.552182 
" clip-path="url(#p935e160985)" style="fill: #fde725; stroke: #fde725; stroke-width: 1.5"/>
    <path d="M 468.860661 333.717545 
L 475.931728 326.646477 
M 468.860661 326.646477 
L 475.931728 333.717545 
" clip-path="url(#p935e160985)" style="fill: #440154; stroke: #440154; stroke-width: 1.5"/>
    <path d="M 392.193333 323.015956 
L 399.264401 315.944888 
M 392.193333 315.944888 
L 399.264401 323.015956 
" clip-path="url(#p935e160985)" style="fill: #440154; stroke: #440154; stroke-width: 1.5"/>
    <path d="M 367.352444 133.026787 
L 374.423512 125.95572 
M 367.352444 125.95572 
L 374.423512 133.026787 
" clip-path="url(#p935e160985)" style="fill: #fde725; stroke: #fde725; stroke-width: 1.5"/>
    <path d="M 177.402193 132.3333 
L 184.473261 125.262232 
M 177.402193 125.262232 
L 184.473261 132.3333 
" clip-path="url(#p935e160985)" style="fill: #fde725; stroke: #fde725; stroke-width: 1.5"/>
    <path d="M 566.728404 223.855505 
L 573.799472 216.784438 
M 566.728404 216.784438 
L 573.799472 223.855505 
" clip-path="url(#p935e160985)" style="fill: #440154; stroke: #440154; stroke-width: 1.5"/>
    <path d="M 420.504977 212.877536 
L 427.576045 205.806469 
M 420.504977 205.806469 
L 427.576045 212.877536 
" clip-path="url(#p935e160985)" style="fill: #440154; stroke: #440154; stroke-width: 1.5"/>
    <path d="M 318.689634 307.647035 
L 325.760701 300.575967 
M 318.689634 300.575967 
L 325.760701 307.647035 
" clip-path="url(#p935e160985)" style="fill: #fde725; stroke: #fde725; stroke-width: 1.5"/>
    <path d="M 494.763537 355.641039 
L 501.834605 348.569971 
M 494.763537 348.569971 
L 501.834605 355.641039 
" clip-path="url(#p935e160985)" style="fill: #440154; stroke: #440154; stroke-width: 1.5"/>
    <path d="M 428.13344 216.868137 
L 435.204508 209.797069 
M 428.13344 209.797069 
L 435.204508 216.868137 
" clip-path="url(#p935e160985)" style="fill: #440154; stroke: #440154; stroke-width: 1.5"/>
    <path d="M 273.124647 104.828675 
L 280.195715 97.757607 
M 273.124647 97.757607 
L 280.195715 104.828675 
" clip-path="url(#p935e160985)" style="fill: #fde725; stroke: #fde725; stroke-width: 1.5"/>
    <path d="M 543.721169 249.163319 
L 550.792237 242.092252 
M 543.721169 242.092252 
L 550.792237 249.163319 
" clip-path="url(#p935e160985)" style="fill: #440154; stroke: #440154; stroke-width: 1.5"/>
    <path d="M 221.724616 109.726297 
L 228.795684 102.65523 
M 221.724616 102.65523 
L 228.795684 109.726297 
" clip-path="url(#p935e160985)" style="fill: #fde725; stroke: #fde725; stroke-width: 1.5"/>
    <path d="M 447.782388 357.238006 
L 454.853456 350.166938 
M 447.782388 350.166938 
L 454.853456 357.238006 
" clip-path="url(#p935e160985)" style="fill: #440154; stroke: #440154; stroke-width: 1.5"/>
    <path d="M 301.79775 231.734706 
L 308.868817 224.663638 
M 301.79775 224.663638 
L 308.868817 231.734706 
" clip-path="url(#p935e160985)" style="fill: #fde725; stroke: #fde725; stroke-width: 1.5"/>
    <path d="M 348.246552 287.363248 
L 355.31762 280.29218 
M 348.246552 280.29218 
L 355.31762 287.363248 
" clip-path="url(#p935e160985)" style="fill: #440154; stroke: #440154; stroke-width: 1.5"/>
    <path d="M 236.575008 112.114094 
L 243.646076 105.043027 
M 236.575008 105.043027 
L 243.646076 112.114094 
" clip-path="url(#p935e160985)" style="fill: #fde725; stroke: #fde725; stroke-width: 1.5"/>
    <path d="M 155.588821 186.921021 
L 162.659888 179.849953 
M 155.588821 179.849953 
L 162.659888 186.921021 
" clip-path="url(#p935e160985)" style="fill: #fde725; stroke: #fde725; stroke-width: 1.5"/>
    <path d="M 170.073702 187.587775 
L 177.144769 180.516707 
M 170.073702 180.516707 
L 177.144769 187.587775 
" clip-path="url(#p935e160985)" style="fill: #fde725; stroke: #fde725; stroke-width: 1.5"/>
    <path d="M 436.123421 364.727722 
L 443.194488 357.656655 
M 436.123421 357.656655 
L 443.194488 364.727722 
" clip-path="url(#p935e160985)" style="fill: #440154; stroke: #440154; stroke-width: 1.5"/>
    <path d="M 174.833841 173.175075 
L 181.904909 166.104007 
M 174.833841 166.104007 
L 181.904909 173.175075 
" clip-path="url(#p935e160985)" style="fill: #fde725; stroke: #fde725; stroke-width: 1.5"/>
    <path d="M 350.607271 310.07254 
L 357.678338 303.001472 
M 350.607271 303.001472 
L 357.678338 310.07254 
" clip-path="url(#p935e160985)" style="fill: #440154; stroke: #440154; stroke-width: 1.5"/>
    <path d="M 589.02132 220.949628 
L 596.092387 213.878561 
M 589.02132 213.878561 
L 596.092387 220.949628 
" clip-path="url(#p935e160985)" style="fill: #440154; stroke: #440154; stroke-width: 1.5"/>
    <path d="M 475.181414 343.8701 
L 482.252482 336.799032 
M 475.181414 336.799032 
L 482.252482 343.8701 
" clip-path="url(#p935e160985)" style="fill: #440154; stroke: #440154; stroke-width: 1.5"/>
    <path d="M 566.771321 203.204291 
L 573.842389 196.133223 
M 566.771321 196.133223 
L 573.842389 203.204291 
" clip-path="url(#p935e160985)" style="fill: #440154; stroke: #440154; stroke-width: 1.5"/>
    <path d="M 234.62458 110.220213 
L 241.695648 103.149146 
M 234.62458 103.149146 
L 241.695648 110.220213 
" clip-path="url(#p935e160985)" style="fill: #fde725; stroke: #fde725; stroke-width: 1.5"/>
    <path d="M 347.066339 108.792907 
L 354.137407 101.721839 
M 347.066339 101.721839 
L 354.137407 108.792907 
" clip-path="url(#p935e160985)" style="fill: #fde725; stroke: #fde725; stroke-width: 1.5"/>
    <path d="M 418.358075 240.887295 
L 425.429143 233.816227 
M 418.358075 233.816227 
L 425.429143 240.887295 
" clip-path="url(#p935e160985)" style="fill: #440154; stroke: #440154; stroke-width: 1.5"/>
    <path d="M 157.427262 170.056014 
L 164.49833 162.984947 
M 157.427262 162.984947 
L 164.49833 170.056014 
" clip-path="url(#p935e160985)" style="fill: #fde725; stroke: #fde725; stroke-width: 1.5"/>
    <path d="M 394.888873 337.676274 
L 401.959941 330.605206 
M 394.888873 330.605206 
L 401.959941 337.676274 
" clip-path="url(#p935e160985)" style="fill: #440154; stroke: #440154; stroke-width: 1.5"/>
    <path d="M 290.073554 180.036671 
L 297.144622 172.965604 
M 290.073554 172.965604 
L 297.144622 180.036671 
" clip-path="url(#p935e160985)" style="fill: #fde725; stroke: #fde725; stroke-width: 1.5"/>
    <path d="M 300.510485 268.698984 
L 307.581553 261.627916 
M 300.510485 261.627916 
L 307.581553 268.698984 
" clip-path="url(#p935e160985)" style="fill: #fde725; stroke: #fde725; stroke-width: 1.5"/>
    <path d="M 299.028867 288.838513 
L 306.099934 281.767445 
M 299.028867 281.767445 
L 306.099934 288.838513 
" clip-path="url(#p935e160985)" style="fill: #fde725; stroke: #fde725; stroke-width: 1.5"/>
    <path d="M 573.183301 177.167364 
L 580.254369 170.096297 
M 573.183301 170.096297 
L 580.254369 177.167364 
" clip-path="url(#p935e160985)" style="fill: #440154; stroke: #440154; stroke-width: 1.5"/>
    <path d="M 416.688304 233.0741 
L 423.759372 226.003032 
M 416.688304 226.003032 
L 423.759372 233.0741 
" clip-path="url(#p935e160985)" style="fill: #440154; stroke: #440154; stroke-width: 1.5"/>
    <path d="M 451.745386 371.93602 
L 458.816454 364.864953 
M 451.745386 364.864953 
L 458.816454 371.93602 
" clip-path="url(#p935e160985)" style="fill: #440154; stroke: #440154; stroke-width: 1.5"/>
    <path d="M 249.880642 102.30708 
L 256.95171 95.236012 
M 249.880642 95.236012 
L 256.95171 102.30708 
" clip-path="url(#p935e160985)" style="fill: #fde725; stroke: #fde725; stroke-width: 1.5"/>
    <path d="M 258.387558 113.296772 
L 265.458626 106.225704 
M 258.387558 106.225704 
L 265.458626 113.296772 
" clip-path="url(#p935e160985)" style="fill: #fde725; stroke: #fde725; stroke-width: 1.5"/>
    <path d="M 396.408574 163.802031 
L 403.479642 156.730963 
M 396.408574 156.730963 
L 403.479642 163.802031 
" clip-path="url(#p935e160985)" style="fill: #440154; stroke: #440154; stroke-width: 1.5"/>
    <path d="M 341.869206 144.793314 
L 348.940274 137.722246 
M 341.869206 137.722246 
L 348.940274 144.793314 
" clip-path="url(#p935e160985)" style="fill: #fde725; stroke: #fde725; stroke-width: 1.5"/>
    <path d="M 161.244959 212.178615 
L 168.316026 205.107547 
M 161.244959 205.107547 
L 168.316026 212.178615 
" clip-path="url(#p935e160985)" style="fill: #fde725; stroke: #fde725; stroke-width: 1.5"/>
    <path d="M 457.750576 358.030479 
L 464.821643 350.959411 
M 457.750576 350.959411 
L 464.821643 358.030479 
" clip-path="url(#p935e160985)" style="fill: #440154; stroke: #440154; stroke-width: 1.5"/>
    <path d="M 327.630457 118.427955 
L 334.701524 111.356888 
M 327.630457 111.356888 
L 334.701524 118.427955 
" clip-path="url(#p935e160985)" style="fill: #fde725; stroke: #fde725; stroke-width: 1.5"/>
    <path d="M 434.94953 243.720526 
L 442.020598 236.649458 
M 434.94953 236.649458 
L 442.020598 243.720526 
" clip-path="url(#p935e160985)" style="fill: #440154; stroke: #440154; stroke-width: 1.5"/>
    <path d="M 383.388081 124.017929 
L 390.459149 116.946861 
M 383.388081 116.946861 
L 390.459149 124.017929 
" clip-path="url(#p935e160985)" style="fill: #fde725; stroke: #fde725; stroke-width: 1.5"/>
    <path d="M 281.772858 127.299716 
L 288.843926 120.228648 
M 281.772858 120.228648 
L 288.843926 127.299716 
" clip-path="url(#p935e160985)" style="fill: #fde725; stroke: #fde725; stroke-width: 1.5"/>
    <path d="M 376.023525 325.621605 
L 383.094593 318.550537 
M 376.023525 318.550537 
L 383.094593 325.621605 
" clip-path="url(#p935e160985)" style="fill: #440154; stroke: #440154; stroke-width: 1.5"/>
    <path d="M 287.251686 264.313702 
L 294.322753 257.242634 
M 287.251686 257.242634 
L 294.322753 264.313702 
" clip-path="url(#p935e160985)" style="fill: #fde725; stroke: #fde725; stroke-width: 1.5"/>
    <path d="M 188.614788 139.625736 
L 195.685855 132.554668 
M 188.614788 132.554668 
L 195.685855 139.625736 
" clip-path="url(#p935e160985)" style="fill: #fde725; stroke: #fde725; stroke-width: 1.5"/>
    <path d="M 306.464756 110.94775 
L 313.535824 103.876682 
M 306.464756 103.876682 
L 313.535824 110.94775 
" clip-path="url(#p935e160985)" style="fill: #fde725; stroke: #fde725; stroke-width: 1.5"/>
    <path d="M 525.080781 310.994958 
L 532.151849 303.923891 
M 525.080781 303.923891 
L 532.151849 310.994958 
" clip-path="url(#p935e160985)" style="fill: #440154; stroke: #440154; stroke-width: 1.5"/>
    <path d="M 293.65538 239.953333 
L 300.726448 232.882265 
M 293.65538 232.882265 
L 300.726448 239.953333 
" clip-path="url(#p935e160985)" style="fill: #fde725; stroke: #fde725; stroke-width: 1.5"/>
    <path d="M 418.821098 223.626245 
L 425.892166 216.555178 
M 418.821098 216.555178 
L 425.892166 223.626245 
" clip-path="url(#p935e160985)" style="fill: #440154; stroke: #440154; stroke-width: 1.5"/>
    <path d="M 602.561244 226.107866 
L 609.632312 219.036798 
M 602.561244 219.036798 
L 609.632312 226.107866 
" clip-path="url(#p935e160985)" style="fill: #440154; stroke: #440154; stroke-width: 1.5"/>
    <path d="M 278.501393 199.625031 
L 285.572461 192.553964 
M 278.501393 192.553964 
L 285.572461 199.625031 
" clip-path="url(#p935e160985)" style="fill: #fde725; stroke: #fde725; stroke-width: 1.5"/>
    <path d="M 155.611193 214.962123 
L 162.682261 207.891055 
M 155.611193 207.891055 
L 162.682261 214.962123 
" clip-path="url(#p935e160985)" style="fill: #fde725; stroke: #fde725; stroke-width: 1.5"/>
    <path d="M 111.828102 216.323482 
L 118.89917 209.252415 
M 111.828102 209.252415 
L 118.89917 216.323482 
" clip-path="url(#p935e160985)" style="fill: #fde725; stroke: #fde725; stroke-width: 1.5"/>
    <path d="M 321.375701 94.278993 
L 328.446769 87.207925 
M 321.375701 87.207925 
L 328.446769 94.278993 
" clip-path="url(#p935e160985)" style="fill: #fde725; stroke: #fde725; stroke-width: 1.5"/>
    <path d="M 569.822738 179.373501 
L 576.893806 172.302433 
M 569.822738 172.302433 
L 576.893806 179.373501 
" clip-path="url(#p935e160985)" style="fill: #440154; stroke: #440154; stroke-width: 1.5"/>
    <path d="M 579.002171 219.556585 
L 586.073239 212.485517 
M 579.002171 212.485517 
L 586.073239 219.556585 
" clip-path="url(#p935e160985)" style="fill: #440154; stroke: #440154; stroke-width: 1.5"/>
    <path d="M 417.583468 320.802793 
L 424.654536 313.731725 
M 417.583468 313.731725 
L 424.654536 320.802793 
" clip-path="url(#p935e160985)" style="fill: #440154; stroke: #440154; stroke-width: 1.5"/>
    <path d="M 524.945444 293.890817 
L 532.016512 286.819749 
M 524.945444 286.819749 
L 532.016512 293.890817 
" clip-path="url(#p935e160985)" style="fill: #440154; stroke: #440154; stroke-width: 1.5"/>
    <path d="M 176.496504 157.115979 
L 183.567571 150.044911 
M 176.496504 150.044911 
L 183.567571 157.115979 
" clip-path="url(#p935e160985)" style="fill: #fde725; stroke: #fde725; stroke-width: 1.5"/>
    <path d="M 455.407081 214.355004 
L 462.478149 207.283936 
M 455.407081 207.283936 
L 462.478149 214.355004 
" clip-path="url(#p935e160985)" style="fill: #440154; stroke: #440154; stroke-width: 1.5"/>
    <path d="M 368.717776 115.229457 
L 375.788844 108.158389 
M 368.717776 108.158389 
L 375.788844 115.229457 
" clip-path="url(#p935e160985)" style="fill: #fde725; stroke: #fde725; stroke-width: 1.5"/>
    <path d="M 290.383527 194.251835 
L 297.454594 187.180767 
M 290.383527 187.180767 
L 297.454594 194.251835 
" clip-path="url(#p935e160985)" style="fill: #fde725; stroke: #fde725; stroke-width: 1.5"/>
    <path d="M 439.417605 333.512085 
L 446.488672 326.441017 
M 439.417605 326.441017 
L 446.488672 333.512085 
" clip-path="url(#p935e160985)" style="fill: #440154; stroke: #440154; stroke-width: 1.5"/>
    <path d="M 540.487221 239.110764 
L 547.558289 232.039697 
M 540.487221 232.039697 
L 547.558289 239.110764 
" clip-path="url(#p935e160985)" style="fill: #440154; stroke: #440154; stroke-width: 1.5"/>
    <path d="M 409.59494 188.183911 
L 416.666007 181.112843 
M 409.59494 181.112843 
L 416.666007 188.183911 
" clip-path="url(#p935e160985)" style="fill: #440154; stroke: #440154; stroke-width: 1.5"/>
    <path d="M 151.682815 252.454439 
L 158.753883 245.383372 
M 151.682815 245.383372 
L 158.753883 252.454439 
" clip-path="url(#p935e160985)" style="fill: #fde725; stroke: #fde725; stroke-width: 1.5"/>
    <path d="M 512.427004 321.229925 
L 519.498072 314.158857 
M 512.427004 314.158857 
L 519.498072 321.229925 
" clip-path="url(#p935e160985)" style="fill: #440154; stroke: #440154; stroke-width: 1.5"/>
    <path d="M 402.221073 154.413876 
L 409.29214 147.342808 
M 402.221073 147.342808 
L 409.29214 154.413876 
" clip-path="url(#p935e160985)" style="fill: #440154; stroke: #440154; stroke-width: 1.5"/>
    <path d="M 218.810416 106.049048 
L 225.881484 98.97798 
M 218.810416 98.97798 
L 225.881484 106.049048 
" clip-path="url(#p935e160985)" style="fill: #fde725; stroke: #fde725; stroke-width: 1.5"/>
    <path d="M 322.728332 313.778292 
L 329.7994 306.707224 
M 322.728332 306.707224 
L 329.7994 313.778292 
" clip-path="url(#p935e160985)" style="fill: #440154; stroke: #440154; stroke-width: 1.5"/>
    <path d="M 141.792345 214.815571 
L 148.863413 207.744504 
M 141.792345 207.744504 
L 148.863413 214.815571 
" clip-path="url(#p935e160985)" style="fill: #fde725; stroke: #fde725; stroke-width: 1.5"/>
    <path d="M 170.708471 171.273215 
L 177.779539 164.202147 
M 170.708471 164.202147 
L 177.779539 171.273215 
" clip-path="url(#p935e160985)" style="fill: #fde725; stroke: #fde725; stroke-width: 1.5"/>
    <path d="M 290.1223 217.993911 
L 297.193368 210.922843 
M 290.1223 210.922843 
L 297.193368 217.993911 
" clip-path="url(#p935e160985)" style="fill: #fde725; stroke: #fde725; stroke-width: 1.5"/>
    <path d="M 532.429978 301.335025 
L 539.501046 294.263957 
M 532.429978 294.263957 
L 539.501046 301.335025 
" clip-path="url(#p935e160985)" style="fill: #440154; stroke: #440154; stroke-width: 1.5"/>
    <path d="M 406.279348 349.805835 
L 413.350416 342.734767 
M 406.279348 342.734767 
L 413.350416 349.805835 
" clip-path="url(#p935e160985)" style="fill: #440154; stroke: #440154; stroke-width: 1.5"/>
    <path d="M 458.67627 338.305842 
L 465.747338 331.234774 
M 458.67627 331.234774 
L 465.747338 338.305842 
" clip-path="url(#p935e160985)" style="fill: #440154; stroke: #440154; stroke-width: 1.5"/>
    <path d="M 280.826751 70.495534 
L 287.897819 63.424466 
M 280.826751 63.424466 
L 287.897819 70.495534 
" clip-path="url(#p935e160985)" style="fill: #fde725; stroke: #fde725; stroke-width: 1.5"/>
    <path d="M 385.911646 319.603318 
L 392.982714 312.53225 
M 385.911646 312.53225 
L 392.982714 319.603318 
" clip-path="url(#p935e160985)" style="fill: #440154; stroke: #440154; stroke-width: 1.5"/>
    <path d="M 446.96846 358.256608 
L 454.039528 351.18554 
M 446.96846 351.18554 
L 454.039528 358.256608 
" clip-path="url(#p935e160985)" style="fill: #440154; stroke: #440154; stroke-width: 1.5"/>
    <path d="M 533.76525 327.015545 
L 540.836318 319.944477 
M 533.76525 319.944477 
L 540.836318 327.015545 
" clip-path="url(#p935e160985)" style="fill: #440154; stroke: #440154; stroke-width: 1.5"/>
    <path d="M 433.669735 324.861342 
L 440.740802 317.790275 
M 433.669735 317.790275 
L 440.740802 324.861342 
" clip-path="url(#p935e160985)" style="fill: #440154; stroke: #440154; stroke-width: 1.5"/>
    <path d="M 546.067771 231.367601 
L 553.138838 224.296533 
M 546.067771 224.296533 
L 553.138838 231.367601 
" clip-path="url(#p935e160985)" style="fill: #440154; stroke: #440154; stroke-width: 1.5"/>
    <path d="M 365.705309 110.907182 
L 372.776376 103.836114 
M 365.705309 103.836114 
L 372.776376 110.907182 
" clip-path="url(#p935e160985)" style="fill: #fde725; stroke: #fde725; stroke-width: 1.5"/>
    <path d="M 573.685747 274.851188 
L 580.756815 267.78012 
M 573.685747 267.78012 
L 580.756815 274.851188 
" clip-path="url(#p935e160985)" style="fill: #440154; stroke: #440154; stroke-width: 1.5"/>
    <path d="M 324.547995 316.946469 
L 331.619062 309.875401 
M 324.547995 309.875401 
L 331.619062 316.946469 
" clip-path="url(#p935e160985)" style="fill: #440154; stroke: #440154; stroke-width: 1.5"/>
    <path d="M 281.440612 194.613489 
L 288.51168 187.542422 
M 281.440612 187.542422 
L 288.51168 194.613489 
" clip-path="url(#p935e160985)" style="fill: #fde725; stroke: #fde725; stroke-width: 1.5"/>
    <path d="M 284.510132 207.412059 
L 291.5812 200.340991 
M 284.510132 200.340991 
L 291.5812 207.412059 
" clip-path="url(#p935e160985)" style="fill: #fde725; stroke: #fde725; stroke-width: 1.5"/>
    <path d="M 218.50393 123.90936 
L 225.574998 116.838292 
M 218.50393 116.838292 
L 225.574998 123.90936 
" clip-path="url(#p935e160985)" style="fill: #fde725; stroke: #fde725; stroke-width: 1.5"/>
    <path d="M 338.014936 142.422665 
L 345.086004 135.351597 
M 338.014936 135.351597 
L 345.086004 142.422665 
" clip-path="url(#p935e160985)" style="fill: #fde725; stroke: #fde725; stroke-width: 1.5"/>
    <path d="M 338.026768 289.30832 
L 345.097836 282.237252 
M 338.026768 282.237252 
L 345.097836 289.30832 
" clip-path="url(#p935e160985)" style="fill: #440154; stroke: #440154; stroke-width: 1.5"/>
    <path d="M 414.456182 212.005609 
L 421.52725 204.934541 
M 414.456182 204.934541 
L 421.52725 212.005609 
" clip-path="url(#p935e160985)" style="fill: #440154; stroke: #440154; stroke-width: 1.5"/>
    <path d="M 543.673567 248.932144 
L 550.744635 241.861076 
M 543.673567 241.861076 
L 550.744635 248.932144 
" clip-path="url(#p935e160985)" style="fill: #440154; stroke: #440154; stroke-width: 1.5"/>
    <path d="M 502.54664 308.01376 
L 509.617708 300.942692 
M 502.54664 300.942692 
L 509.617708 308.01376 
" clip-path="url(#p935e160985)" style="fill: #440154; stroke: #440154; stroke-width: 1.5"/>
    <path d="M 168.251448 188.882048 
L 175.322515 181.81098 
M 168.251448 181.81098 
L 175.322515 188.882048 
" clip-path="url(#p935e160985)" style="fill: #fde725; stroke: #fde725; stroke-width: 1.5"/>
    <path d="M 315.591894 245.214773 
L 322.662961 238.143706 
M 315.591894 238.143706 
L 322.662961 245.214773 
" clip-path="url(#p935e160985)" style="fill: #fde725; stroke: #fde725; stroke-width: 1.5"/>
    <path d="M 298.362673 103.547458 
L 305.433741 96.476391 
M 298.362673 96.476391 
L 305.433741 103.547458 
" clip-path="url(#p935e160985)" style="fill: #fde725; stroke: #fde725; stroke-width: 1.5"/>
    <path d="M 439.393782 345.656543 
L 446.46485 338.585475 
M 439.393782 338.585475 
L 446.46485 345.656543 
" clip-path="url(#p935e160985)" style="fill: #440154; stroke: #440154; stroke-width: 1.5"/>
    <path d="M 491.980677 342.962763 
L 499.051744 335.891695 
M 491.980677 335.891695 
L 499.051744 342.962763 
" clip-path="url(#p935e160985)" style="fill: #440154; stroke: #440154; stroke-width: 1.5"/>
    <path d="M 379.951585 342.204512 
L 387.022652 335.133444 
M 379.951585 335.133444 
L 387.022652 342.204512 
" clip-path="url(#p935e160985)" style="fill: #440154; stroke: #440154; stroke-width: 1.5"/>
    <path d="M 589.564102 223.422149 
L 596.635169 216.351081 
M 589.564102 216.351081 
L 596.635169 223.422149 
" clip-path="url(#p935e160985)" style="fill: #440154; stroke: #440154; stroke-width: 1.5"/>
    <path d="M 406.002858 328.885144 
L 413.073926 321.814076 
M 406.002858 321.814076 
L 413.073926 328.885144 
" clip-path="url(#p935e160985)" style="fill: #440154; stroke: #440154; stroke-width: 1.5"/>
    <path d="M 297.735623 221.315241 
L 304.806691 214.244173 
M 297.735623 214.244173 
L 304.806691 221.315241 
" clip-path="url(#p935e160985)" style="fill: #fde725; stroke: #fde725; stroke-width: 1.5"/>
    <path d="M 287.375968 199.359623 
L 294.447036 192.288555 
M 287.375968 192.288555 
L 294.447036 199.359623 
" clip-path="url(#p935e160985)" style="fill: #fde725; stroke: #fde725; stroke-width: 1.5"/>
    <path d="M 375.456508 155.6144 
L 382.527576 148.543332 
M 375.456508 148.543332 
L 382.527576 155.6144 
" clip-path="url(#p935e160985)" style="fill: #fde725; stroke: #fde725; stroke-width: 1.5"/>
    <path d="M 228.544291 124.08987 
L 235.615359 117.018802 
M 228.544291 117.018802 
L 235.615359 124.08987 
" clip-path="url(#p935e160985)" style="fill: #fde725; stroke: #fde725; stroke-width: 1.5"/>
    <path d="M 507.476169 345.202986 
L 514.547236 338.131918 
M 507.476169 338.131918 
L 514.547236 345.202986 
" clip-path="url(#p935e160985)" style="fill: #440154; stroke: #440154; stroke-width: 1.5"/>
    <path d="M 317.471717 135.838579 
L 324.542785 128.767511 
M 317.471717 128.767511 
L 324.542785 135.838579 
" clip-path="url(#p935e160985)" style="fill: #fde725; stroke: #fde725; stroke-width: 1.5"/>
    <path d="M 321.275695 235.841708 
L 328.346763 228.77064 
M 321.275695 228.77064 
L 328.346763 235.841708 
" clip-path="url(#p935e160985)" style="fill: #fde725; stroke: #fde725; stroke-width: 1.5"/>
    <path d="M 577.85374 247.99123 
L 584.924808 240.920162 
M 577.85374 240.920162 
L 584.924808 247.99123 
" clip-path="url(#p935e160985)" style="fill: #440154; stroke: #440154; stroke-width: 1.5"/>
    <path d="M 182.769015 172.570409 
L 189.840083 165.499341 
M 182.769015 165.499341 
L 189.840083 172.570409 
" clip-path="url(#p935e160985)" style="fill: #fde725; stroke: #fde725; stroke-width: 1.5"/>
    <path d="M 416.035942 206.70887 
L 423.10701 199.637803 
M 416.035942 199.637803 
L 423.10701 206.70887 
" clip-path="url(#p935e160985)" style="fill: #440154; stroke: #440154; stroke-width: 1.5"/>
    <path d="M 420.469591 154.296228 
L 427.540659 147.22516 
M 420.469591 147.22516 
L 427.540659 154.296228 
" clip-path="url(#p935e160985)" style="fill: #440154; stroke: #440154; stroke-width: 1.5"/>
    <path d="M 162.899401 238.517285 
L 169.970468 231.446217 
M 162.899401 231.446217 
L 169.970468 238.517285 
" clip-path="url(#p935e160985)" style="fill: #fde725; stroke: #fde725; stroke-width: 1.5"/>
    <path d="M 417.41278 227.447997 
L 424.483848 220.376929 
M 417.41278 220.376929 
L 424.483848 227.447997 
" clip-path="url(#p935e160985)" style="fill: #440154; stroke: #440154; stroke-width: 1.5"/>
    <path d="M 354.799832 111.795875 
L 361.8709 104.724807 
M 354.799832 104.724807 
L 361.8709 111.795875 
" clip-path="url(#p935e160985)" style="fill: #fde725; stroke: #fde725; stroke-width: 1.5"/>
    <path d="M 260.289835 100.095366 
L 267.360902 93.024298 
M 260.289835 93.024298 
L 267.360902 100.095366 
" clip-path="url(#p935e160985)" style="fill: #fde725; stroke: #fde725; stroke-width: 1.5"/>
    <path d="M 202.189138 144.211926 
L 209.260206 137.140858 
M 202.189138 137.140858 
L 209.260206 144.211926 
" clip-path="url(#p935e160985)" style="fill: #fde725; stroke: #fde725; stroke-width: 1.5"/>
    <path d="M 304.973875 274.763663 
L 312.044942 267.692595 
M 304.973875 267.692595 
L 312.044942 274.763663 
" clip-path="url(#p935e160985)" style="fill: #fde725; stroke: #fde725; stroke-width: 1.5"/>
    <path d="M 343.501294 308.455671 
L 350.572361 301.384603 
M 343.501294 301.384603 
L 350.572361 308.455671 
" clip-path="url(#p935e160985)" style="fill: #440154; stroke: #440154; stroke-width: 1.5"/>
    <path d="M 287.171149 223.172592 
L 294.242217 216.101525 
M 287.171149 216.101525 
L 294.242217 223.172592 
" clip-path="url(#p935e160985)" style="fill: #fde725; stroke: #fde725; stroke-width: 1.5"/>
    <path d="M 459.356949 237.858488 
L 466.428016 230.78742 
M 459.356949 230.78742 
L 466.428016 237.858488 
" clip-path="url(#p935e160985)" style="fill: #440154; stroke: #440154; stroke-width: 1.5"/>
    <path d="M 228.976932 119.178473 
L 236.048 112.107405 
M 228.976932 112.107405 
L 236.048 119.178473 
" clip-path="url(#p935e160985)" style="fill: #fde725; stroke: #fde725; stroke-width: 1.5"/>
    <path d="M 318.34172 208.476922 
L 325.412788 201.405854 
M 318.34172 201.405854 
L 325.412788 208.476922 
" clip-path="url(#p935e160985)" style="fill: #fde725; stroke: #fde725; stroke-width: 1.5"/>
    <path d="M 342.603026 102.827458 
L 349.674094 95.75639 
M 342.603026 95.75639 
L 349.674094 102.827458 
" clip-path="url(#p935e160985)" style="fill: #fde725; stroke: #fde725; stroke-width: 1.5"/>
    <path d="M 280.15252 105.650423 
L 287.223588 98.579355 
M 280.15252 98.579355 
L 287.223588 105.650423 
" clip-path="url(#p935e160985)" style="fill: #fde725; stroke: #fde725; stroke-width: 1.5"/>
    <path d="M 143.855289 221.156212 
L 150.926357 214.085144 
M 143.855289 214.085144 
L 150.926357 221.156212 
" clip-path="url(#p935e160985)" style="fill: #fde725; stroke: #fde725; stroke-width: 1.5"/>
    <path d="M 370.535115 358.73299 
L 377.606182 351.661922 
M 370.535115 351.661922 
L 377.606182 358.73299 
" clip-path="url(#p935e160985)" style="fill: #440154; stroke: #440154; stroke-width: 1.5"/>
    <path d="M 530.377795 289.210031 
L 537.448863 282.138963 
M 530.377795 282.138963 
L 537.448863 289.210031 
" clip-path="url(#p935e160985)" style="fill: #440154; stroke: #440154; stroke-width: 1.5"/>
    <path d="M 561.448566 269.643423 
L 568.519633 262.572355 
M 561.448566 262.572355 
L 568.519633 269.643423 
" clip-path="url(#p935e160985)" style="fill: #440154; stroke: #440154; stroke-width: 1.5"/>
    <path d="M 398.060601 140.810837 
L 405.131669 133.739769 
M 398.060601 133.739769 
L 405.131669 140.810837 
" clip-path="url(#p935e160985)" style="fill: #440154; stroke: #440154; stroke-width: 1.5"/>
    <path d="M 536.668259 273.636572 
L 543.739326 266.565505 
M 536.668259 266.565505 
L 543.739326 273.636572 
" clip-path="url(#p935e160985)" style="fill: #440154; stroke: #440154; stroke-width: 1.5"/>
    <path d="M 441.037613 219.363175 
L 448.10868 212.292107 
M 441.037613 212.292107 
L 448.10868 219.363175 
" clip-path="url(#p935e160985)" style="fill: #440154; stroke: #440154; stroke-width: 1.5"/>
    <path d="M 206.689722 139.639437 
L 213.76079 132.568369 
M 206.689722 132.568369 
L 213.76079 139.639437 
" clip-path="url(#p935e160985)" style="fill: #fde725; stroke: #fde725; stroke-width: 1.5"/>
    <path d="M 414.768082 357.102663 
L 421.83915 350.031595 
M 414.768082 350.031595 
L 421.83915 357.102663 
" clip-path="url(#p935e160985)" style="fill: #440154; stroke: #440154; stroke-width: 1.5"/>
    <path d="M 432.908222 248.789528 
L 439.97929 241.71846 
M 432.908222 241.71846 
L 439.97929 248.789528 
" clip-path="url(#p935e160985)" style="fill: #440154; stroke: #440154; stroke-width: 1.5"/>
    <path d="M 302.219665 208.40456 
L 309.290733 201.333492 
M 302.219665 201.333492 
L 309.290733 208.40456 
" clip-path="url(#p935e160985)" style="fill: #fde725; stroke: #fde725; stroke-width: 1.5"/>
    <path d="M 166.186206 201.099302 
L 173.257274 194.028235 
M 166.186206 194.028235 
L 173.257274 201.099302 
" clip-path="url(#p935e160985)" style="fill: #fde725; stroke: #fde725; stroke-width: 1.5"/>
    <path d="M 404.599127 187.769012 
L 411.670194 180.697944 
M 404.599127 180.697944 
L 411.670194 187.769012 
" clip-path="url(#p935e160985)" style="fill: #440154; stroke: #440154; stroke-width: 1.5"/>
    <path d="M 390.613487 156.629191 
L 397.684555 149.558124 
M 390.613487 149.558124 
L 397.684555 156.629191 
" clip-path="url(#p935e160985)" style="fill: #440154; stroke: #440154; stroke-width: 1.5"/>
    <path d="M 286.842908 101.495454 
L 293.913976 94.424386 
M 286.842908 94.424386 
L 293.913976 101.495454 
" clip-path="url(#p935e160985)" style="fill: #fde725; stroke: #fde725; stroke-width: 1.5"/>
    <path d="M 584.035648 178.318721 
L 591.106716 171.247654 
M 584.035648 171.247654 
L 591.106716 178.318721 
" clip-path="url(#p935e160985)" style="fill: #440154; stroke: #440154; stroke-width: 1.5"/>
    <path d="M 383.434789 366.82916 
L 390.505857 359.758093 
M 383.434789 359.758093 
L 390.505857 366.82916 
" clip-path="url(#p935e160985)" style="fill: #440154; stroke: #440154; stroke-width: 1.5"/>
    <path d="M 425.771723 201.618969 
L 432.842791 194.547901 
M 425.771723 194.547901 
L 432.842791 201.618969 
" clip-path="url(#p935e160985)" style="fill: #440154; stroke: #440154; stroke-width: 1.5"/>
    <path d="M 512.337301 325.760839 
L 519.408368 318.689771 
M 512.337301 318.689771 
L 519.408368 325.760839 
" clip-path="url(#p935e160985)" style="fill: #440154; stroke: #440154; stroke-width: 1.5"/>
    <path d="M 478.027273 327.533125 
L 485.098341 320.462057 
M 478.027273 320.462057 
L 485.098341 327.533125 
" clip-path="url(#p935e160985)" style="fill: #440154; stroke: #440154; stroke-width: 1.5"/>
    <path d="M 539.673694 246.040914 
L 546.744762 238.969846 
M 539.673694 238.969846 
L 546.744762 246.040914 
" clip-path="url(#p935e160985)" style="fill: #440154; stroke: #440154; stroke-width: 1.5"/>
    <path d="M 256.716663 119.058883 
L 263.787731 111.987815 
M 256.716663 111.987815 
L 263.787731 119.058883 
" clip-path="url(#p935e160985)" style="fill: #fde725; stroke: #fde725; stroke-width: 1.5"/>
    <path d="M 323.94978 120.476727 
L 331.020847 113.405659 
M 323.94978 113.405659 
L 331.020847 120.476727 
" clip-path="url(#p935e160985)" style="fill: #fde725; stroke: #fde725; stroke-width: 1.5"/>
    <path d="M 404.75414 263.525427 
L 411.825207 256.454359 
M 404.75414 256.454359 
L 411.825207 263.525427 
" clip-path="url(#p935e160985)" style="fill: #440154; stroke: #440154; stroke-width: 1.5"/>
    <path d="M 462.627793 346.978379 
L 469.698861 339.907311 
M 462.627793 339.907311 
L 469.698861 346.978379 
" clip-path="url(#p935e160985)" style="fill: #440154; stroke: #440154; stroke-width: 1.5"/>
    <path d="M 227.817912 119.341914 
L 234.888979 112.270846 
M 227.817912 112.270846 
L 234.888979 119.341914 
" clip-path="url(#p935e160985)" style="fill: #fde725; stroke: #fde725; stroke-width: 1.5"/>
    <path d="M 333.704334 287.012619 
L 340.775402 279.941552 
M 333.704334 279.941552 
L 340.775402 287.012619 
" clip-path="url(#p935e160985)" style="fill: #440154; stroke: #440154; stroke-width: 1.5"/>
    <path d="M 269.113233 102.458783 
L 276.184301 95.387715 
M 269.113233 95.387715 
L 276.184301 102.458783 
" clip-path="url(#p935e160985)" style="fill: #fde725; stroke: #fde725; stroke-width: 1.5"/>
    <path d="M 442.528929 212.961678 
L 449.599997 205.890611 
M 442.528929 205.890611 
L 449.599997 212.961678 
" clip-path="url(#p935e160985)" style="fill: #440154; stroke: #440154; stroke-width: 1.5"/>
    <path d="M 346.011519 324.316105 
L 353.082587 317.245037 
M 346.011519 317.245037 
L 353.082587 324.316105 
" clip-path="url(#p935e160985)" style="fill: #440154; stroke: #440154; stroke-width: 1.5"/>
    <path d="M 350.438223 156.424085 
L 357.509291 149.353017 
M 350.438223 149.353017 
L 357.509291 156.424085 
" clip-path="url(#p935e160985)" style="fill: #fde725; stroke: #fde725; stroke-width: 1.5"/>
    <path d="M 405.180931 134.337979 
L 412.251998 127.266911 
M 405.180931 127.266911 
L 412.251998 134.337979 
" clip-path="url(#p935e160985)" style="fill: #440154; stroke: #440154; stroke-width: 1.5"/>
    <path d="M 427.447373 212.846885 
L 434.518441 205.775817 
M 427.447373 205.775817 
L 434.518441 212.846885 
" clip-path="url(#p935e160985)" style="fill: #440154; stroke: #440154; stroke-width: 1.5"/>
    <path d="M 273.484692 205.541736 
L 280.55576 198.470669 
M 273.484692 198.470669 
L 280.55576 205.541736 
" clip-path="url(#p935e160985)" style="fill: #fde725; stroke: #fde725; stroke-width: 1.5"/>
    <path d="M 376.364766 105.740121 
L 383.435834 98.669053 
M 376.364766 98.669053 
L 383.435834 105.740121 
" clip-path="url(#p935e160985)" style="fill: #fde725; stroke: #fde725; stroke-width: 1.5"/>
    <path d="M 619.10083 207.761895 
L 626.171898 200.690827 
M 619.10083 200.690827 
L 626.171898 207.761895 
" clip-path="url(#p935e160985)" style="fill: #440154; stroke: #440154; stroke-width: 1.5"/>
    <path d="M 450.950104 345.236871 
L 458.021172 338.165804 
M 450.950104 338.165804 
L 458.021172 345.236871 
" clip-path="url(#p935e160985)" style="fill: #440154; stroke: #440154; stroke-width: 1.5"/>
    <path d="M 147.654918 181.574402 
L 154.725986 174.503334 
M 147.654918 174.503334 
L 154.725986 181.574402 
" clip-path="url(#p935e160985)" style="fill: #fde725; stroke: #fde725; stroke-width: 1.5"/>
    <path d="M 367.628631 319.884023 
L 374.699699 312.812955 
M 367.628631 312.812955 
L 374.699699 319.884023 
" clip-path="url(#p935e160985)" style="fill: #440154; stroke: #440154; stroke-width: 1.5"/>
    <path d="M 342.073075 114.677556 
L 349.144143 107.606488 
M 342.073075 107.606488 
L 349.144143 114.677556 
" clip-path="url(#p935e160985)" style="fill: #fde725; stroke: #fde725; stroke-width: 1.5"/>
    <path d="M 325.098817 302.492728 
L 332.169885 295.42166 
M 325.098817 295.42166 
L 332.169885 302.492728 
" clip-path="url(#p935e160985)" style="fill: #440154; stroke: #440154; stroke-width: 1.5"/>
    <path d="M 415.152243 364.098834 
L 422.223311 357.027767 
M 415.152243 357.027767 
L 422.223311 364.098834 
" clip-path="url(#p935e160985)" style="fill: #440154; stroke: #440154; stroke-width: 1.5"/>
    <path d="M 135.411015 180.520287 
L 142.482083 173.449219 
M 135.411015 173.449219 
L 142.482083 180.520287 
" clip-path="url(#p935e160985)" style="fill: #fde725; stroke: #fde725; stroke-width: 1.5"/>
    <path d="M 400.50502 309.995421 
L 407.576087 302.924353 
M 400.50502 302.924353 
L 407.576087 309.995421 
" clip-path="url(#p935e160985)" style="fill: #440154; stroke: #440154; stroke-width: 1.5"/>
    <path d="M 514.745148 328.721307 
L 521.816216 321.650239 
M 514.745148 321.650239 
L 521.816216 328.721307 
" clip-path="url(#p935e160985)" style="fill: #440154; stroke: #440154; stroke-width: 1.5"/>
    <path d="M 368.511947 136.06173 
L 375.583015 128.990662 
M 368.511947 128.990662 
L 375.583015 136.06173 
" clip-path="url(#p935e160985)" style="fill: #fde725; stroke: #fde725; stroke-width: 1.5"/>
    <path d="M 186.569447 140.343726 
L 193.640515 133.272658 
M 186.569447 133.272658 
L 193.640515 140.343726 
" clip-path="url(#p935e160985)" style="fill: #fde725; stroke: #fde725; stroke-width: 1.5"/>
    <path d="M 149.191117 198.621692 
L 156.262185 191.550625 
M 149.191117 191.550625 
L 156.262185 198.621692 
" clip-path="url(#p935e160985)" style="fill: #fde725; stroke: #fde725; stroke-width: 1.5"/>
    <path d="M 577.066584 214.329567 
L 584.137651 207.258499 
M 577.066584 207.258499 
L 584.137651 214.329567 
" clip-path="url(#p935e160985)" style="fill: #440154; stroke: #440154; stroke-width: 1.5"/>
    <path d="M 389.761123 352.120911 
L 396.832191 345.049843 
M 389.761123 345.049843 
L 396.832191 352.120911 
" clip-path="url(#p935e160985)" style="fill: #440154; stroke: #440154; stroke-width: 1.5"/>
    <path d="M 144.645153 275.554374 
L 151.716221 268.483307 
M 144.645153 268.483307 
L 151.716221 275.554374 
" clip-path="url(#p935e160985)" style="fill: #fde725; stroke: #fde725; stroke-width: 1.5"/>
    <path d="M 197.251714 129.884092 
L 204.322782 122.813024 
M 197.251714 122.813024 
L 204.322782 129.884092 
" clip-path="url(#p935e160985)" style="fill: #fde725; stroke: #fde725; stroke-width: 1.5"/>
    <path d="M 466.710187 308.994535 
L 473.781255 301.923467 
M 466.710187 301.923467 
L 473.781255 308.994535 
" clip-path="url(#p935e160985)" style="fill: #440154; stroke: #440154; stroke-width: 1.5"/>
    <path d="M 185.184035 118.135723 
L 192.255103 111.064655 
M 185.184035 111.064655 
L 192.255103 118.135723 
" clip-path="url(#p935e160985)" style="fill: #fde725; stroke: #fde725; stroke-width: 1.5"/>
    <path d="M 429.329766 336.752425 
L 436.400834 329.681357 
M 429.329766 329.681357 
L 436.400834 336.752425 
" clip-path="url(#p935e160985)" style="fill: #440154; stroke: #440154; stroke-width: 1.5"/>
    <path d="M 213.230589 126.491638 
L 220.301657 119.420571 
M 213.230589 119.420571 
L 220.301657 126.491638 
" clip-path="url(#p935e160985)" style="fill: #fde725; stroke: #fde725; stroke-width: 1.5"/>
    <path d="M 404.476111 340.056124 
L 411.547179 332.985056 
M 404.476111 332.985056 
L 411.547179 340.056124 
" clip-path="url(#p935e160985)" style="fill: #440154; stroke: #440154; stroke-width: 1.5"/>
    <path d="M 289.471761 224.438011 
L 296.542829 217.366943 
M 289.471761 217.366943 
L 296.542829 224.438011 
" clip-path="url(#p935e160985)" style="fill: #fde725; stroke: #fde725; stroke-width: 1.5"/>
    <path d="M 397.327953 173.146732 
L 404.399021 166.075665 
M 397.327953 166.075665 
L 404.399021 173.146732 
" clip-path="url(#p935e160985)" style="fill: #440154; stroke: #440154; stroke-width: 1.5"/>
    <path d="M 309.056041 246.83576 
L 316.127109 239.764692 
M 309.056041 239.764692 
L 316.127109 246.83576 
" clip-path="url(#p935e160985)" style="fill: #fde725; stroke: #fde725; stroke-width: 1.5"/>
    <path d="M 175.717023 161.212873 
L 182.788091 154.141805 
M 175.717023 154.141805 
L 182.788091 161.212873 
" clip-path="url(#p935e160985)" style="fill: #fde725; stroke: #fde725; stroke-width: 1.5"/>
    <path d="M 450.277485 301.622255 
L 457.348553 294.551187 
M 450.277485 294.551187 
L 457.348553 301.622255 
" clip-path="url(#p935e160985)" style="fill: #440154; stroke: #440154; stroke-width: 1.5"/>
    <path d="M 246.482719 128.499955 
L 253.553787 121.428888 
M 246.482719 121.428888 
L 253.553787 128.499955 
" clip-path="url(#p935e160985)" style="fill: #fde725; stroke: #fde725; stroke-width: 1.5"/>
    <path d="M 565.167816 257.79616 
L 572.238884 250.725093 
M 565.167816 250.725093 
L 572.238884 257.79616 
" clip-path="url(#p935e160985)" style="fill: #440154; stroke: #440154; stroke-width: 1.5"/>
    <path d="M 240.156499 124.161546 
L 247.227567 117.090479 
M 240.156499 117.090479 
L 247.227567 124.161546 
" clip-path="url(#p935e160985)" style="fill: #fde725; stroke: #fde725; stroke-width: 1.5"/>
    <path d="M 570.90731 173.271034 
L 577.978378 166.199966 
M 570.90731 166.199966 
L 577.978378 173.271034 
" clip-path="url(#p935e160985)" style="fill: #440154; stroke: #440154; stroke-width: 1.5"/>
    <path d="M 501.85164 295.418853 
L 508.922708 288.347785 
M 501.85164 288.347785 
L 508.922708 295.418853 
" clip-path="url(#p935e160985)" style="fill: #440154; stroke: #440154; stroke-width: 1.5"/>
    <path d="M 461.779169 343.33645 
L 468.850237 336.265382 
M 461.779169 336.265382 
L 468.850237 343.33645 
" clip-path="url(#p935e160985)" style="fill: #440154; stroke: #440154; stroke-width: 1.5"/>
    <path d="M 334.251912 107.378071 
L 341.32298 100.307003 
M 334.251912 100.307003 
L 341.32298 107.378071 
" clip-path="url(#p935e160985)" style="fill: #fde725; stroke: #fde725; stroke-width: 1.5"/>
    <path d="M 365.759611 155.452674 
L 372.830679 148.381606 
M 365.759611 148.381606 
L 372.830679 155.452674 
" clip-path="url(#p935e160985)" style="fill: #fde725; stroke: #fde725; stroke-width: 1.5"/>
    <path d="M 354.843834 126.298465 
L 361.914902 119.227397 
M 354.843834 119.227397 
L 361.914902 126.298465 
" clip-path="url(#p935e160985)" style="fill: #fde725; stroke: #fde725; stroke-width: 1.5"/>
    <path d="M 260.772177 99.816067 
L 267.843244 92.744999 
M 260.772177 92.744999 
L 267.843244 99.816067 
" clip-path="url(#p935e160985)" style="fill: #fde725; stroke: #fde725; stroke-width: 1.5"/>
    <path d="M 581.142378 182.014504 
L 588.213446 174.943436 
M 581.142378 174.943436 
L 588.213446 182.014504 
" clip-path="url(#p935e160985)" style="fill: #440154; stroke: #440154; stroke-width: 1.5"/>
    <path d="M 149.831688 264.0416 
L 156.902756 256.970533 
M 149.831688 256.970533 
L 156.902756 264.0416 
" clip-path="url(#p935e160985)" style="fill: #fde725; stroke: #fde725; stroke-width: 1.5"/>
    <path d="M 382.101243 317.225452 
L 389.172311 310.154384 
M 382.101243 310.154384 
L 389.172311 317.225452 
" clip-path="url(#p935e160985)" style="fill: #440154; stroke: #440154; stroke-width: 1.5"/>
    <path d="M 426.202119 194.618972 
L 433.273187 187.547904 
M 426.202119 187.547904 
L 433.273187 194.618972 
" clip-path="url(#p935e160985)" style="fill: #440154; stroke: #440154; stroke-width: 1.5"/>
    <path d="M 486.885104 341.401716 
L 493.956171 334.330648 
M 486.885104 334.330648 
L 493.956171 341.401716 
" clip-path="url(#p935e160985)" style="fill: #440154; stroke: #440154; stroke-width: 1.5"/>
    <path d="M 139.203914 240.71381 
L 146.274982 233.642742 
M 139.203914 233.642742 
L 146.274982 240.71381 
" clip-path="url(#p935e160985)" style="fill: #fde725; stroke: #fde725; stroke-width: 1.5"/>
    <path d="M 113.635992 252.294436 
L 120.707059 245.223369 
M 113.635992 245.223369 
L 120.707059 252.294436 
" clip-path="url(#p935e160985)" style="fill: #fde725; stroke: #fde725; stroke-width: 1.5"/>
    <path d="M 260.243896 93.809374 
L 267.314964 86.738307 
M 260.243896 86.738307 
L 267.314964 93.809374 
" clip-path="url(#p935e160985)" style="fill: #fde725; stroke: #fde725; stroke-width: 1.5"/>
    <path d="M 308.025822 283.260722 
L 315.09689 276.189655 
M 308.025822 276.189655 
L 315.09689 283.260722 
" clip-path="url(#p935e160985)" style="fill: #fde725; stroke: #fde725; stroke-width: 1.5"/>
    <path d="M 209.475147 120.700646 
L 216.546214 113.629579 
M 209.475147 113.629579 
L 216.546214 120.700646 
" clip-path="url(#p935e160985)" style="fill: #fde725; stroke: #fde725; stroke-width: 1.5"/>
    <path d="M 367.260441 372.895534 
L 374.331509 365.824466 
M 367.260441 365.824466 
L 374.331509 372.895534 
" clip-path="url(#p935e160985)" style="fill: #440154; stroke: #440154; stroke-width: 1.5"/>
    <path d="M 159.50093 197.021021 
L 166.571998 189.949953 
M 159.50093 189.949953 
L 166.571998 197.021021 
" clip-path="url(#p935e160985)" style="fill: #fde725; stroke: #fde725; stroke-width: 1.5"/>
    <path d="M 545.786163 298.056748 
L 552.857231 290.98568 
M 545.786163 290.98568 
L 552.857231 298.056748 
" clip-path="url(#p935e160985)" style="fill: #440154; stroke: #440154; stroke-width: 1.5"/>
    <path d="M 586.273675 181.031892 
L 593.344743 173.960824 
M 586.273675 173.960824 
L 593.344743 181.031892 
" clip-path="url(#p935e160985)" style="fill: #440154; stroke: #440154; stroke-width: 1.5"/>
    <path d="M 344.633304 315.756931 
L 351.704372 308.685864 
M 344.633304 308.685864 
L 351.704372 315.756931 
" clip-path="url(#p935e160985)" style="fill: #440154; stroke: #440154; stroke-width: 1.5"/>
    <path d="M 419.645905 244.783627 
L 426.716973 237.712559 
M 419.645905 237.712559 
L 426.716973 244.783627 
" clip-path="url(#p935e160985)" style="fill: #440154; stroke: #440154; stroke-width: 1.5"/>
    <path d="M 285.075604 100.584947 
L 292.146672 93.513879 
M 285.075604 93.513879 
L 292.146672 100.584947 
" clip-path="url(#p935e160985)" style="fill: #fde725; stroke: #fde725; stroke-width: 1.5"/>
    <path d="M 356.369308 320.234628 
L 363.440376 313.163561 
M 356.369308 313.163561 
L 363.440376 320.234628 
" clip-path="url(#p935e160985)" style="fill: #440154; stroke: #440154; stroke-width: 1.5"/>
    <path d="M 237.969407 117.962039 
L 245.040475 110.890971 
M 237.969407 110.890971 
L 245.040475 117.962039 
" clip-path="url(#p935e160985)" style="fill: #fde725; stroke: #fde725; stroke-width: 1.5"/>
    <path d="M 299.006915 273.447865 
L 306.077982 266.376797 
M 299.006915 266.376797 
L 306.077982 273.447865 
" clip-path="url(#p935e160985)" style="fill: #fde725; stroke: #fde725; stroke-width: 1.5"/>
    <path d="M 167.610942 180.733819 
L 174.68201 173.662751 
M 167.610942 173.662751 
L 174.68201 180.733819 
" clip-path="url(#p935e160985)" style="fill: #fde725; stroke: #fde725; stroke-width: 1.5"/>
    <path d="M 118.169123 252.588 
L 125.240191 245.516932 
M 118.169123 245.516932 
L 125.240191 252.588 
" clip-path="url(#p935e160985)" style="fill: #fde725; stroke: #fde725; stroke-width: 1.5"/>
    <path d="M 533.754269 292.564923 
L 540.825337 285.493855 
M 533.754269 285.493855 
L 540.825337 292.564923 
" clip-path="url(#p935e160985)" style="fill: #440154; stroke: #440154; stroke-width: 1.5"/>
    <path d="M 559.300861 255.843795 
L 566.371928 248.772727 
M 559.300861 248.772727 
L 566.371928 255.843795 
" clip-path="url(#p935e160985)" style="fill: #440154; stroke: #440154; stroke-width: 1.5"/>
    <path d="M 145.97183 233.593529 
L 153.042898 226.522461 
M 145.97183 226.522461 
L 153.042898 233.593529 
" clip-path="url(#p935e160985)" style="fill: #fde725; stroke: #fde725; stroke-width: 1.5"/>
    <path d="M 546.156535 328.001905 
L 553.227603 320.930837 
M 546.156535 320.930837 
L 553.227603 328.001905 
" clip-path="url(#p935e160985)" style="fill: #440154; stroke: #440154; stroke-width: 1.5"/>
    <path d="M 247.693006 120.944013 
L 254.764074 113.872945 
M 247.693006 113.872945 
L 254.764074 120.944013 
" clip-path="url(#p935e160985)" style="fill: #fde725; stroke: #fde725; stroke-width: 1.5"/>
    <path d="M 261.389143 112.297783 
L 268.460211 105.226715 
M 261.389143 105.226715 
L 268.460211 112.297783 
" clip-path="url(#p935e160985)" style="fill: #fde725; stroke: #fde725; stroke-width: 1.5"/>
    <path d="M 567.375457 254.446404 
L 574.446525 247.375336 
M 567.375457 247.375336 
L 574.446525 254.446404 
" clip-path="url(#p935e160985)" style="fill: #440154; stroke: #440154; stroke-width: 1.5"/>
    <path d="M 433.223813 199.740985 
L 440.294881 192.669917 
M 433.223813 192.669917 
L 440.294881 199.740985 
" clip-path="url(#p935e160985)" style="fill: #440154; stroke: #440154; stroke-width: 1.5"/>
    <path d="M 168.6491 169.450912 
L 175.720168 162.379844 
M 168.6491 162.379844 
L 175.720168 169.450912 
" clip-path="url(#p935e160985)" style="fill: #fde725; stroke: #fde725; stroke-width: 1.5"/>
    <path d="M 197.331394 132.972502 
L 204.402462 125.901434 
M 197.331394 125.901434 
L 204.402462 132.972502 
" clip-path="url(#p935e160985)" style="fill: #fde725; stroke: #fde725; stroke-width: 1.5"/>
    <path d="M 403.139176 162.475205 
L 410.210243 155.404137 
M 403.139176 155.404137 
L 410.210243 162.475205 
" clip-path="url(#p935e160985)" style="fill: #440154; stroke: #440154; stroke-width: 1.5"/>
    <path d="M 334.024871 109.843929 
L 341.095939 102.772861 
M 334.024871 102.772861 
L 341.095939 109.843929 
" clip-path="url(#p935e160985)" style="fill: #fde725; stroke: #fde725; stroke-width: 1.5"/>
    <path d="M 285.925904 240.576095 
L 292.996972 233.505027 
M 285.925904 233.505027 
L 292.996972 240.576095 
" clip-path="url(#p935e160985)" style="fill: #fde725; stroke: #fde725; stroke-width: 1.5"/>
    <path d="M 466.534958 317.026135 
L 473.606026 309.955067 
M 466.534958 309.955067 
L 473.606026 317.026135 
" clip-path="url(#p935e160985)" style="fill: #440154; stroke: #440154; stroke-width: 1.5"/>
    <path d="M 315.63728 87.412503 
L 322.708348 80.341435 
M 315.63728 80.341435 
L 322.708348 87.412503 
" clip-path="url(#p935e160985)" style="fill: #fde725; stroke: #fde725; stroke-width: 1.5"/>
    <path d="M 449.602589 273.941781 
L 456.673657 266.870713 
M 449.602589 266.870713 
L 456.673657 273.941781 
" clip-path="url(#p935e160985)" style="fill: #440154; stroke: #440154; stroke-width: 1.5"/>
    <path d="M 149.805265 176.862325 
L 156.876333 169.791257 
M 149.805265 169.791257 
L 156.876333 176.862325 
" clip-path="url(#p935e160985)" style="fill: #fde725; stroke: #fde725; stroke-width: 1.5"/>
    <path d="M 567.86026 277.044393 
L 574.931328 269.973325 
M 567.86026 269.973325 
L 574.931328 277.044393 
" clip-path="url(#p935e160985)" style="fill: #440154; stroke: #440154; stroke-width: 1.5"/>
    <path d="M 319.232651 266.835886 
L 326.303719 259.764818 
M 319.232651 259.764818 
L 326.303719 266.835886 
" clip-path="url(#p935e160985)" style="fill: #fde725; stroke: #fde725; stroke-width: 1.5"/>
    <path d="M 384.817434 177.073968 
L 391.888502 170.0029 
M 384.817434 170.0029 
L 391.888502 177.073968 
" clip-path="url(#p935e160985)" style="fill: #440154; stroke: #440154; stroke-width: 1.5"/>
    <path d="M 204.469279 128.689431 
L 211.540347 121.618363 
M 204.469279 121.618363 
L 211.540347 128.689431 
" clip-path="url(#p935e160985)" style="fill: #fde725; stroke: #fde725; stroke-width: 1.5"/>
    <path d="M 153.7253 199.923296 
L 160.796367 192.852229 
M 153.7253 192.852229 
L 160.796367 199.923296 
" clip-path="url(#p935e160985)" style="fill: #fde725; stroke: #fde725; stroke-width: 1.5"/>
    <path d="M 272.894454 126.909722 
L 279.965522 119.838654 
M 272.894454 119.838654 
L 279.965522 126.909722 
" clip-path="url(#p935e160985)" style="fill: #fde725; stroke: #fde725; stroke-width: 1.5"/>
    <path d="M 419.702082 221.697625 
L 426.77315 214.626557 
M 419.702082 214.626557 
L 426.77315 221.697625 
" clip-path="url(#p935e160985)" style="fill: #440154; stroke: #440154; stroke-width: 1.5"/>
    <path d="M 527.198889 310.7693 
L 534.269957 303.698232 
M 527.198889 303.698232 
L 534.269957 310.7693 
" clip-path="url(#p935e160985)" style="fill: #440154; stroke: #440154; stroke-width: 1.5"/>
    <path d="M 464.198518 336.23683 
L 471.269586 329.165762 
M 464.198518 329.165762 
L 471.269586 336.23683 
" clip-path="url(#p935e160985)" style="fill: #440154; stroke: #440154; stroke-width: 1.5"/>
    <path d="M 383.272269 159.742498 
L 390.343337 152.67143 
M 383.272269 152.67143 
L 390.343337 159.742498 
" clip-path="url(#p935e160985)" style="fill: #fde725; stroke: #fde725; stroke-width: 1.5"/>
    <path d="M 149.018034 193.193218 
L 156.089102 186.122151 
M 149.018034 186.122151 
L 156.089102 193.193218 
" clip-path="url(#p935e160985)" style="fill: #fde725; stroke: #fde725; stroke-width: 1.5"/>
    <path d="M 322.619511 115.514149 
L 329.690578 108.443082 
M 322.619511 108.443082 
L 329.690578 115.514149 
" clip-path="url(#p935e160985)" style="fill: #fde725; stroke: #fde725; stroke-width: 1.5"/>
    <path d="M 521.662254 331.785223 
L 528.733322 324.714156 
M 521.662254 324.714156 
L 528.733322 331.785223 
" clip-path="url(#p935e160985)" style="fill: #440154; stroke: #440154; stroke-width: 1.5"/>
    <path d="M 126.69858 209.069797 
L 133.769648 201.998729 
M 126.69858 201.998729 
L 133.769648 209.069797 
" clip-path="url(#p935e160985)" style="fill: #fde725; stroke: #fde725; stroke-width: 1.5"/>
    <path d="M 412.853655 168.683343 
L 419.924722 161.612275 
M 412.853655 161.612275 
L 419.924722 168.683343 
" clip-path="url(#p935e160985)" style="fill: #440154; stroke: #440154; stroke-width: 1.5"/>
    <path d="M 308.101477 267.816877 
L 315.172545 260.74581 
M 308.101477 260.74581 
L 315.172545 267.816877 
" clip-path="url(#p935e160985)" style="fill: #fde725; stroke: #fde725; stroke-width: 1.5"/>
    <path d="M 314.126554 219.718874 
L 321.197622 212.647806 
M 314.126554 212.647806 
L 321.197622 219.718874 
" clip-path="url(#p935e160985)" style="fill: #fde725; stroke: #fde725; stroke-width: 1.5"/>
    <path d="M 279.135512 169.403174 
L 286.20658 162.332106 
M 279.135512 162.332106 
L 286.20658 169.403174 
" clip-path="url(#p935e160985)" style="fill: #fde725; stroke: #fde725; stroke-width: 1.5"/>
    <path d="M 504.166583 313.17061 
L 511.237651 306.099542 
M 504.166583 306.099542 
L 511.237651 313.17061 
" clip-path="url(#p935e160985)" style="fill: #440154; stroke: #440154; stroke-width: 1.5"/>
    <path d="M 357.826508 366.711921 
L 364.897576 359.640853 
M 357.826508 359.640853 
L 364.897576 366.711921 
" clip-path="url(#p935e160985)" style="fill: #440154; stroke: #440154; stroke-width: 1.5"/>
    <path d="M 435.278618 191.934322 
L 442.349686 184.863255 
M 435.278618 184.863255 
L 442.349686 191.934322 
" clip-path="url(#p935e160985)" style="fill: #440154; stroke: #440154; stroke-width: 1.5"/>
    <path d="M 401.797637 127.053533 
L 408.868705 119.982465 
M 401.797637 119.982465 
L 408.868705 127.053533 
" clip-path="url(#p935e160985)" style="fill: #440154; stroke: #440154; stroke-width: 1.5"/>
    <path d="M 161.442456 177.054604 
L 168.513524 169.983536 
M 161.442456 169.983536 
L 168.513524 177.054604 
" clip-path="url(#p935e160985)" style="fill: #fde725; stroke: #fde725; stroke-width: 1.5"/>
    <path d="M 303.900853 316.388925 
L 310.971921 309.317858 
M 303.900853 309.317858 
L 310.971921 316.388925 
" clip-path="url(#p935e160985)" style="fill: #fde725; stroke: #fde725; stroke-width: 1.5"/>
    <path d="M 559.187012 233.49865 
L 566.25808 226.427582 
M 559.187012 226.427582 
L 566.25808 233.49865 
" clip-path="url(#p935e160985)" style="fill: #440154; stroke: #440154; stroke-width: 1.5"/>
    <path d="M 551.23905 282.928918 
L 558.310117 275.85785 
M 551.23905 275.85785 
L 558.310117 282.928918 
" clip-path="url(#p935e160985)" style="fill: #440154; stroke: #440154; stroke-width: 1.5"/>
    <path d="M 144.127932 238.223363 
L 151.199 231.152295 
M 144.127932 231.152295 
L 151.199 238.223363 
" clip-path="url(#p935e160985)" style="fill: #fde725; stroke: #fde725; stroke-width: 1.5"/>
    <path d="M 543.038713 275.295476 
L 550.10978 268.224408 
M 543.038713 268.224408 
L 550.10978 275.295476 
" clip-path="url(#p935e160985)" style="fill: #440154; stroke: #440154; stroke-width: 1.5"/>
    <path d="M 299.343136 250.694008 
L 306.414204 243.62294 
M 299.343136 243.62294 
L 306.414204 250.694008 
" clip-path="url(#p935e160985)" style="fill: #fde725; stroke: #fde725; stroke-width: 1.5"/>
    <path d="M 218.774827 92.723358 
L 225.845895 85.652291 
M 218.774827 85.652291 
L 225.845895 92.723358 
" clip-path="url(#p935e160985)" style="fill: #fde725; stroke: #fde725; stroke-width: 1.5"/>
    <path d="M 367.833346 314.754014 
L 374.904414 307.682947 
M 367.833346 307.682947 
L 374.904414 314.754014 
" clip-path="url(#p935e160985)" style="fill: #440154; stroke: #440154; stroke-width: 1.5"/>
    <path d="M 508.794972 324.689308 
L 515.866039 317.61824 
M 508.794972 317.61824 
L 515.866039 324.689308 
" clip-path="url(#p935e160985)" style="fill: #440154; stroke: #440154; stroke-width: 1.5"/>
    <path d="M 166.857898 148.543831 
L 173.928966 141.472763 
M 166.857898 141.472763 
L 173.928966 148.543831 
" clip-path="url(#p935e160985)" style="fill: #fde725; stroke: #fde725; stroke-width: 1.5"/>
    <path d="M 534.827896 290.722382 
L 541.898964 283.651315 
M 534.827896 283.651315 
L 541.898964 290.722382 
" clip-path="url(#p935e160985)" style="fill: #440154; stroke: #440154; stroke-width: 1.5"/>
    <path d="M 314.982655 107.431306 
L 322.053723 100.360238 
M 314.982655 100.360238 
L 322.053723 107.431306 
" clip-path="url(#p935e160985)" style="fill: #fde725; stroke: #fde725; stroke-width: 1.5"/>
    <path d="M 402.770753 190.431537 
L 409.841821 183.360469 
M 402.770753 183.360469 
L 409.841821 190.431537 
" clip-path="url(#p935e160985)" style="fill: #440154; stroke: #440154; stroke-width: 1.5"/>
    <path d="M 310.041019 240.817829 
L 317.112087 233.746761 
M 310.041019 233.746761 
L 317.112087 240.817829 
" clip-path="url(#p935e160985)" style="fill: #fde725; stroke: #fde725; stroke-width: 1.5"/>
    <path d="M 570.80135 230.686476 
L 577.872418 223.615409 
M 570.80135 223.615409 
L 577.872418 230.686476 
" clip-path="url(#p935e160985)" style="fill: #440154; stroke: #440154; stroke-width: 1.5"/>
    <path d="M 308.858724 265.314905 
L 315.929791 258.243837 
M 308.858724 258.243837 
L 315.929791 265.314905 
" clip-path="url(#p935e160985)" style="fill: #fde725; stroke: #fde725; stroke-width: 1.5"/>
    <path d="M 554.401408 230.164003 
L 561.472475 223.092935 
M 554.401408 223.092935 
L 561.472475 230.164003 
" clip-path="url(#p935e160985)" style="fill: #440154; stroke: #440154; stroke-width: 1.5"/>
    <path d="M 373.919862 127.942845 
L 380.990929 120.871777 
M 373.919862 120.871777 
L 380.990929 127.942845 
" clip-path="url(#p935e160985)" style="fill: #fde725; stroke: #fde725; stroke-width: 1.5"/>
    <path d="M 355.966599 297.375944 
L 363.037667 290.304876 
M 355.966599 290.304876 
L 363.037667 297.375944 
" clip-path="url(#p935e160985)" style="fill: #440154; stroke: #440154; stroke-width: 1.5"/>
    <path d="M 239.174237 124.643737 
L 246.245305 117.572669 
M 239.174237 117.572669 
L 246.245305 124.643737 
" clip-path="url(#p935e160985)" style="fill: #fde725; stroke: #fde725; stroke-width: 1.5"/>
    <path d="M 294.22994 122.750699 
L 301.301007 115.679631 
M 294.22994 115.679631 
L 301.301007 122.750699 
" clip-path="url(#p935e160985)" style="fill: #fde725; stroke: #fde725; stroke-width: 1.5"/>
    <path d="M 286.194281 146.061204 
L 293.265348 138.990136 
M 286.194281 138.990136 
L 293.265348 146.061204 
" clip-path="url(#p935e160985)" style="fill: #fde725; stroke: #fde725; stroke-width: 1.5"/>
    <path d="M 495.638757 349.254356 
L 502.709825 342.183288 
M 495.638757 342.183288 
L 502.709825 349.254356 
" clip-path="url(#p935e160985)" style="fill: #440154; stroke: #440154; stroke-width: 1.5"/>
    <path d="M 564.115914 268.895822 
L 571.186982 261.824754 
M 564.115914 261.824754 
L 571.186982 268.895822 
" clip-path="url(#p935e160985)" style="fill: #440154; stroke: #440154; stroke-width: 1.5"/>
    <path d="M 375.997275 351.225425 
L 383.068343 344.154357 
M 375.997275 344.154357 
L 383.068343 351.225425 
" clip-path="url(#p935e160985)" style="fill: #440154; stroke: #440154; stroke-width: 1.5"/>
    <path d="M 457.57184 234.325983 
L 464.642908 227.254915 
M 457.57184 227.254915 
L 464.642908 234.325983 
" clip-path="url(#p935e160985)" style="fill: #440154; stroke: #440154; stroke-width: 1.5"/>
    <path d="M 337.763944 301.812883 
L 344.835012 294.741815 
M 337.763944 294.741815 
L 344.835012 301.812883 
" clip-path="url(#p935e160985)" style="fill: #440154; stroke: #440154; stroke-width: 1.5"/>
    <path d="M 512.373759 304.743614 
L 519.444827 297.672546 
M 512.373759 297.672546 
L 519.444827 304.743614 
" clip-path="url(#p935e160985)" style="fill: #440154; stroke: #440154; stroke-width: 1.5"/>
    <path d="M 314.871927 299.747149 
L 321.942995 292.676081 
M 314.871927 292.676081 
L 321.942995 299.747149 
" clip-path="url(#p935e160985)" style="fill: #fde725; stroke: #fde725; stroke-width: 1.5"/>
    <path d="M 184.567614 190.134991 
L 191.638682 183.063923 
M 184.567614 183.063923 
L 191.638682 190.134991 
" clip-path="url(#p935e160985)" style="fill: #fde725; stroke: #fde725; stroke-width: 1.5"/>
    <path d="M 374.717033 104.670091 
L 381.788101 97.599023 
M 374.717033 97.599023 
L 381.788101 104.670091 
" clip-path="url(#p935e160985)" style="fill: #fde725; stroke: #fde725; stroke-width: 1.5"/>
    <path d="M 303.059664 240.659705 
L 310.130732 233.588637 
M 303.059664 233.588637 
L 310.130732 240.659705 
" clip-path="url(#p935e160985)" style="fill: #fde725; stroke: #fde725; stroke-width: 1.5"/>
   </g>
   <g id="PathCollection_2">
    <defs>
     <path id="me09bca95d2" d="M -3.535534 7.071068 
L 0 3.535534 
L 3.535534 7.071068 
L 7.071068 3.535534 
L 3.535534 0 
L 7.071068 -3.535534 
L 3.535534 -7.071068 
L 0 -3.535534 
L -3.535534 -7.071068 
L -7.071068 -3.535534 
L -3.535534 0 
L -7.071068 3.535534 
z
" style="stroke: #ff0000; stroke-opacity: 0.75"/>
    </defs>
    <g clip-path="url(#p935e160985)">
     <use xlink:href="#me09bca95d2" x="464.055654" y="271.378819" style="fill: #ff0000; fill-opacity: 0.75; stroke: #ff0000; stroke-opacity: 0.75"/>
     <use xlink:href="#me09bca95d2" x="257.618712" y="168.251168" style="fill: #ff0000; fill-opacity: 0.75; stroke: #ff0000; stroke-opacity: 0.75"/>
    </g>
   </g>
   <g id="matplotlib.axis_1">
    <g id="xtick_1">
     <g id="line2d_1">
      <path d="M 144.6292 384.48 
L 144.6292 51.84 
" clip-path="url(#p935e160985)" style="fill: none; stroke-dasharray: 2.22,0.96; stroke-dashoffset: 0; stroke: #b0b0b0; stroke-opacity: 0.7; stroke-width: 0.6"/>
     </g>
     <g id="line2d_2">
      <defs>
       <path id="m282106e28a" d="M 0 0 
L 0 -3.5 
" style="stroke: #1a1a1a; stroke-width: 0.8"/>
      </defs>
      <g>
       <use xlink:href="#m282106e28a" x="144.6292" y="384.48" style="fill: #1a1a1a; stroke: #1a1a1a; stroke-width: 0.8"/>
      </g>
     </g>
     <g id="text_1">
      <!-- 1.0 -->
      <g style="fill: #1a1a1a" transform="translate(130.059512 397.098125) scale(0.12 -0.12)">
       <defs>
        <path id="DejaVuSans-2212" d="M 678 2272 
L 4684 2272 
L 4684 1741 
L 678 1741 
L 678 2272 
z
" transform="scale(0.015625)"/>
        <path id="DejaVuSans-31" d="M 794 531 
L 1825 531 
L 1825 4091 
L 703 3866 
L 703 4441 
L 1819 4666 
L 2450 4666 
L 2450 531 
L 3481 531 
L 3481 0 
L 794 0 
L 794 531 
z
" transform="scale(0.015625)"/>
        <path id="DejaVuSans-2e" d="M 684 794 
L 1344 794 
L 1344 0 
L 684 0 
L 684 794 
z
" transform="scale(0.015625)"/>
        <path id="DejaVuSans-30" d="M 2034 4250 
Q 1547 4250 1301 3770 
Q 1056 3291 1056 2328 
Q 1056 1369 1301 889 
Q 1547 409 2034 409 
Q 2525 409 2770 889 
Q 3016 1369 3016 2328 
Q 3016 3291 2770 3770 
Q 2525 4250 2034 4250 
z
M 2034 4750 
Q 2819 4750 3233 4129 
Q 3647 3509 3647 2328 
Q 3647 1150 3233 529 
Q 2819 -91 2034 -91 
Q 1250 -91 836 529 
Q 422 1150 422 2328 
Q 422 3509 836 4129 
Q 1250 4750 2034 4750 
z
" transform="scale(0.015625)"/>
       </defs>
       <use xlink:href="#DejaVuSans-2212"/>
       <use xlink:href="#DejaVuSans-31" x="83.789062"/>
       <use xlink:href="#DejaVuSans-2e" x="147.412109"/>
       <use xlink:href="#DejaVuSans-30" x="179.199219"/>
      </g>
     </g>
    </g>
    <g id="xtick_2">
     <g id="line2d_3">
      <path d="M 217.971292 384.48 
L 217.971292 51.84 
" clip-path="url(#p935e160985)" style="fill: none; stroke-dasharray: 2.22,0.96; stroke-dashoffset: 0; stroke: #b0b0b0; stroke-opacity: 0.7; stroke-width: 0.6"/>
     </g>
     <g id="line2d_4">
      <g>
       <use xlink:href="#m282106e28a" x="217.971292" y="384.48" style="fill: #1a1a1a; stroke: #1a1a1a; stroke-width: 0.8"/>
      </g>
     </g>
     <g id="text_2">
      <!-- 0.5 -->
      <g style="fill: #1a1a1a" transform="translate(203.401604 397.098125) scale(0.12 -0.12)">
       <defs>
        <path id="DejaVuSans-35" d="M 691 4666 
L 3169 4666 
L 3169 4134 
L 1269 4134 
L 1269 2991 
Q 1406 3038 1543 3061 
Q 1681 3084 1819 3084 
Q 2600 3084 3056 2656 
Q 3513 2228 3513 1497 
Q 3513 744 3044 326 
Q 2575 -91 1722 -91 
Q 1428 -91 1123 -41 
Q 819 9 494 109 
L 494 744 
Q 775 591 1075 516 
Q 1375 441 1709 441 
Q 2250 441 2565 725 
Q 2881 1009 2881 1497 
Q 2881 1984 2565 2268 
Q 2250 2553 1709 2553 
Q 1456 2553 1204 2497 
Q 953 2441 691 2322 
L 691 4666 
z
" transform="scale(0.015625)"/>
       </defs>
       <use xlink:href="#DejaVuSans-2212"/>
       <use xlink:href="#DejaVuSans-30" x="83.789062"/>
       <use xlink:href="#DejaVuSans-2e" x="147.412109"/>
       <use xlink:href="#DejaVuSans-35" x="179.199219"/>
      </g>
     </g>
    </g>
    <g id="xtick_3">
     <g id="line2d_5">
      <path d="M 291.313384 384.48 
L 291.313384 51.84 
" clip-path="url(#p935e160985)" style="fill: none; stroke-dasharray: 2.22,0.96; stroke-dashoffset: 0; stroke: #b0b0b0; stroke-opacity: 0.7; stroke-width: 0.6"/>
     </g>
     <g id="line2d_6">
      <g>
       <use xlink:href="#m282106e28a" x="291.313384" y="384.48" style="fill: #1a1a1a; stroke: #1a1a1a; stroke-width: 0.8"/>
      </g>
     </g>
     <g id="text_3">
      <!-- 0.0 -->
      <g style="fill: #1a1a1a" transform="translate(281.771509 397.098125) scale(0.12 -0.12)">
       <use xlink:href="#DejaVuSans-30"/>
       <use xlink:href="#DejaVuSans-2e" x="63.623047"/>
       <use xlink:href="#DejaVuSans-30" x="95.410156"/>
      </g>
     </g>
    </g>
    <g id="xtick_4">
     <g id="line2d_7">
      <path d="M 364.655477 384.48 
L 364.655477 51.84 
" clip-path="url(#p935e160985)" style="fill: none; stroke-dasharray: 2.22,0.96; stroke-dashoffset: 0; stroke: #b0b0b0; stroke-opacity: 0.7; stroke-width: 0.6"/>
     </g>
     <g id="line2d_8">
      <g>
       <use xlink:href="#m282106e28a" x="364.655477" y="384.48" style="fill: #1a1a1a; stroke: #1a1a1a; stroke-width: 0.8"/>
      </g>
     </g>
     <g id="text_4">
      <!-- 0.5 -->
      <g style="fill: #1a1a1a" transform="translate(355.113602 397.098125) scale(0.12 -0.12)">
       <use xlink:href="#DejaVuSans-30"/>
       <use xlink:href="#DejaVuSans-2e" x="63.623047"/>
       <use xlink:href="#DejaVuSans-35" x="95.410156"/>
      </g>
     </g>
    </g>
    <g id="xtick_5">
     <g id="line2d_9">
      <path d="M 437.997569 384.48 
L 437.997569 51.84 
" clip-path="url(#p935e160985)" style="fill: none; stroke-dasharray: 2.22,0.96; stroke-dashoffset: 0; stroke: #b0b0b0; stroke-opacity: 0.7; stroke-width: 0.6"/>
     </g>
     <g id="line2d_10">
      <g>
       <use xlink:href="#m282106e28a" x="437.997569" y="384.48" style="fill: #1a1a1a; stroke: #1a1a1a; stroke-width: 0.8"/>
      </g>
     </g>
     <g id="text_5">
      <!-- 1.0 -->
      <g style="fill: #1a1a1a" transform="translate(428.455694 397.098125) scale(0.12 -0.12)">
       <use xlink:href="#DejaVuSans-31"/>
       <use xlink:href="#DejaVuSans-2e" x="63.623047"/>
       <use xlink:href="#DejaVuSans-30" x="95.410156"/>
      </g>
     </g>
    </g>
    <g id="xtick_6">
     <g id="line2d_11">
      <path d="M 511.339662 384.48 
L 511.339662 51.84 
" clip-path="url(#p935e160985)" style="fill: none; stroke-dasharray: 2.22,0.96; stroke-dashoffset: 0; stroke: #b0b0b0; stroke-opacity: 0.7; stroke-width: 0.6"/>
     </g>
     <g id="line2d_12">
      <g>
       <use xlink:href="#m282106e28a" x="511.339662" y="384.48" style="fill: #1a1a1a; stroke: #1a1a1a; stroke-width: 0.8"/>
      </g>
     </g>
     <g id="text_6">
      <!-- 1.5 -->
      <g style="fill: #1a1a1a" transform="translate(501.797787 397.098125) scale(0.12 -0.12)">
       <use xlink:href="#DejaVuSans-31"/>
       <use xlink:href="#DejaVuSans-2e" x="63.623047"/>
       <use xlink:href="#DejaVuSans-35" x="95.410156"/>
      </g>
     </g>
    </g>
    <g id="xtick_7">
     <g id="line2d_13">
      <path d="M 584.681754 384.48 
L 584.681754 51.84 
" clip-path="url(#p935e160985)" style="fill: none; stroke-dasharray: 2.22,0.96; stroke-dashoffset: 0; stroke: #b0b0b0; stroke-opacity: 0.7; stroke-width: 0.6"/>
     </g>
     <g id="line2d_14">
      <g>
       <use xlink:href="#m282106e28a" x="584.681754" y="384.48" style="fill: #1a1a1a; stroke: #1a1a1a; stroke-width: 0.8"/>
      </g>
     </g>
     <g id="text_7">
      <!-- 2.0 -->
      <g style="fill: #1a1a1a" transform="translate(575.139879 397.098125) scale(0.12 -0.12)">
       <defs>
        <path id="DejaVuSans-32" d="M 1228 531 
L 3431 531 
L 3431 0 
L 469 0 
L 469 531 
Q 828 903 1448 1529 
Q 2069 2156 2228 2338 
Q 2531 2678 2651 2914 
Q 2772 3150 2772 3378 
Q 2772 3750 2511 3984 
Q 2250 4219 1831 4219 
Q 1534 4219 1204 4116 
Q 875 4013 500 3803 
L 500 4441 
Q 881 4594 1212 4672 
Q 1544 4750 1819 4750 
Q 2544 4750 2975 4387 
Q 3406 4025 3406 3419 
Q 3406 3131 3298 2873 
Q 3191 2616 2906 2266 
Q 2828 2175 2409 1742 
Q 1991 1309 1228 531 
z
" transform="scale(0.015625)"/>
       </defs>
       <use xlink:href="#DejaVuSans-32"/>
       <use xlink:href="#DejaVuSans-2e" x="63.623047"/>
       <use xlink:href="#DejaVuSans-30" x="95.410156"/>
      </g>
     </g>
    </g>
    <g id="text_8">
     <!-- Feature 1 -->
     <g style="fill: #1a1a1a" transform="translate(340.607813 412.711875) scale(0.12 -0.12)">
      <defs>
       <path id="DejaVuSans-46" d="M 628 4666 
L 3309 4666 
L 3309 4134 
L 1259 4134 
L 1259 2759 
L 3109 2759 
L 3109 2228 
L 1259 2228 
L 1259 0 
L 628 0 
L 628 4666 
z
" transform="scale(0.015625)"/>
       <path id="DejaVuSans-65" d="M 3597 1894 
L 3597 1613 
L 953 1613 
Q 991 1019 1311 708 
Q 1631 397 2203 397 
Q 2534 397 2845 478 
Q 3156 559 3463 722 
L 3463 178 
Q 3153 47 2828 -22 
Q 2503 -91 2169 -91 
Q 1331 -91 842 396 
Q 353 884 353 1716 
Q 353 2575 817 3079 
Q 1281 3584 2069 3584 
Q 2775 3584 3186 3129 
Q 3597 2675 3597 1894 
z
M 3022 2063 
Q 3016 2534 2758 2815 
Q 2500 3097 2075 3097 
Q 1594 3097 1305 2825 
Q 1016 2553 972 2059 
L 3022 2063 
z
" transform="scale(0.015625)"/>
       <path id="DejaVuSans-61" d="M 2194 1759 
Q 1497 1759 1228 1600 
Q 959 1441 959 1056 
Q 959 750 1161 570 
Q 1363 391 1709 391 
Q 2188 391 2477 730 
Q 2766 1069 2766 1631 
L 2766 1759 
L 2194 1759 
z
M 3341 1997 
L 3341 0 
L 2766 0 
L 2766 531 
Q 2569 213 2275 61 
Q 1981 -91 1556 -91 
Q 1019 -91 701 211 
Q 384 513 384 1019 
Q 384 1609 779 1909 
Q 1175 2209 1959 2209 
L 2766 2209 
L 2766 2266 
Q 2766 2663 2505 2880 
Q 2244 3097 1772 3097 
Q 1472 3097 1187 3025 
Q 903 2953 641 2809 
L 641 3341 
Q 956 3463 1253 3523 
Q 1550 3584 1831 3584 
Q 2591 3584 2966 3190 
Q 3341 2797 3341 1997 
z
" transform="scale(0.015625)"/>
       <path id="DejaVuSans-74" d="M 1172 4494 
L 1172 3500 
L 2356 3500 
L 2356 3053 
L 1172 3053 
L 1172 1153 
Q 1172 725 1289 603 
Q 1406 481 1766 481 
L 2356 481 
L 2356 0 
L 1766 0 
Q 1100 0 847 248 
Q 594 497 594 1153 
L 594 3053 
L 172 3053 
L 172 3500 
L 594 3500 
L 594 4494 
L 1172 4494 
z
" transform="scale(0.015625)"/>
       <path id="DejaVuSans-75" d="M 544 1381 
L 544 3500 
L 1119 3500 
L 1119 1403 
Q 1119 906 1312 657 
Q 1506 409 1894 409 
Q 2359 409 2629 706 
Q 2900 1003 2900 1516 
L 2900 3500 
L 3475 3500 
L 3475 0 
L 2900 0 
L 2900 538 
Q 2691 219 2414 64 
Q 2138 -91 1772 -91 
Q 1169 -91 856 284 
Q 544 659 544 1381 
z
M 1991 3584 
L 1991 3584 
z
" transform="scale(0.015625)"/>
       <path id="DejaVuSans-72" d="M 2631 2963 
Q 2534 3019 2420 3045 
Q 2306 3072 2169 3072 
Q 1681 3072 1420 2755 
Q 1159 2438 1159 1844 
L 1159 0 
L 581 0 
L 581 3500 
L 1159 3500 
L 1159 2956 
Q 1341 3275 1631 3429 
Q 1922 3584 2338 3584 
Q 2397 3584 2469 3576 
Q 2541 3569 2628 3553 
L 2631 2963 
z
" transform="scale(0.015625)"/>
       <path id="DejaVuSans-20" transform="scale(0.015625)"/>
      </defs>
      <use xlink:href="#DejaVuSans-46"/>
      <use xlink:href="#DejaVuSans-65" x="52.019531"/>
      <use xlink:href="#DejaVuSans-61" x="113.542969"/>
      <use xlink:href="#DejaVuSans-74" x="174.822266"/>
      <use xlink:href="#DejaVuSans-75" x="214.03125"/>
      <use xlink:href="#DejaVuSans-72" x="277.410156"/>
      <use xlink:href="#DejaVuSans-65" x="316.273438"/>
      <use xlink:href="#DejaVuSans-20" x="377.796875"/>
      <use xlink:href="#DejaVuSans-31" x="409.583984"/>
     </g>
    </g>
   </g>
   <g id="matplotlib.axis_2">
    <g id="ytick_1">
     <g id="line2d_15">
      <path d="M 90 375.188982 
L 648 375.188982 
" clip-path="url(#p935e160985)" style="fill: none; stroke-dasharray: 2.22,0.96; stroke-dashoffset: 0; stroke: #b0b0b0; stroke-opacity: 0.7; stroke-width: 0.6"/>
     </g>
     <g id="line2d_16">
      <defs>
       <path id="mbca1d8ca24" d="M 0 0 
L 3.5 0 
" style="stroke: #1a1a1a; stroke-width: 0.8"/>
      </defs>
      <g>
       <use xlink:href="#mbca1d8ca24" x="90" y="375.188982" style="fill: #1a1a1a; stroke: #1a1a1a; stroke-width: 0.8"/>
      </g>
     </g>
     <g id="text_9">
      <!-- 0.75 -->
      <g style="fill: #1a1a1a" transform="translate(49.725625 379.748045) scale(0.12 -0.12)">
       <defs>
        <path id="DejaVuSans-37" d="M 525 4666 
L 3525 4666 
L 3525 4397 
L 1831 0 
L 1172 0 
L 2766 4134 
L 525 4134 
L 525 4666 
z
" transform="scale(0.015625)"/>
       </defs>
       <use xlink:href="#DejaVuSans-2212"/>
       <use xlink:href="#DejaVuSans-30" x="83.789062"/>
       <use xlink:href="#DejaVuSans-2e" x="147.412109"/>
       <use xlink:href="#DejaVuSans-37" x="179.199219"/>
       <use xlink:href="#DejaVuSans-35" x="242.822266"/>
      </g>
     </g>
    </g>
    <g id="ytick_2">
     <g id="line2d_17">
      <path d="M 90 336.176058 
L 648 336.176058 
" clip-path="url(#p935e160985)" style="fill: none; stroke-dasharray: 2.22,0.96; stroke-dashoffset: 0; stroke: #b0b0b0; stroke-opacity: 0.7; stroke-width: 0.6"/>
     </g>
     <g id="line2d_18">
      <g>
       <use xlink:href="#mbca1d8ca24" x="90" y="336.176058" style="fill: #1a1a1a; stroke: #1a1a1a; stroke-width: 0.8"/>
      </g>
     </g>
     <g id="text_10">
      <!-- 0.50 -->
      <g style="fill: #1a1a1a" transform="translate(49.725625 340.735121) scale(0.12 -0.12)">
       <use xlink:href="#DejaVuSans-2212"/>
       <use xlink:href="#DejaVuSans-30" x="83.789062"/>
       <use xlink:href="#DejaVuSans-2e" x="147.412109"/>
       <use xlink:href="#DejaVuSans-35" x="179.199219"/>
       <use xlink:href="#DejaVuSans-30" x="242.822266"/>
      </g>
     </g>
    </g>
    <g id="ytick_3">
     <g id="line2d_19">
      <path d="M 90 297.163134 
L 648 297.163134 
" clip-path="url(#p935e160985)" style="fill: none; stroke-dasharray: 2.22,0.96; stroke-dashoffset: 0; stroke: #b0b0b0; stroke-opacity: 0.7; stroke-width: 0.6"/>
     </g>
     <g id="line2d_20">
      <g>
       <use xlink:href="#mbca1d8ca24" x="90" y="297.163134" style="fill: #1a1a1a; stroke: #1a1a1a; stroke-width: 0.8"/>
      </g>
     </g>
     <g id="text_11">
      <!-- 0.25 -->
      <g style="fill: #1a1a1a" transform="translate(49.725625 301.722197) scale(0.12 -0.12)">
       <use xlink:href="#DejaVuSans-2212"/>
       <use xlink:href="#DejaVuSans-30" x="83.789062"/>
       <use xlink:href="#DejaVuSans-2e" x="147.412109"/>
       <use xlink:href="#DejaVuSans-32" x="179.199219"/>
       <use xlink:href="#DejaVuSans-35" x="242.822266"/>
      </g>
     </g>
    </g>
    <g id="ytick_4">
     <g id="line2d_21">
      <path d="M 90 258.15021 
L 648 258.15021 
" clip-path="url(#p935e160985)" style="fill: none; stroke-dasharray: 2.22,0.96; stroke-dashoffset: 0; stroke: #b0b0b0; stroke-opacity: 0.7; stroke-width: 0.6"/>
     </g>
     <g id="line2d_22">
      <g>
       <use xlink:href="#mbca1d8ca24" x="90" y="258.15021" style="fill: #1a1a1a; stroke: #1a1a1a; stroke-width: 0.8"/>
      </g>
     </g>
     <g id="text_12">
      <!-- 0.00 -->
      <g style="fill: #1a1a1a" transform="translate(59.78125 262.709273) scale(0.12 -0.12)">
       <use xlink:href="#DejaVuSans-30"/>
       <use xlink:href="#DejaVuSans-2e" x="63.623047"/>
       <use xlink:href="#DejaVuSans-30" x="95.410156"/>
       <use xlink:href="#DejaVuSans-30" x="159.033203"/>
      </g>
     </g>
    </g>
    <g id="ytick_5">
     <g id="line2d_23">
      <path d="M 90 219.137286 
L 648 219.137286 
" clip-path="url(#p935e160985)" style="fill: none; stroke-dasharray: 2.22,0.96; stroke-dashoffset: 0; stroke: #b0b0b0; stroke-opacity: 0.7; stroke-width: 0.6"/>
     </g>
     <g id="line2d_24">
      <g>
       <use xlink:href="#mbca1d8ca24" x="90" y="219.137286" style="fill: #1a1a1a; stroke: #1a1a1a; stroke-width: 0.8"/>
      </g>
     </g>
     <g id="text_13">
      <!-- 0.25 -->
      <g style="fill: #1a1a1a" transform="translate(59.78125 223.696349) scale(0.12 -0.12)">
       <use xlink:href="#DejaVuSans-30"/>
       <use xlink:href="#DejaVuSans-2e" x="63.623047"/>
       <use xlink:href="#DejaVuSans-32" x="95.410156"/>
       <use xlink:href="#DejaVuSans-35" x="159.033203"/>
      </g>
     </g>
    </g>
    <g id="ytick_6">
     <g id="line2d_25">
      <path d="M 90 180.124362 
L 648 180.124362 
" clip-path="url(#p935e160985)" style="fill: none; stroke-dasharray: 2.22,0.96; stroke-dashoffset: 0; stroke: #b0b0b0; stroke-opacity: 0.7; stroke-width: 0.6"/>
     </g>
     <g id="line2d_26">
      <g>
       <use xlink:href="#mbca1d8ca24" x="90" y="180.124362" style="fill: #1a1a1a; stroke: #1a1a1a; stroke-width: 0.8"/>
      </g>
     </g>
     <g id="text_14">
      <!-- 0.50 -->
      <g style="fill: #1a1a1a" transform="translate(59.78125 184.683425) scale(0.12 -0.12)">
       <use xlink:href="#DejaVuSans-30"/>
       <use xlink:href="#DejaVuSans-2e" x="63.623047"/>
       <use xlink:href="#DejaVuSans-35" x="95.410156"/>
       <use xlink:href="#DejaVuSans-30" x="159.033203"/>
      </g>
     </g>
    </g>
    <g id="ytick_7">
     <g id="line2d_27">
      <path d="M 90 141.111438 
L 648 141.111438 
" clip-path="url(#p935e160985)" style="fill: none; stroke-dasharray: 2.22,0.96; stroke-dashoffset: 0; stroke: #b0b0b0; stroke-opacity: 0.7; stroke-width: 0.6"/>
     </g>
     <g id="line2d_28">
      <g>
       <use xlink:href="#mbca1d8ca24" x="90" y="141.111438" style="fill: #1a1a1a; stroke: #1a1a1a; stroke-width: 0.8"/>
      </g>
     </g>
     <g id="text_15">
      <!-- 0.75 -->
      <g style="fill: #1a1a1a" transform="translate(59.78125 145.6705) scale(0.12 -0.12)">
       <use xlink:href="#DejaVuSans-30"/>
       <use xlink:href="#DejaVuSans-2e" x="63.623047"/>
       <use xlink:href="#DejaVuSans-37" x="95.410156"/>
       <use xlink:href="#DejaVuSans-35" x="159.033203"/>
      </g>
     </g>
    </g>
    <g id="ytick_8">
     <g id="line2d_29">
      <path d="M 90 102.098514 
L 648 102.098514 
" clip-path="url(#p935e160985)" style="fill: none; stroke-dasharray: 2.22,0.96; stroke-dashoffset: 0; stroke: #b0b0b0; stroke-opacity: 0.7; stroke-width: 0.6"/>
     </g>
     <g id="line2d_30">
      <g>
       <use xlink:href="#mbca1d8ca24" x="90" y="102.098514" style="fill: #1a1a1a; stroke: #1a1a1a; stroke-width: 0.8"/>
      </g>
     </g>
     <g id="text_16">
      <!-- 1.00 -->
      <g style="fill: #1a1a1a" transform="translate(59.78125 106.657576) scale(0.12 -0.12)">
       <use xlink:href="#DejaVuSans-31"/>
       <use xlink:href="#DejaVuSans-2e" x="63.623047"/>
       <use xlink:href="#DejaVuSans-30" x="95.410156"/>
       <use xlink:href="#DejaVuSans-30" x="159.033203"/>
      </g>
     </g>
    </g>
    <g id="ytick_9">
     <g id="line2d_31">
      <path d="M 90 63.08559 
L 648 63.08559 
" clip-path="url(#p935e160985)" style="fill: none; stroke-dasharray: 2.22,0.96; stroke-dashoffset: 0; stroke: #b0b0b0; stroke-opacity: 0.7; stroke-width: 0.6"/>
     </g>
     <g id="line2d_32">
      <g>
       <use xlink:href="#mbca1d8ca24" x="90" y="63.08559" style="fill: #1a1a1a; stroke: #1a1a1a; stroke-width: 0.8"/>
      </g>
     </g>
     <g id="text_17">
      <!-- 1.25 -->
      <g style="fill: #1a1a1a" transform="translate(59.78125 67.644652) scale(0.12 -0.12)">
       <use xlink:href="#DejaVuSans-31"/>
       <use xlink:href="#DejaVuSans-2e" x="63.623047"/>
       <use xlink:href="#DejaVuSans-32" x="95.410156"/>
       <use xlink:href="#DejaVuSans-35" x="159.033203"/>
      </g>
     </g>
    </g>
    <g id="text_18">
     <!-- Feature 2 -->
     <g style="fill: #1a1a1a" transform="translate(43.23 246.552187) rotate(-90) scale(0.12 -0.12)">
      <use xlink:href="#DejaVuSans-46"/>
      <use xlink:href="#DejaVuSans-65" x="52.019531"/>
      <use xlink:href="#DejaVuSans-61" x="113.542969"/>
      <use xlink:href="#DejaVuSans-74" x="174.822266"/>
      <use xlink:href="#DejaVuSans-75" x="214.03125"/>
      <use xlink:href="#DejaVuSans-72" x="277.410156"/>
      <use xlink:href="#DejaVuSans-65" x="316.273438"/>
      <use xlink:href="#DejaVuSans-20" x="377.796875"/>
      <use xlink:href="#DejaVuSans-32" x="409.583984"/>
     </g>
    </g>
   </g>
   <g id="patch_3">
    <path d="M 90 384.48 
L 90 51.84 
" style="fill: none; stroke: #1a1a1a; stroke-linejoin: miter; stroke-linecap: square"/>
   </g>
   <g id="patch_4">
    <path d="M 90 384.48 
L 648 384.48 
" style="fill: none; stroke: #1a1a1a; stroke-linejoin: miter; stroke-linecap: square"/>
   </g>
   <g id="text_19">
    <!-- K-Means Clustering on Non-Convex Data (K-Means Limitations) -->
    <g style="fill: #333333" transform="translate(118.29125 45.84) scale(0.16 -0.16)">
     <defs>
      <path id="DejaVuSans-4b" d="M 628 4666 
L 1259 4666 
L 1259 2694 
L 3353 4666 
L 4166 4666 
L 1850 2491 
L 4331 0 
L 3500 0 
L 1259 2247 
L 1259 0 
L 628 0 
L 628 4666 
z
" transform="scale(0.015625)"/>
      <path id="DejaVuSans-2d" d="M 313 2009 
L 1997 2009 
L 1997 1497 
L 313 1497 
L 313 2009 
z
" transform="scale(0.015625)"/>
      <path id="DejaVuSans-4d" d="M 628 4666 
L 1569 4666 
L 2759 1491 
L 3956 4666 
L 4897 4666 
L 4897 0 
L 4281 0 
L 4281 4097 
L 3078 897 
L 2444 897 
L 1241 4097 
L 1241 0 
L 628 0 
L 628 4666 
z
" transform="scale(0.015625)"/>
      <path id="DejaVuSans-6e" d="M 3513 2113 
L 3513 0 
L 2938 0 
L 2938 2094 
Q 2938 2591 2744 2837 
Q 2550 3084 2163 3084 
Q 1697 3084 1428 2787 
Q 1159 2491 1159 1978 
L 1159 0 
L 581 0 
L 581 3500 
L 1159 3500 
L 1159 2956 
Q 1366 3272 1645 3428 
Q 1925 3584 2291 3584 
Q 2894 3584 3203 3211 
Q 3513 2838 3513 2113 
z
" transform="scale(0.015625)"/>
      <path id="DejaVuSans-73" d="M 2834 3397 
L 2834 2853 
Q 2591 2978 2328 3040 
Q 2066 3103 1784 3103 
Q 1356 3103 1142 2972 
Q 928 2841 928 2578 
Q 928 2378 1081 2264 
Q 1234 2150 1697 2047 
L 1894 2003 
Q 2506 1872 2764 1633 
Q 3022 1394 3022 966 
Q 3022 478 2636 193 
Q 2250 -91 1575 -91 
Q 1294 -91 989 -36 
Q 684 19 347 128 
L 347 722 
Q 666 556 975 473 
Q 1284 391 1588 391 
Q 1994 391 2212 530 
Q 2431 669 2431 922 
Q 2431 1156 2273 1281 
Q 2116 1406 1581 1522 
L 1381 1569 
Q 847 1681 609 1914 
Q 372 2147 372 2553 
Q 372 3047 722 3315 
Q 1072 3584 1716 3584 
Q 2034 3584 2315 3537 
Q 2597 3491 2834 3397 
z
" transform="scale(0.015625)"/>
      <path id="DejaVuSans-43" d="M 4122 4306 
L 4122 3641 
Q 3803 3938 3442 4084 
Q 3081 4231 2675 4231 
Q 1875 4231 1450 3742 
Q 1025 3253 1025 2328 
Q 1025 1406 1450 917 
Q 1875 428 2675 428 
Q 3081 428 3442 575 
Q 3803 722 4122 1019 
L 4122 359 
Q 3791 134 3420 21 
Q 3050 -91 2638 -91 
Q 1578 -91 968 557 
Q 359 1206 359 2328 
Q 359 3453 968 4101 
Q 1578 4750 2638 4750 
Q 3056 4750 3426 4639 
Q 3797 4528 4122 4306 
z
" transform="scale(0.015625)"/>
      <path id="DejaVuSans-6c" d="M 603 4863 
L 1178 4863 
L 1178 0 
L 603 0 
L 603 4863 
z
" transform="scale(0.015625)"/>
      <path id="DejaVuSans-69" d="M 603 3500 
L 1178 3500 
L 1178 0 
L 603 0 
L 603 3500 
z
M 603 4863 
L 1178 4863 
L 1178 4134 
L 603 4134 
L 603 4863 
z
" transform="scale(0.015625)"/>
      <path id="DejaVuSans-67" d="M 2906 1791 
Q 2906 2416 2648 2759 
Q 2391 3103 1925 3103 
Q 1463 3103 1205 2759 
Q 947 2416 947 1791 
Q 947 1169 1205 825 
Q 1463 481 1925 481 
Q 2391 481 2648 825 
Q 2906 1169 2906 1791 
z
M 3481 434 
Q 3481 -459 3084 -895 
Q 2688 -1331 1869 -1331 
Q 1566 -1331 1297 -1286 
Q 1028 -1241 775 -1147 
L 775 -588 
Q 1028 -725 1275 -790 
Q 1522 -856 1778 -856 
Q 2344 -856 2625 -561 
Q 2906 -266 2906 331 
L 2906 616 
Q 2728 306 2450 153 
Q 2172 0 1784 0 
Q 1141 0 747 490 
Q 353 981 353 1791 
Q 353 2603 747 3093 
Q 1141 3584 1784 3584 
Q 2172 3584 2450 3431 
Q 2728 3278 2906 2969 
L 2906 3500 
L 3481 3500 
L 3481 434 
z
" transform="scale(0.015625)"/>
      <path id="DejaVuSans-6f" d="M 1959 3097 
Q 1497 3097 1228 2736 
Q 959 2375 959 1747 
Q 959 1119 1226 758 
Q 1494 397 1959 397 
Q 2419 397 2687 759 
Q 2956 1122 2956 1747 
Q 2956 2369 2687 2733 
Q 2419 3097 1959 3097 
z
M 1959 3584 
Q 2709 3584 3137 3096 
Q 3566 2609 3566 1747 
Q 3566 888 3137 398 
Q 2709 -91 1959 -91 
Q 1206 -91 779 398 
Q 353 888 353 1747 
Q 353 2609 779 3096 
Q 1206 3584 1959 3584 
z
" transform="scale(0.015625)"/>
      <path id="DejaVuSans-4e" d="M 628 4666 
L 1478 4666 
L 3547 763 
L 3547 4666 
L 4159 4666 
L 4159 0 
L 3309 0 
L 1241 3903 
L 1241 0 
L 628 0 
L 628 4666 
z
" transform="scale(0.015625)"/>
      <path id="DejaVuSans-76" d="M 191 3500 
L 800 3500 
L 1894 563 
L 2988 3500 
L 3597 3500 
L 2284 0 
L 1503 0 
L 191 3500 
z
" transform="scale(0.015625)"/>
      <path id="DejaVuSans-78" d="M 3513 3500 
L 2247 1797 
L 3578 0 
L 2900 0 
L 1881 1375 
L 863 0 
L 184 0 
L 1544 1831 
L 300 3500 
L 978 3500 
L 1906 2253 
L 2834 3500 
L 3513 3500 
z
" transform="scale(0.015625)"/>
      <path id="DejaVuSans-44" d="M 1259 4147 
L 1259 519 
L 2022 519 
Q 2988 519 3436 956 
Q 3884 1394 3884 2338 
Q 3884 3275 3436 3711 
Q 2988 4147 2022 4147 
L 1259 4147 
z
M 628 4666 
L 1925 4666 
Q 3281 4666 3915 4102 
Q 4550 3538 4550 2338 
Q 4550 1131 3912 565 
Q 3275 0 1925 0 
L 628 0 
L 628 4666 
z
" transform="scale(0.015625)"/>
      <path id="DejaVuSans-28" d="M 1984 4856 
Q 1566 4138 1362 3434 
Q 1159 2731 1159 2009 
Q 1159 1288 1364 580 
Q 1569 -128 1984 -844 
L 1484 -844 
Q 1016 -109 783 600 
Q 550 1309 550 2009 
Q 550 2706 781 3412 
Q 1013 4119 1484 4856 
L 1984 4856 
z
" transform="scale(0.015625)"/>
      <path id="DejaVuSans-4c" d="M 628 4666 
L 1259 4666 
L 1259 531 
L 3531 531 
L 3531 0 
L 628 0 
L 628 4666 
z
" transform="scale(0.015625)"/>
      <path id="DejaVuSans-6d" d="M 3328 2828 
Q 3544 3216 3844 3400 
Q 4144 3584 4550 3584 
Q 5097 3584 5394 3201 
Q 5691 2819 5691 2113 
L 5691 0 
L 5113 0 
L 5113 2094 
Q 5113 2597 4934 2840 
Q 4756 3084 4391 3084 
Q 3944 3084 3684 2787 
Q 3425 2491 3425 1978 
L 3425 0 
L 2847 0 
L 2847 2094 
Q 2847 2600 2669 2842 
Q 2491 3084 2119 3084 
Q 1678 3084 1418 2786 
Q 1159 2488 1159 1978 
L 1159 0 
L 581 0 
L 581 3500 
L 1159 3500 
L 1159 2956 
Q 1356 3278 1631 3431 
Q 1906 3584 2284 3584 
Q 2666 3584 2933 3390 
Q 3200 3197 3328 2828 
z
" transform="scale(0.015625)"/>
      <path id="DejaVuSans-29" d="M 513 4856 
L 1013 4856 
Q 1481 4119 1714 3412 
Q 1947 2706 1947 2009 
Q 1947 1309 1714 600 
Q 1481 -109 1013 -844 
L 513 -844 
Q 928 -128 1133 580 
Q 1338 1288 1338 2009 
Q 1338 2731 1133 3434 
Q 928 4138 513 4856 
z
" transform="scale(0.015625)"/>
     </defs>
     <use xlink:href="#DejaVuSans-4b"/>
     <use xlink:href="#DejaVuSans-2d" x="55.076172"/>
     <use xlink:href="#DejaVuSans-4d" x="91.160156"/>
     <use xlink:href="#DejaVuSans-65" x="177.439453"/>
     <use xlink:href="#DejaVuSans-61" x="238.962891"/>
     <use xlink:href="#DejaVuSans-6e" x="300.242188"/>
     <use xlink:href="#DejaVuSans-73" x="363.621094"/>
     <use xlink:href="#DejaVuSans-20" x="415.720703"/>
     <use xlink:href="#DejaVuSans-43" x="447.507812"/>
     <use xlink:href="#DejaVuSans-6c" x="517.332031"/>
     <use xlink:href="#DejaVuSans-75" x="545.115234"/>
     <use xlink:href="#DejaVuSans-73" x="608.494141"/>
     <use xlink:href="#DejaVuSans-74" x="660.59375"/>
     <use xlink:href="#DejaVuSans-65" x="699.802734"/>
     <use xlink:href="#DejaVuSans-72" x="761.326172"/>
     <use xlink:href="#DejaVuSans-69" x="802.439453"/>
     <use xlink:href="#DejaVuSans-6e" x="830.222656"/>
     <use xlink:href="#DejaVuSans-67" x="893.601562"/>
     <use xlink:href="#DejaVuSans-20" x="957.078125"/>
     <use xlink:href="#DejaVuSans-6f" x="988.865234"/>
     <use xlink:href="#DejaVuSans-6e" x="1050.046875"/>
     <use xlink:href="#DejaVuSans-20" x="1113.425781"/>
     <use xlink:href="#DejaVuSans-4e" x="1145.212891"/>
     <use xlink:href="#DejaVuSans-6f" x="1220.017578"/>
     <use xlink:href="#DejaVuSans-6e" x="1281.199219"/>
     <use xlink:href="#DejaVuSans-2d" x="1344.578125"/>
     <use xlink:href="#DejaVuSans-43" x="1380.662109"/>
     <use xlink:href="#DejaVuSans-6f" x="1450.486328"/>
     <use xlink:href="#DejaVuSans-6e" x="1511.667969"/>
     <use xlink:href="#DejaVuSans-76" x="1575.046875"/>
     <use xlink:href="#DejaVuSans-65" x="1634.226562"/>
     <use xlink:href="#DejaVuSans-78" x="1694"/>
     <use xlink:href="#DejaVuSans-20" x="1753.179688"/>
     <use xlink:href="#DejaVuSans-44" x="1784.966797"/>
     <use xlink:href="#DejaVuSans-61" x="1861.96875"/>
     <use xlink:href="#DejaVuSans-74" x="1923.248047"/>
     <use xlink:href="#DejaVuSans-61" x="1962.457031"/>
     <use xlink:href="#DejaVuSans-20" x="2023.736328"/>
     <use xlink:href="#DejaVuSans-28" x="2055.523438"/>
     <use xlink:href="#DejaVuSans-4b" x="2094.537109"/>
     <use xlink:href="#DejaVuSans-2d" x="2149.613281"/>
     <use xlink:href="#DejaVuSans-4d" x="2185.697266"/>
     <use xlink:href="#DejaVuSans-65" x="2271.976562"/>
     <use xlink:href="#DejaVuSans-61" x="2333.5"/>
     <use xlink:href="#DejaVuSans-6e" x="2394.779297"/>
     <use xlink:href="#DejaVuSans-73" x="2458.158203"/>
     <use xlink:href="#DejaVuSans-20" x="2510.257812"/>
     <use xlink:href="#DejaVuSans-4c" x="2542.044922"/>
     <use xlink:href="#DejaVuSans-69" x="2597.757812"/>
     <use xlink:href="#DejaVuSans-6d" x="2625.541016"/>
     <use xlink:href="#DejaVuSans-69" x="2722.953125"/>
     <use xlink:href="#DejaVuSans-74" x="2750.736328"/>
     <use xlink:href="#DejaVuSans-61" x="2789.945312"/>
     <use xlink:href="#DejaVuSans-74" x="2851.224609"/>
     <use xlink:href="#DejaVuSans-69" x="2890.433594"/>
     <use xlink:href="#DejaVuSans-6f" x="2918.216797"/>
     <use xlink:href="#DejaVuSans-6e" x="2979.398438"/>
     <use xlink:href="#DejaVuSans-73" x="3042.777344"/>
     <use xlink:href="#DejaVuSans-29" x="3094.876953"/>
    </g>
   </g>
  </g>
 </g>
 <defs>
  <clipPath id="p935e160985">
   <rect x="90" y="51.84" width="558" height="332.64"/>
  </clipPath>
 </defs>
</svg>
