<?xml version="1.0" encoding="utf-8" standalone="no"?>
<!DOCTYPE svg PUBLIC "-//W3C//DTD SVG 1.1//EN"
  "http://www.w3.org/Graphics/SVG/1.1/DTD/svg11.dtd">
<svg xmlns:xlink="http://www.w3.org/1999/xlink" width="576pt" height="432pt" viewBox="0 0 576 432" xmlns="http://www.w3.org/2000/svg" version="1.1">
 <metadata>
  <rdf:RDF xmlns:dc="http://purl.org/dc/elements/1.1/" xmlns:cc="http://creativecommons.org/ns#" xmlns:rdf="http://www.w3.org/1999/02/22-rdf-syntax-ns#">
   <cc:Work>
    <dc:type rdf:resource="http://purl.org/dc/dcmitype/StillImage"/>
    <dc:date>2025-03-19T19:06:36.679583</dc:date>
    <dc:format>image/svg+xml</dc:format>
    <dc:creator>
     <cc:Agent>
      <dc:title>Matplotlib v3.6.3, https://matplotlib.org/</dc:title>
     </cc:Agent>
    </dc:creator>
   </cc:Work>
  </rdf:RDF>
 </metadata>
 <defs>
  <style type="text/css">*{stroke-linejoin: round; stroke-linecap: butt}</style>
 </defs>
 <g id="figure_1">
  <g id="patch_1">
   <path d="M 0 432 
L 576 432 
L 576 0 
L 0 0 
z
" style="fill: #ffffff"/>
  </g>
  <g id="axes_1">
   <g id="patch_2">
    <path d="M 72 384.48 
L 518.4 384.48 
L 518.4 51.84 
L 72 51.84 
z
" style="fill: #ffffff"/>
   </g>
   <g id="PathCollection_1">
    <path d="M 76.509091 384.48 
L 81.018182 384.48 
L 85.527273 384.48 
L 90.036364 384.48 
L 94.545455 384.48 
L 99.054545 384.48 
L 103.563636 384.48 
L 108.072727 384.48 
L 112.581818 384.48 
L 117.090909 384.48 
L 121.6 384.48 
L 126.109091 384.48 
L 130.618182 384.48 
L 135.127273 384.48 
L 139.636364 384.48 
L 144.145455 384.48 
L 148.654545 384.48 
L 153.163636 384.48 
L 157.672727 384.48 
L 162.181818 384.48 
L 166.690909 384.48 
L 171.2 384.48 
L 175.709091 384.48 
L 180.218182 384.48 
L 184.727273 384.48 
L 189.236364 384.48 
L 193.745455 384.48 
L 198.254545 384.48 
L 202.763636 384.48 
L 207.272727 384.48 
L 211.781818 384.48 
L 216.290909 384.48 
L 220.8 384.48 
L 221.476364 384.48 
L 225.309091 381.624 
L 225.985455 381.12 
L 225.985455 377.76 
L 225.985455 374.4 
L 229.818182 371.544 
L 230.494545 371.04 
L 230.494545 367.68 
L 230.494545 364.32 
L 234.327273 361.464 
L 235.003636 360.96 
L 235.003636 357.6 
L 235.003636 354.24 
L 235.003636 350.88 
L 238.836364 348.024 
L 239.512727 347.52 
L 239.512727 344.16 
L 239.512727 340.8 
L 243.345455 337.944 
L 244.021818 337.44 
L 244.021818 334.08 
L 244.021818 330.72 
L 247.854545 327.864 
L 248.530909 327.36 
L 248.530909 324 
L 248.530909 320.64 
L 248.530909 317.28 
L 252.363636 314.424 
L 253.04 313.92 
L 253.04 310.56 
L 253.04 307.2 
L 256.872727 304.344 
L 257.549091 303.84 
L 257.549091 300.48 
L 257.549091 297.12 
L 257.549091 293.76 
L 261.381818 290.904 
L 262.058182 290.4 
L 262.058182 287.04 
L 262.058182 283.68 
L 265.890909 280.824 
L 266.567273 280.32 
L 266.567273 276.96 
L 266.567273 273.6 
L 270.4 270.744 
L 271.076364 270.24 
L 271.076364 266.88 
L 271.076364 263.52 
L 271.076364 260.16 
L 274.909091 257.304 
L 275.585455 256.8 
L 275.585455 253.44 
L 275.585455 250.08 
L 279.418182 247.224 
L 280.094545 246.72 
L 280.094545 243.36 
L 280.094545 240 
L 283.927273 237.144 
L 284.603636 236.64 
L 284.603636 233.28 
L 284.603636 229.92 
L 284.603636 226.56 
L 288.436364 223.704 
L 289.112727 223.2 
L 289.112727 219.84 
L 289.112727 216.48 
L 292.945455 213.624 
L 293.621818 213.12 
L 293.621818 209.76 
L 293.621818 206.4 
L 293.621818 203.04 
L 297.454545 200.184 
L 298.130909 199.68 
L 298.130909 196.32 
L 298.130909 192.96 
L 301.963636 190.104 
L 302.64 189.6 
L 302.64 186.24 
L 302.64 182.88 
L 306.472727 180.024 
L 307.149091 179.52 
L 307.149091 176.16 
L 307.149091 172.8 
L 307.149091 169.44 
L 310.981818 166.584 
L 311.658182 166.08 
L 311.658182 162.72 
L 311.658182 159.36 
L 315.490909 156.504 
L 316.167273 156 
L 316.167273 152.64 
L 316.167273 149.28 
L 320 146.424 
L 320.676364 145.92 
L 320.676364 142.56 
L 320.676364 139.2 
L 320.676364 135.84 
L 324.509091 132.984 
L 325.185455 132.48 
L 325.185455 129.12 
L 325.185455 125.76 
L 329.018182 122.904 
L 329.694545 122.4 
L 329.694545 119.04 
L 329.694545 115.68 
L 329.694545 112.32 
L 333.527273 109.464 
L 334.203636 108.96 
L 334.203636 105.6 
L 334.203636 102.24 
L 338.036364 99.384 
L 338.712727 98.88 
L 338.712727 95.52 
L 338.712727 92.16 
L 342.545455 89.304 
L 343.221818 88.8 
L 343.221818 85.44 
L 343.221818 82.08 
L 343.221818 78.72 
L 347.054545 75.864 
L 347.730909 75.36 
L 347.730909 72 
L 347.730909 68.64 
L 351.563636 65.784 
L 352.24 65.28 
L 352.24 61.92 
L 352.24 58.56 
L 356.072727 55.704 
L 356.749091 55.2 
L 356.749091 51.84 
L 356.072727 51.84 
L 351.563636 51.84 
L 347.054545 51.84 
L 342.545455 51.84 
L 338.036364 51.84 
L 333.527273 51.84 
L 329.018182 51.84 
L 324.509091 51.84 
L 320 51.84 
L 315.490909 51.84 
L 310.981818 51.84 
L 306.472727 51.84 
L 301.963636 51.84 
L 297.454545 51.84 
L 292.945455 51.84 
L 288.436364 51.84 
L 283.927273 51.84 
L 279.418182 51.84 
L 274.909091 51.84 
L 270.4 51.84 
L 265.890909 51.84 
L 261.381818 51.84 
L 256.872727 51.84 
L 252.363636 51.84 
L 247.854545 51.84 
L 243.345455 51.84 
L 238.836364 51.84 
L 234.327273 51.84 
L 229.818182 51.84 
L 225.309091 51.84 
L 220.8 51.84 
L 216.290909 51.84 
L 211.781818 51.84 
L 207.272727 51.84 
L 202.763636 51.84 
L 198.254545 51.84 
L 193.745455 51.84 
L 189.236364 51.84 
L 184.727273 51.84 
L 180.218182 51.84 
L 175.709091 51.84 
L 171.2 51.84 
L 166.690909 51.84 
L 162.181818 51.84 
L 157.672727 51.84 
L 153.163636 51.84 
L 148.654545 51.84 
L 144.145455 51.84 
L 139.636364 51.84 
L 135.127273 51.84 
L 130.618182 51.84 
L 126.109091 51.84 
L 121.6 51.84 
L 117.090909 51.84 
L 112.581818 51.84 
L 108.072727 51.84 
L 103.563636 51.84 
L 99.054545 51.84 
L 94.545455 51.84 
L 90.036364 51.84 
L 85.527273 51.84 
L 81.018182 51.84 
L 76.509091 51.84 
L 72 51.84 
L 72 55.2 
L 72 58.56 
L 72 61.92 
L 72 65.28 
L 72 68.64 
L 72 72 
L 72 75.36 
L 72 78.72 
L 72 82.08 
L 72 85.44 
L 72 88.8 
L 72 92.16 
L 72 95.52 
L 72 98.88 
L 72 102.24 
L 72 105.6 
L 72 108.96 
L 72 112.32 
L 72 115.68 
L 72 119.04 
L 72 122.4 
L 72 125.76 
L 72 129.12 
L 72 132.48 
L 72 135.84 
L 72 139.2 
L 72 142.56 
L 72 145.92 
L 72 149.28 
L 72 152.64 
L 72 156 
L 72 159.36 
L 72 162.72 
L 72 166.08 
L 72 169.44 
L 72 172.8 
L 72 176.16 
L 72 179.52 
L 72 182.88 
L 72 186.24 
L 72 189.6 
L 72 192.96 
L 72 196.32 
L 72 199.68 
L 72 203.04 
L 72 206.4 
L 72 209.76 
L 72 213.12 
L 72 216.48 
L 72 219.84 
L 72 223.2 
L 72 226.56 
L 72 229.92 
L 72 233.28 
L 72 236.64 
L 72 240 
L 72 243.36 
L 72 246.72 
L 72 250.08 
L 72 253.44 
L 72 256.8 
L 72 260.16 
L 72 263.52 
L 72 266.88 
L 72 270.24 
L 72 273.6 
L 72 276.96 
L 72 280.32 
L 72 283.68 
L 72 287.04 
L 72 290.4 
L 72 293.76 
L 72 297.12 
L 72 300.48 
L 72 303.84 
L 72 307.2 
L 72 310.56 
L 72 313.92 
L 72 317.28 
L 72 320.64 
L 72 324 
L 72 327.36 
L 72 330.72 
L 72 334.08 
L 72 337.44 
L 72 340.8 
L 72 344.16 
L 72 347.52 
L 72 350.88 
L 72 354.24 
L 72 357.6 
L 72 360.96 
L 72 364.32 
L 72 367.68 
L 72 371.04 
L 72 374.4 
L 72 377.76 
L 72 381.12 
L 72 384.48 
z
" clip-path="url(#p16cfd1accd)" style="fill: #481b6d; fill-opacity: 0.3"/>
   </g>
   <g id="PathCollection_2">
    <path d="M 225.309091 382.128 
L 226.661818 381.12 
L 226.661818 377.76 
L 226.661818 374.4 
L 229.818182 372.048 
L 231.170909 371.04 
L 231.170909 367.68 
L 231.170909 364.32 
L 234.327273 361.968 
L 235.68 360.96 
L 235.68 357.6 
L 235.68 354.24 
L 235.68 350.88 
L 238.836364 348.528 
L 240.189091 347.52 
L 240.189091 344.16 
L 240.189091 340.8 
L 243.345455 338.448 
L 244.698182 337.44 
L 244.698182 334.08 
L 244.698182 330.72 
L 247.854545 328.368 
L 249.207273 327.36 
L 249.207273 324 
L 249.207273 320.64 
L 249.207273 317.28 
L 252.363636 314.928 
L 253.716364 313.92 
L 253.716364 310.56 
L 253.716364 307.2 
L 256.872727 304.848 
L 258.225455 303.84 
L 258.225455 300.48 
L 258.225455 297.12 
L 258.225455 293.76 
L 261.381818 291.408 
L 262.734545 290.4 
L 262.734545 287.04 
L 262.734545 283.68 
L 265.890909 281.328 
L 267.243636 280.32 
L 267.243636 276.96 
L 267.243636 273.6 
L 270.4 271.248 
L 271.752727 270.24 
L 271.752727 266.88 
L 271.752727 263.52 
L 271.752727 260.16 
L 274.909091 257.808 
L 276.261818 256.8 
L 276.261818 253.44 
L 276.261818 250.08 
L 279.418182 247.728 
L 280.770909 246.72 
L 280.770909 243.36 
L 280.770909 240 
L 283.927273 237.648 
L 285.28 236.64 
L 285.28 233.28 
L 285.28 229.92 
L 285.28 226.56 
L 288.436364 224.208 
L 289.789091 223.2 
L 289.789091 219.84 
L 289.789091 216.48 
L 292.945455 214.128 
L 294.298182 213.12 
L 294.298182 209.76 
L 294.298182 206.4 
L 294.298182 203.04 
L 297.454545 200.688 
L 298.807273 199.68 
L 298.807273 196.32 
L 298.807273 192.96 
L 301.963636 190.608 
L 303.316364 189.6 
L 303.316364 186.24 
L 303.316364 182.88 
L 306.472727 180.528 
L 307.825455 179.52 
L 307.825455 176.16 
L 307.825455 172.8 
L 307.825455 169.44 
L 310.981818 167.088 
L 312.334545 166.08 
L 312.334545 162.72 
L 312.334545 159.36 
L 315.490909 157.008 
L 316.843636 156 
L 316.843636 152.64 
L 316.843636 149.28 
L 320 146.928 
L 321.352727 145.92 
L 321.352727 142.56 
L 321.352727 139.2 
L 321.352727 135.84 
L 324.509091 133.488 
L 325.861818 132.48 
L 325.861818 129.12 
L 325.861818 125.76 
L 329.018182 123.408 
L 330.370909 122.4 
L 330.370909 119.04 
L 330.370909 115.68 
L 330.370909 112.32 
L 333.527273 109.968 
L 334.88 108.96 
L 334.88 105.6 
L 334.88 102.24 
L 338.036364 99.888 
L 339.389091 98.88 
L 339.389091 95.52 
L 339.389091 92.16 
L 342.545455 89.808 
L 343.898182 88.8 
L 343.898182 85.44 
L 343.898182 82.08 
L 343.898182 78.72 
L 347.054545 76.368 
L 348.407273 75.36 
L 348.407273 72 
L 348.407273 68.64 
L 351.563636 66.288 
L 352.916364 65.28 
L 352.916364 61.92 
L 352.916364 58.56 
L 356.072727 56.208 
L 357.425455 55.2 
L 357.425455 51.84 
L 356.749091 51.84 
L 356.749091 55.2 
L 356.072727 55.704 
L 352.24 58.56 
L 352.24 61.92 
L 352.24 65.28 
L 351.563636 65.784 
L 347.730909 68.64 
L 347.730909 72 
L 347.730909 75.36 
L 347.054545 75.864 
L 343.221818 78.72 
L 343.221818 82.08 
L 343.221818 85.44 
L 343.221818 88.8 
L 342.545455 89.304 
L 338.712727 92.16 
L 338.712727 95.52 
L 338.712727 98.88 
L 338.036364 99.384 
L 334.203636 102.24 
L 334.203636 105.6 
L 334.203636 108.96 
L 333.527273 109.464 
L 329.694545 112.32 
L 329.694545 115.68 
L 329.694545 119.04 
L 329.694545 122.4 
L 329.018182 122.904 
L 325.185455 125.76 
L 325.185455 129.12 
L 325.185455 132.48 
L 324.509091 132.984 
L 320.676364 135.84 
L 320.676364 139.2 
L 320.676364 142.56 
L 320.676364 145.92 
L 320 146.424 
L 316.167273 149.28 
L 316.167273 152.64 
L 316.167273 156 
L 315.490909 156.504 
L 311.658182 159.36 
L 311.658182 162.72 
L 311.658182 166.08 
L 310.981818 166.584 
L 307.149091 169.44 
L 307.149091 172.8 
L 307.149091 176.16 
L 307.149091 179.52 
L 306.472727 180.024 
L 302.64 182.88 
L 302.64 186.24 
L 302.64 189.6 
L 301.963636 190.104 
L 298.130909 192.96 
L 298.130909 196.32 
L 298.130909 199.68 
L 297.454545 200.184 
L 293.621818 203.04 
L 293.621818 206.4 
L 293.621818 209.76 
L 293.621818 213.12 
L 292.945455 213.624 
L 289.112727 216.48 
L 289.112727 219.84 
L 289.112727 223.2 
L 288.436364 223.704 
L 284.603636 226.56 
L 284.603636 229.92 
L 284.603636 233.28 
L 284.603636 236.64 
L 283.927273 237.144 
L 280.094545 240 
L 280.094545 243.36 
L 280.094545 246.72 
L 279.418182 247.224 
L 275.585455 250.08 
L 275.585455 253.44 
L 275.585455 256.8 
L 274.909091 257.304 
L 271.076364 260.16 
L 271.076364 263.52 
L 271.076364 266.88 
L 271.076364 270.24 
L 270.4 270.744 
L 266.567273 273.6 
L 266.567273 276.96 
L 266.567273 280.32 
L 265.890909 280.824 
L 262.058182 283.68 
L 262.058182 287.04 
L 262.058182 290.4 
L 261.381818 290.904 
L 257.549091 293.76 
L 257.549091 297.12 
L 257.549091 300.48 
L 257.549091 303.84 
L 256.872727 304.344 
L 253.04 307.2 
L 253.04 310.56 
L 253.04 313.92 
L 252.363636 314.424 
L 248.530909 317.28 
L 248.530909 320.64 
L 248.530909 324 
L 248.530909 327.36 
L 247.854545 327.864 
L 244.021818 330.72 
L 244.021818 334.08 
L 244.021818 337.44 
L 243.345455 337.944 
L 239.512727 340.8 
L 239.512727 344.16 
L 239.512727 347.52 
L 238.836364 348.024 
L 235.003636 350.88 
L 235.003636 354.24 
L 235.003636 357.6 
L 235.003636 360.96 
L 234.327273 361.464 
L 230.494545 364.32 
L 230.494545 367.68 
L 230.494545 371.04 
L 229.818182 371.544 
L 225.985455 374.4 
L 225.985455 377.76 
L 225.985455 381.12 
L 225.309091 381.624 
L 221.476364 384.48 
L 222.152727 384.48 
z
" clip-path="url(#p16cfd1accd)" style="fill: #3f4788; fill-opacity: 0.3"/>
   </g>
   <g id="PathCollection_3">
    <path d="M 225.309091 382.632 
L 227.338182 381.12 
L 227.338182 377.76 
L 227.338182 374.4 
L 229.818182 372.552 
L 231.847273 371.04 
L 231.847273 367.68 
L 231.847273 364.32 
L 234.327273 362.472 
L 236.356364 360.96 
L 236.356364 357.6 
L 236.356364 354.24 
L 236.356364 350.88 
L 238.836364 349.032 
L 240.865455 347.52 
L 240.865455 344.16 
L 240.865455 340.8 
L 243.345455 338.952 
L 245.374545 337.44 
L 245.374545 334.08 
L 245.374545 330.72 
L 247.854545 328.872 
L 249.883636 327.36 
L 249.883636 324 
L 249.883636 320.64 
L 249.883636 317.28 
L 252.363636 315.432 
L 254.392727 313.92 
L 254.392727 310.56 
L 254.392727 307.2 
L 256.872727 305.352 
L 258.901818 303.84 
L 258.901818 300.48 
L 258.901818 297.12 
L 258.901818 293.76 
L 261.381818 291.912 
L 263.410909 290.4 
L 263.410909 287.04 
L 263.410909 283.68 
L 265.890909 281.832 
L 267.92 280.32 
L 267.92 276.96 
L 267.92 273.6 
L 270.4 271.752 
L 272.429091 270.24 
L 272.429091 266.88 
L 272.429091 263.52 
L 272.429091 260.16 
L 274.909091 258.312 
L 276.938182 256.8 
L 276.938182 253.44 
L 276.938182 250.08 
L 279.418182 248.232 
L 281.447273 246.72 
L 281.447273 243.36 
L 281.447273 240 
L 283.927273 238.152 
L 285.956364 236.64 
L 285.956364 233.28 
L 285.956364 229.92 
L 285.956364 226.56 
L 288.436364 224.712 
L 290.465455 223.2 
L 290.465455 219.84 
L 290.465455 216.48 
L 292.945455 214.632 
L 294.974545 213.12 
L 294.974545 209.76 
L 294.974545 206.4 
L 294.974545 203.04 
L 297.454545 201.192 
L 299.483636 199.68 
L 299.483636 196.32 
L 299.483636 192.96 
L 301.963636 191.112 
L 303.992727 189.6 
L 303.992727 186.24 
L 303.992727 182.88 
L 306.472727 181.032 
L 308.501818 179.52 
L 308.501818 176.16 
L 308.501818 172.8 
L 308.501818 169.44 
L 310.981818 167.592 
L 313.010909 166.08 
L 313.010909 162.72 
L 313.010909 159.36 
L 315.490909 157.512 
L 317.52 156 
L 317.52 152.64 
L 317.52 149.28 
L 320 147.432 
L 322.029091 145.92 
L 322.029091 142.56 
L 322.029091 139.2 
L 322.029091 135.84 
L 324.509091 133.992 
L 326.538182 132.48 
L 326.538182 129.12 
L 326.538182 125.76 
L 329.018182 123.912 
L 331.047273 122.4 
L 331.047273 119.04 
L 331.047273 115.68 
L 331.047273 112.32 
L 333.527273 110.472 
L 335.556364 108.96 
L 335.556364 105.6 
L 335.556364 102.24 
L 338.036364 100.392 
L 340.065455 98.88 
L 340.065455 95.52 
L 340.065455 92.16 
L 342.545455 90.312 
L 344.574545 88.8 
L 344.574545 85.44 
L 344.574545 82.08 
L 344.574545 78.72 
L 347.054545 76.872 
L 349.083636 75.36 
L 349.083636 72 
L 349.083636 68.64 
L 351.563636 66.792 
L 353.592727 65.28 
L 353.592727 61.92 
L 353.592727 58.56 
L 356.072727 56.712 
L 358.101818 55.2 
L 358.101818 51.84 
L 357.425455 51.84 
L 357.425455 55.2 
L 356.072727 56.208 
L 352.916364 58.56 
L 352.916364 61.92 
L 352.916364 65.28 
L 351.563636 66.288 
L 348.407273 68.64 
L 348.407273 72 
L 348.407273 75.36 
L 347.054545 76.368 
L 343.898182 78.72 
L 343.898182 82.08 
L 343.898182 85.44 
L 343.898182 88.8 
L 342.545455 89.808 
L 339.389091 92.16 
L 339.389091 95.52 
L 339.389091 98.88 
L 338.036364 99.888 
L 334.88 102.24 
L 334.88 105.6 
L 334.88 108.96 
L 333.527273 109.968 
L 330.370909 112.32 
L 330.370909 115.68 
L 330.370909 119.04 
L 330.370909 122.4 
L 329.018182 123.408 
L 325.861818 125.76 
L 325.861818 129.12 
L 325.861818 132.48 
L 324.509091 133.488 
L 321.352727 135.84 
L 321.352727 139.2 
L 321.352727 142.56 
L 321.352727 145.92 
L 320 146.928 
L 316.843636 149.28 
L 316.843636 152.64 
L 316.843636 156 
L 315.490909 157.008 
L 312.334545 159.36 
L 312.334545 162.72 
L 312.334545 166.08 
L 310.981818 167.088 
L 307.825455 169.44 
L 307.825455 172.8 
L 307.825455 176.16 
L 307.825455 179.52 
L 306.472727 180.528 
L 303.316364 182.88 
L 303.316364 186.24 
L 303.316364 189.6 
L 301.963636 190.608 
L 298.807273 192.96 
L 298.807273 196.32 
L 298.807273 199.68 
L 297.454545 200.688 
L 294.298182 203.04 
L 294.298182 206.4 
L 294.298182 209.76 
L 294.298182 213.12 
L 292.945455 214.128 
L 289.789091 216.48 
L 289.789091 219.84 
L 289.789091 223.2 
L 288.436364 224.208 
L 285.28 226.56 
L 285.28 229.92 
L 285.28 233.28 
L 285.28 236.64 
L 283.927273 237.648 
L 280.770909 240 
L 280.770909 243.36 
L 280.770909 246.72 
L 279.418182 247.728 
L 276.261818 250.08 
L 276.261818 253.44 
L 276.261818 256.8 
L 274.909091 257.808 
L 271.752727 260.16 
L 271.752727 263.52 
L 271.752727 266.88 
L 271.752727 270.24 
L 270.4 271.248 
L 267.243636 273.6 
L 267.243636 276.96 
L 267.243636 280.32 
L 265.890909 281.328 
L 262.734545 283.68 
L 262.734545 287.04 
L 262.734545 290.4 
L 261.381818 291.408 
L 258.225455 293.76 
L 258.225455 297.12 
L 258.225455 300.48 
L 258.225455 303.84 
L 256.872727 304.848 
L 253.716364 307.2 
L 253.716364 310.56 
L 253.716364 313.92 
L 252.363636 314.928 
L 249.207273 317.28 
L 249.207273 320.64 
L 249.207273 324 
L 249.207273 327.36 
L 247.854545 328.368 
L 244.698182 330.72 
L 244.698182 334.08 
L 244.698182 337.44 
L 243.345455 338.448 
L 240.189091 340.8 
L 240.189091 344.16 
L 240.189091 347.52 
L 238.836364 348.528 
L 235.68 350.88 
L 235.68 354.24 
L 235.68 357.6 
L 235.68 360.96 
L 234.327273 361.968 
L 231.170909 364.32 
L 231.170909 367.68 
L 231.170909 371.04 
L 229.818182 372.048 
L 226.661818 374.4 
L 226.661818 377.76 
L 226.661818 381.12 
L 225.309091 382.128 
L 222.152727 384.48 
L 222.829091 384.48 
z
" clip-path="url(#p16cfd1accd)" style="fill: #2e6e8e; fill-opacity: 0.3"/>
   </g>
   <g id="PathCollection_4">
    <path d="M 225.309091 383.136 
L 228.014545 381.12 
L 228.014545 377.76 
L 228.014545 374.4 
L 229.818182 373.056 
L 232.523636 371.04 
L 232.523636 367.68 
L 232.523636 364.32 
L 234.327273 362.976 
L 237.032727 360.96 
L 237.032727 357.6 
L 237.032727 354.24 
L 237.032727 350.88 
L 238.836364 349.536 
L 241.541818 347.52 
L 241.541818 344.16 
L 241.541818 340.8 
L 243.345455 339.456 
L 246.050909 337.44 
L 246.050909 334.08 
L 246.050909 330.72 
L 247.854545 329.376 
L 250.56 327.36 
L 250.56 324 
L 250.56 320.64 
L 250.56 317.28 
L 252.363636 315.936 
L 255.069091 313.92 
L 255.069091 310.56 
L 255.069091 307.2 
L 256.872727 305.856 
L 259.578182 303.84 
L 259.578182 300.48 
L 259.578182 297.12 
L 259.578182 293.76 
L 261.381818 292.416 
L 264.087273 290.4 
L 264.087273 287.04 
L 264.087273 283.68 
L 265.890909 282.336 
L 268.596364 280.32 
L 268.596364 276.96 
L 268.596364 273.6 
L 270.4 272.256 
L 273.105455 270.24 
L 273.105455 266.88 
L 273.105455 263.52 
L 273.105455 260.16 
L 274.909091 258.816 
L 277.614545 256.8 
L 277.614545 253.44 
L 277.614545 250.08 
L 279.418182 248.736 
L 282.123636 246.72 
L 282.123636 243.36 
L 282.123636 240 
L 283.927273 238.656 
L 286.632727 236.64 
L 286.632727 233.28 
L 286.632727 229.92 
L 286.632727 226.56 
L 288.436364 225.216 
L 291.141818 223.2 
L 291.141818 219.84 
L 291.141818 216.48 
L 292.945455 215.136 
L 295.650909 213.12 
L 295.650909 209.76 
L 295.650909 206.4 
L 295.650909 203.04 
L 297.454545 201.696 
L 300.16 199.68 
L 300.16 196.32 
L 300.16 192.96 
L 301.963636 191.616 
L 304.669091 189.6 
L 304.669091 186.24 
L 304.669091 182.88 
L 306.472727 181.536 
L 309.178182 179.52 
L 309.178182 176.16 
L 309.178182 172.8 
L 309.178182 169.44 
L 310.981818 168.096 
L 313.687273 166.08 
L 313.687273 162.72 
L 313.687273 159.36 
L 315.490909 158.016 
L 318.196364 156 
L 318.196364 152.64 
L 318.196364 149.28 
L 320 147.936 
L 322.705455 145.92 
L 322.705455 142.56 
L 322.705455 139.2 
L 322.705455 135.84 
L 324.509091 134.496 
L 327.214545 132.48 
L 327.214545 129.12 
L 327.214545 125.76 
L 329.018182 124.416 
L 331.723636 122.4 
L 331.723636 119.04 
L 331.723636 115.68 
L 331.723636 112.32 
L 333.527273 110.976 
L 336.232727 108.96 
L 336.232727 105.6 
L 336.232727 102.24 
L 338.036364 100.896 
L 340.741818 98.88 
L 340.741818 95.52 
L 340.741818 92.16 
L 342.545455 90.816 
L 345.250909 88.8 
L 345.250909 85.44 
L 345.250909 82.08 
L 345.250909 78.72 
L 347.054545 77.376 
L 349.76 75.36 
L 349.76 72 
L 349.76 68.64 
L 351.563636 67.296 
L 354.269091 65.28 
L 354.269091 61.92 
L 354.269091 58.56 
L 356.072727 57.216 
L 358.778182 55.2 
L 358.778182 51.84 
L 358.101818 51.84 
L 358.101818 55.2 
L 356.072727 56.712 
L 353.592727 58.56 
L 353.592727 61.92 
L 353.592727 65.28 
L 351.563636 66.792 
L 349.083636 68.64 
L 349.083636 72 
L 349.083636 75.36 
L 347.054545 76.872 
L 344.574545 78.72 
L 344.574545 82.08 
L 344.574545 85.44 
L 344.574545 88.8 
L 342.545455 90.312 
L 340.065455 92.16 
L 340.065455 95.52 
L 340.065455 98.88 
L 338.036364 100.392 
L 335.556364 102.24 
L 335.556364 105.6 
L 335.556364 108.96 
L 333.527273 110.472 
L 331.047273 112.32 
L 331.047273 115.68 
L 331.047273 119.04 
L 331.047273 122.4 
L 329.018182 123.912 
L 326.538182 125.76 
L 326.538182 129.12 
L 326.538182 132.48 
L 324.509091 133.992 
L 322.029091 135.84 
L 322.029091 139.2 
L 322.029091 142.56 
L 322.029091 145.92 
L 320 147.432 
L 317.52 149.28 
L 317.52 152.64 
L 317.52 156 
L 315.490909 157.512 
L 313.010909 159.36 
L 313.010909 162.72 
L 313.010909 166.08 
L 310.981818 167.592 
L 308.501818 169.44 
L 308.501818 172.8 
L 308.501818 176.16 
L 308.501818 179.52 
L 306.472727 181.032 
L 303.992727 182.88 
L 303.992727 186.24 
L 303.992727 189.6 
L 301.963636 191.112 
L 299.483636 192.96 
L 299.483636 196.32 
L 299.483636 199.68 
L 297.454545 201.192 
L 294.974545 203.04 
L 294.974545 206.4 
L 294.974545 209.76 
L 294.974545 213.12 
L 292.945455 214.632 
L 290.465455 216.48 
L 290.465455 219.84 
L 290.465455 223.2 
L 288.436364 224.712 
L 285.956364 226.56 
L 285.956364 229.92 
L 285.956364 233.28 
L 285.956364 236.64 
L 283.927273 238.152 
L 281.447273 240 
L 281.447273 243.36 
L 281.447273 246.72 
L 279.418182 248.232 
L 276.938182 250.08 
L 276.938182 253.44 
L 276.938182 256.8 
L 274.909091 258.312 
L 272.429091 260.16 
L 272.429091 263.52 
L 272.429091 266.88 
L 272.429091 270.24 
L 270.4 271.752 
L 267.92 273.6 
L 267.92 276.96 
L 267.92 280.32 
L 265.890909 281.832 
L 263.410909 283.68 
L 263.410909 287.04 
L 263.410909 290.4 
L 261.381818 291.912 
L 258.901818 293.76 
L 258.901818 297.12 
L 258.901818 300.48 
L 258.901818 303.84 
L 256.872727 305.352 
L 254.392727 307.2 
L 254.392727 310.56 
L 254.392727 313.92 
L 252.363636 315.432 
L 249.883636 317.28 
L 249.883636 320.64 
L 249.883636 324 
L 249.883636 327.36 
L 247.854545 328.872 
L 245.374545 330.72 
L 245.374545 334.08 
L 245.374545 337.44 
L 243.345455 338.952 
L 240.865455 340.8 
L 240.865455 344.16 
L 240.865455 347.52 
L 238.836364 349.032 
L 236.356364 350.88 
L 236.356364 354.24 
L 236.356364 357.6 
L 236.356364 360.96 
L 234.327273 362.472 
L 231.847273 364.32 
L 231.847273 367.68 
L 231.847273 371.04 
L 229.818182 372.552 
L 227.338182 374.4 
L 227.338182 377.76 
L 227.338182 381.12 
L 225.309091 382.632 
L 222.829091 384.48 
L 223.505455 384.48 
z
" clip-path="url(#p16cfd1accd)" style="fill: #21918c; fill-opacity: 0.3"/>
   </g>
   <g id="PathCollection_5">
    <path d="M 225.309091 383.64 
L 228.690909 381.12 
L 228.690909 377.76 
L 228.690909 374.4 
L 229.818182 373.56 
L 233.2 371.04 
L 233.2 367.68 
L 233.2 364.32 
L 234.327273 363.48 
L 237.709091 360.96 
L 237.709091 357.6 
L 237.709091 354.24 
L 237.709091 350.88 
L 238.836364 350.04 
L 242.218182 347.52 
L 242.218182 344.16 
L 242.218182 340.8 
L 243.345455 339.96 
L 246.727273 337.44 
L 246.727273 334.08 
L 246.727273 330.72 
L 247.854545 329.88 
L 251.236364 327.36 
L 251.236364 324 
L 251.236364 320.64 
L 251.236364 317.28 
L 252.363636 316.44 
L 255.745455 313.92 
L 255.745455 310.56 
L 255.745455 307.2 
L 256.872727 306.36 
L 260.254545 303.84 
L 260.254545 300.48 
L 260.254545 297.12 
L 260.254545 293.76 
L 261.381818 292.92 
L 264.763636 290.4 
L 264.763636 287.04 
L 264.763636 283.68 
L 265.890909 282.84 
L 269.272727 280.32 
L 269.272727 276.96 
L 269.272727 273.6 
L 270.4 272.76 
L 273.781818 270.24 
L 273.781818 266.88 
L 273.781818 263.52 
L 273.781818 260.16 
L 274.909091 259.32 
L 278.290909 256.8 
L 278.290909 253.44 
L 278.290909 250.08 
L 279.418182 249.24 
L 282.8 246.72 
L 282.8 243.36 
L 282.8 240 
L 283.927273 239.16 
L 287.309091 236.64 
L 287.309091 233.28 
L 287.309091 229.92 
L 287.309091 226.56 
L 288.436364 225.72 
L 291.818182 223.2 
L 291.818182 219.84 
L 291.818182 216.48 
L 292.945455 215.64 
L 296.327273 213.12 
L 296.327273 209.76 
L 296.327273 206.4 
L 296.327273 203.04 
L 297.454545 202.2 
L 300.836364 199.68 
L 300.836364 196.32 
L 300.836364 192.96 
L 301.963636 192.12 
L 305.345455 189.6 
L 305.345455 186.24 
L 305.345455 182.88 
L 306.472727 182.04 
L 309.854545 179.52 
L 309.854545 176.16 
L 309.854545 172.8 
L 309.854545 169.44 
L 310.981818 168.6 
L 314.363636 166.08 
L 314.363636 162.72 
L 314.363636 159.36 
L 315.490909 158.52 
L 318.872727 156 
L 318.872727 152.64 
L 318.872727 149.28 
L 320 148.44 
L 323.381818 145.92 
L 323.381818 142.56 
L 323.381818 139.2 
L 323.381818 135.84 
L 324.509091 135 
L 327.890909 132.48 
L 327.890909 129.12 
L 327.890909 125.76 
L 329.018182 124.92 
L 332.4 122.4 
L 332.4 119.04 
L 332.4 115.68 
L 332.4 112.32 
L 333.527273 111.48 
L 336.909091 108.96 
L 336.909091 105.6 
L 336.909091 102.24 
L 338.036364 101.4 
L 341.418182 98.88 
L 341.418182 95.52 
L 341.418182 92.16 
L 342.545455 91.32 
L 345.927273 88.8 
L 345.927273 85.44 
L 345.927273 82.08 
L 345.927273 78.72 
L 347.054545 77.88 
L 350.436364 75.36 
L 350.436364 72 
L 350.436364 68.64 
L 351.563636 67.8 
L 354.945455 65.28 
L 354.945455 61.92 
L 354.945455 58.56 
L 356.072727 57.72 
L 359.454545 55.2 
L 359.454545 51.84 
L 358.778182 51.84 
L 358.778182 55.2 
L 356.072727 57.216 
L 354.269091 58.56 
L 354.269091 61.92 
L 354.269091 65.28 
L 351.563636 67.296 
L 349.76 68.64 
L 349.76 72 
L 349.76 75.36 
L 347.054545 77.376 
L 345.250909 78.72 
L 345.250909 82.08 
L 345.250909 85.44 
L 345.250909 88.8 
L 342.545455 90.816 
L 340.741818 92.16 
L 340.741818 95.52 
L 340.741818 98.88 
L 338.036364 100.896 
L 336.232727 102.24 
L 336.232727 105.6 
L 336.232727 108.96 
L 333.527273 110.976 
L 331.723636 112.32 
L 331.723636 115.68 
L 331.723636 119.04 
L 331.723636 122.4 
L 329.018182 124.416 
L 327.214545 125.76 
L 327.214545 129.12 
L 327.214545 132.48 
L 324.509091 134.496 
L 322.705455 135.84 
L 322.705455 139.2 
L 322.705455 142.56 
L 322.705455 145.92 
L 320 147.936 
L 318.196364 149.28 
L 318.196364 152.64 
L 318.196364 156 
L 315.490909 158.016 
L 313.687273 159.36 
L 313.687273 162.72 
L 313.687273 166.08 
L 310.981818 168.096 
L 309.178182 169.44 
L 309.178182 172.8 
L 309.178182 176.16 
L 309.178182 179.52 
L 306.472727 181.536 
L 304.669091 182.88 
L 304.669091 186.24 
L 304.669091 189.6 
L 301.963636 191.616 
L 300.16 192.96 
L 300.16 196.32 
L 300.16 199.68 
L 297.454545 201.696 
L 295.650909 203.04 
L 295.650909 206.4 
L 295.650909 209.76 
L 295.650909 213.12 
L 292.945455 215.136 
L 291.141818 216.48 
L 291.141818 219.84 
L 291.141818 223.2 
L 288.436364 225.216 
L 286.632727 226.56 
L 286.632727 229.92 
L 286.632727 233.28 
L 286.632727 236.64 
L 283.927273 238.656 
L 282.123636 240 
L 282.123636 243.36 
L 282.123636 246.72 
L 279.418182 248.736 
L 277.614545 250.08 
L 277.614545 253.44 
L 277.614545 256.8 
L 274.909091 258.816 
L 273.105455 260.16 
L 273.105455 263.52 
L 273.105455 266.88 
L 273.105455 270.24 
L 270.4 272.256 
L 268.596364 273.6 
L 268.596364 276.96 
L 268.596364 280.32 
L 265.890909 282.336 
L 264.087273 283.68 
L 264.087273 287.04 
L 264.087273 290.4 
L 261.381818 292.416 
L 259.578182 293.76 
L 259.578182 297.12 
L 259.578182 300.48 
L 259.578182 303.84 
L 256.872727 305.856 
L 255.069091 307.2 
L 255.069091 310.56 
L 255.069091 313.92 
L 252.363636 315.936 
L 250.56 317.28 
L 250.56 320.64 
L 250.56 324 
L 250.56 327.36 
L 247.854545 329.376 
L 246.050909 330.72 
L 246.050909 334.08 
L 246.050909 337.44 
L 243.345455 339.456 
L 241.541818 340.8 
L 241.541818 344.16 
L 241.541818 347.52 
L 238.836364 349.536 
L 237.032727 350.88 
L 237.032727 354.24 
L 237.032727 357.6 
L 237.032727 360.96 
L 234.327273 362.976 
L 232.523636 364.32 
L 232.523636 367.68 
L 232.523636 371.04 
L 229.818182 373.056 
L 228.014545 374.4 
L 228.014545 377.76 
L 228.014545 381.12 
L 225.309091 383.136 
L 223.505455 384.48 
L 224.181818 384.48 
z
" clip-path="url(#p16cfd1accd)" style="fill: #2db27d; fill-opacity: 0.3"/>
   </g>
   <g id="PathCollection_6">
    <path d="M 225.309091 384.144 
L 229.367273 381.12 
L 229.367273 377.76 
L 229.367273 374.4 
L 229.818182 374.064 
L 233.876364 371.04 
L 233.876364 367.68 
L 233.876364 364.32 
L 234.327273 363.984 
L 238.385455 360.96 
L 238.385455 357.6 
L 238.385455 354.24 
L 238.385455 350.88 
L 238.836364 350.544 
L 242.894545 347.52 
L 242.894545 344.16 
L 242.894545 340.8 
L 243.345455 340.464 
L 247.403636 337.44 
L 247.403636 334.08 
L 247.403636 330.72 
L 247.854545 330.384 
L 251.912727 327.36 
L 251.912727 324 
L 251.912727 320.64 
L 251.912727 317.28 
L 252.363636 316.944 
L 256.421818 313.92 
L 256.421818 310.56 
L 256.421818 307.2 
L 256.872727 306.864 
L 260.930909 303.84 
L 260.930909 300.48 
L 260.930909 297.12 
L 260.930909 293.76 
L 261.381818 293.424 
L 265.44 290.4 
L 265.44 287.04 
L 265.44 283.68 
L 265.890909 283.344 
L 269.949091 280.32 
L 269.949091 276.96 
L 269.949091 273.6 
L 270.4 273.264 
L 274.458182 270.24 
L 274.458182 266.88 
L 274.458182 263.52 
L 274.458182 260.16 
L 274.909091 259.824 
L 278.967273 256.8 
L 278.967273 253.44 
L 278.967273 250.08 
L 279.418182 249.744 
L 283.476364 246.72 
L 283.476364 243.36 
L 283.476364 240 
L 283.927273 239.664 
L 287.985455 236.64 
L 287.985455 233.28 
L 287.985455 229.92 
L 287.985455 226.56 
L 288.436364 226.224 
L 292.494545 223.2 
L 292.494545 219.84 
L 292.494545 216.48 
L 292.945455 216.144 
L 297.003636 213.12 
L 297.003636 209.76 
L 297.003636 206.4 
L 297.003636 203.04 
L 297.454545 202.704 
L 301.512727 199.68 
L 301.512727 196.32 
L 301.512727 192.96 
L 301.963636 192.624 
L 306.021818 189.6 
L 306.021818 186.24 
L 306.021818 182.88 
L 306.472727 182.544 
L 310.530909 179.52 
L 310.530909 176.16 
L 310.530909 172.8 
L 310.530909 169.44 
L 310.981818 169.104 
L 315.04 166.08 
L 315.04 162.72 
L 315.04 159.36 
L 315.490909 159.024 
L 319.549091 156 
L 319.549091 152.64 
L 319.549091 149.28 
L 320 148.944 
L 324.058182 145.92 
L 324.058182 142.56 
L 324.058182 139.2 
L 324.058182 135.84 
L 324.509091 135.504 
L 328.567273 132.48 
L 328.567273 129.12 
L 328.567273 125.76 
L 329.018182 125.424 
L 333.076364 122.4 
L 333.076364 119.04 
L 333.076364 115.68 
L 333.076364 112.32 
L 333.527273 111.984 
L 337.585455 108.96 
L 337.585455 105.6 
L 337.585455 102.24 
L 338.036364 101.904 
L 342.094545 98.88 
L 342.094545 95.52 
L 342.094545 92.16 
L 342.545455 91.824 
L 346.603636 88.8 
L 346.603636 85.44 
L 346.603636 82.08 
L 346.603636 78.72 
L 347.054545 78.384 
L 351.112727 75.36 
L 351.112727 72 
L 351.112727 68.64 
L 351.563636 68.304 
L 355.621818 65.28 
L 355.621818 61.92 
L 355.621818 58.56 
L 356.072727 58.224 
L 360.130909 55.2 
L 360.130909 51.84 
L 359.454545 51.84 
L 359.454545 55.2 
L 356.072727 57.72 
L 354.945455 58.56 
L 354.945455 61.92 
L 354.945455 65.28 
L 351.563636 67.8 
L 350.436364 68.64 
L 350.436364 72 
L 350.436364 75.36 
L 347.054545 77.88 
L 345.927273 78.72 
L 345.927273 82.08 
L 345.927273 85.44 
L 345.927273 88.8 
L 342.545455 91.32 
L 341.418182 92.16 
L 341.418182 95.52 
L 341.418182 98.88 
L 338.036364 101.4 
L 336.909091 102.24 
L 336.909091 105.6 
L 336.909091 108.96 
L 333.527273 111.48 
L 332.4 112.32 
L 332.4 115.68 
L 332.4 119.04 
L 332.4 122.4 
L 329.018182 124.92 
L 327.890909 125.76 
L 327.890909 129.12 
L 327.890909 132.48 
L 324.509091 135 
L 323.381818 135.84 
L 323.381818 139.2 
L 323.381818 142.56 
L 323.381818 145.92 
L 320 148.44 
L 318.872727 149.28 
L 318.872727 152.64 
L 318.872727 156 
L 315.490909 158.52 
L 314.363636 159.36 
L 314.363636 162.72 
L 314.363636 166.08 
L 310.981818 168.6 
L 309.854545 169.44 
L 309.854545 172.8 
L 309.854545 176.16 
L 309.854545 179.52 
L 306.472727 182.04 
L 305.345455 182.88 
L 305.345455 186.24 
L 305.345455 189.6 
L 301.963636 192.12 
L 300.836364 192.96 
L 300.836364 196.32 
L 300.836364 199.68 
L 297.454545 202.2 
L 296.327273 203.04 
L 296.327273 206.4 
L 296.327273 209.76 
L 296.327273 213.12 
L 292.945455 215.64 
L 291.818182 216.48 
L 291.818182 219.84 
L 291.818182 223.2 
L 288.436364 225.72 
L 287.309091 226.56 
L 287.309091 229.92 
L 287.309091 233.28 
L 287.309091 236.64 
L 283.927273 239.16 
L 282.8 240 
L 282.8 243.36 
L 282.8 246.72 
L 279.418182 249.24 
L 278.290909 250.08 
L 278.290909 253.44 
L 278.290909 256.8 
L 274.909091 259.32 
L 273.781818 260.16 
L 273.781818 263.52 
L 273.781818 266.88 
L 273.781818 270.24 
L 270.4 272.76 
L 269.272727 273.6 
L 269.272727 276.96 
L 269.272727 280.32 
L 265.890909 282.84 
L 264.763636 283.68 
L 264.763636 287.04 
L 264.763636 290.4 
L 261.381818 292.92 
L 260.254545 293.76 
L 260.254545 297.12 
L 260.254545 300.48 
L 260.254545 303.84 
L 256.872727 306.36 
L 255.745455 307.2 
L 255.745455 310.56 
L 255.745455 313.92 
L 252.363636 316.44 
L 251.236364 317.28 
L 251.236364 320.64 
L 251.236364 324 
L 251.236364 327.36 
L 247.854545 329.88 
L 246.727273 330.72 
L 246.727273 334.08 
L 246.727273 337.44 
L 243.345455 339.96 
L 242.218182 340.8 
L 242.218182 344.16 
L 242.218182 347.52 
L 238.836364 350.04 
L 237.709091 350.88 
L 237.709091 354.24 
L 237.709091 357.6 
L 237.709091 360.96 
L 234.327273 363.48 
L 233.2 364.32 
L 233.2 367.68 
L 233.2 371.04 
L 229.818182 373.56 
L 228.690909 374.4 
L 228.690909 377.76 
L 228.690909 381.12 
L 225.309091 383.64 
L 224.181818 384.48 
L 224.858182 384.48 
z
" clip-path="url(#p16cfd1accd)" style="fill: #73d056; fill-opacity: 0.3"/>
   </g>
   <g id="PathCollection_7">
    <path d="M 225.309091 384.48 
L 229.818182 384.48 
L 234.327273 384.48 
L 238.836364 384.48 
L 243.345455 384.48 
L 247.854545 384.48 
L 252.363636 384.48 
L 256.872727 384.48 
L 261.381818 384.48 
L 265.890909 384.48 
L 270.4 384.48 
L 274.909091 384.48 
L 279.418182 384.48 
L 283.927273 384.48 
L 288.436364 384.48 
L 292.945455 384.48 
L 297.454545 384.48 
L 301.963636 384.48 
L 306.472727 384.48 
L 310.981818 384.48 
L 315.490909 384.48 
L 320 384.48 
L 324.509091 384.48 
L 329.018182 384.48 
L 333.527273 384.48 
L 338.036364 384.48 
L 342.545455 384.48 
L 347.054545 384.48 
L 351.563636 384.48 
L 356.072727 384.48 
L 360.581818 384.48 
L 365.090909 384.48 
L 369.6 384.48 
L 374.109091 384.48 
L 378.618182 384.48 
L 383.127273 384.48 
L 387.636364 384.48 
L 392.145455 384.48 
L 396.654545 384.48 
L 401.163636 384.48 
L 405.672727 384.48 
L 410.181818 384.48 
L 414.690909 384.48 
L 419.2 384.48 
L 423.709091 384.48 
L 428.218182 384.48 
L 432.727273 384.48 
L 437.236364 384.48 
L 441.745455 384.48 
L 446.254545 384.48 
L 450.763636 384.48 
L 455.272727 384.48 
L 459.781818 384.48 
L 464.290909 384.48 
L 468.8 384.48 
L 473.309091 384.48 
L 477.818182 384.48 
L 482.327273 384.48 
L 486.836364 384.48 
L 491.345455 384.48 
L 495.854545 384.48 
L 500.363636 384.48 
L 504.872727 384.48 
L 509.381818 384.48 
L 513.890909 384.48 
L 518.4 384.48 
L 518.4 381.12 
L 518.4 377.76 
L 518.4 374.4 
L 518.4 371.04 
L 518.4 367.68 
L 518.4 364.32 
L 518.4 360.96 
L 518.4 357.6 
L 518.4 354.24 
L 518.4 350.88 
L 518.4 347.52 
L 518.4 344.16 
L 518.4 340.8 
L 518.4 337.44 
L 518.4 334.08 
L 518.4 330.72 
L 518.4 327.36 
L 518.4 324 
L 518.4 320.64 
L 518.4 317.28 
L 518.4 313.92 
L 518.4 310.56 
L 518.4 307.2 
L 518.4 303.84 
L 518.4 300.48 
L 518.4 297.12 
L 518.4 293.76 
L 518.4 290.4 
L 518.4 287.04 
L 518.4 283.68 
L 518.4 280.32 
L 518.4 276.96 
L 518.4 273.6 
L 518.4 270.24 
L 518.4 266.88 
L 518.4 263.52 
L 518.4 260.16 
L 518.4 256.8 
L 518.4 253.44 
L 518.4 250.08 
L 518.4 246.72 
L 518.4 243.36 
L 518.4 240 
L 518.4 236.64 
L 518.4 233.28 
L 518.4 229.92 
L 518.4 226.56 
L 518.4 223.2 
L 518.4 219.84 
L 518.4 216.48 
L 518.4 213.12 
L 518.4 209.76 
L 518.4 206.4 
L 518.4 203.04 
L 518.4 199.68 
L 518.4 196.32 
L 518.4 192.96 
L 518.4 189.6 
L 518.4 186.24 
L 518.4 182.88 
L 518.4 179.52 
L 518.4 176.16 
L 518.4 172.8 
L 518.4 169.44 
L 518.4 166.08 
L 518.4 162.72 
L 518.4 159.36 
L 518.4 156 
L 518.4 152.64 
L 518.4 149.28 
L 518.4 145.92 
L 518.4 142.56 
L 518.4 139.2 
L 518.4 135.84 
L 518.4 132.48 
L 518.4 129.12 
L 518.4 125.76 
L 518.4 122.4 
L 518.4 119.04 
L 518.4 115.68 
L 518.4 112.32 
L 518.4 108.96 
L 518.4 105.6 
L 518.4 102.24 
L 518.4 98.88 
L 518.4 95.52 
L 518.4 92.16 
L 518.4 88.8 
L 518.4 85.44 
L 518.4 82.08 
L 518.4 78.72 
L 518.4 75.36 
L 518.4 72 
L 518.4 68.64 
L 518.4 65.28 
L 518.4 61.92 
L 518.4 58.56 
L 518.4 55.2 
L 518.4 51.84 
L 513.890909 51.84 
L 509.381818 51.84 
L 504.872727 51.84 
L 500.363636 51.84 
L 495.854545 51.84 
L 491.345455 51.84 
L 486.836364 51.84 
L 482.327273 51.84 
L 477.818182 51.84 
L 473.309091 51.84 
L 468.8 51.84 
L 464.290909 51.84 
L 459.781818 51.84 
L 455.272727 51.84 
L 450.763636 51.84 
L 446.254545 51.84 
L 441.745455 51.84 
L 437.236364 51.84 
L 432.727273 51.84 
L 428.218182 51.84 
L 423.709091 51.84 
L 419.2 51.84 
L 414.690909 51.84 
L 410.181818 51.84 
L 405.672727 51.84 
L 401.163636 51.84 
L 396.654545 51.84 
L 392.145455 51.84 
L 387.636364 51.84 
L 383.127273 51.84 
L 378.618182 51.84 
L 374.109091 51.84 
L 369.6 51.84 
L 365.090909 51.84 
L 360.581818 51.84 
L 360.130909 51.84 
L 360.130909 55.2 
L 356.072727 58.224 
L 355.621818 58.56 
L 355.621818 61.92 
L 355.621818 65.28 
L 351.563636 68.304 
L 351.112727 68.64 
L 351.112727 72 
L 351.112727 75.36 
L 347.054545 78.384 
L 346.603636 78.72 
L 346.603636 82.08 
L 346.603636 85.44 
L 346.603636 88.8 
L 342.545455 91.824 
L 342.094545 92.16 
L 342.094545 95.52 
L 342.094545 98.88 
L 338.036364 101.904 
L 337.585455 102.24 
L 337.585455 105.6 
L 337.585455 108.96 
L 333.527273 111.984 
L 333.076364 112.32 
L 333.076364 115.68 
L 333.076364 119.04 
L 333.076364 122.4 
L 329.018182 125.424 
L 328.567273 125.76 
L 328.567273 129.12 
L 328.567273 132.48 
L 324.509091 135.504 
L 324.058182 135.84 
L 324.058182 139.2 
L 324.058182 142.56 
L 324.058182 145.92 
L 320 148.944 
L 319.549091 149.28 
L 319.549091 152.64 
L 319.549091 156 
L 315.490909 159.024 
L 315.04 159.36 
L 315.04 162.72 
L 315.04 166.08 
L 310.981818 169.104 
L 310.530909 169.44 
L 310.530909 172.8 
L 310.530909 176.16 
L 310.530909 179.52 
L 306.472727 182.544 
L 306.021818 182.88 
L 306.021818 186.24 
L 306.021818 189.6 
L 301.963636 192.624 
L 301.512727 192.96 
L 301.512727 196.32 
L 301.512727 199.68 
L 297.454545 202.704 
L 297.003636 203.04 
L 297.003636 206.4 
L 297.003636 209.76 
L 297.003636 213.12 
L 292.945455 216.144 
L 292.494545 216.48 
L 292.494545 219.84 
L 292.494545 223.2 
L 288.436364 226.224 
L 287.985455 226.56 
L 287.985455 229.92 
L 287.985455 233.28 
L 287.985455 236.64 
L 283.927273 239.664 
L 283.476364 240 
L 283.476364 243.36 
L 283.476364 246.72 
L 279.418182 249.744 
L 278.967273 250.08 
L 278.967273 253.44 
L 278.967273 256.8 
L 274.909091 259.824 
L 274.458182 260.16 
L 274.458182 263.52 
L 274.458182 266.88 
L 274.458182 270.24 
L 270.4 273.264 
L 269.949091 273.6 
L 269.949091 276.96 
L 269.949091 280.32 
L 265.890909 283.344 
L 265.44 283.68 
L 265.44 287.04 
L 265.44 290.4 
L 261.381818 293.424 
L 260.930909 293.76 
L 260.930909 297.12 
L 260.930909 300.48 
L 260.930909 303.84 
L 256.872727 306.864 
L 256.421818 307.2 
L 256.421818 310.56 
L 256.421818 313.92 
L 252.363636 316.944 
L 251.912727 317.28 
L 251.912727 320.64 
L 251.912727 324 
L 251.912727 327.36 
L 247.854545 330.384 
L 247.403636 330.72 
L 247.403636 334.08 
L 247.403636 337.44 
L 243.345455 340.464 
L 242.894545 340.8 
L 242.894545 344.16 
L 242.894545 347.52 
L 238.836364 350.544 
L 238.385455 350.88 
L 238.385455 354.24 
L 238.385455 357.6 
L 238.385455 360.96 
L 234.327273 363.984 
L 233.876364 364.32 
L 233.876364 367.68 
L 233.876364 371.04 
L 229.818182 374.064 
L 229.367273 374.4 
L 229.367273 377.76 
L 229.367273 381.12 
L 225.309091 384.144 
L 224.858182 384.48 
z
" clip-path="url(#p16cfd1accd)" style="fill: #d0e11c; fill-opacity: 0.3"/>
   </g>
   <g id="PathCollection_8">
    <defs>
     <path id="C0_0_b3fe165342" d="M 0 3 
C 0.795609 3 1.55874 2.683901 2.12132 2.12132 
C 2.683901 1.55874 3 0.795609 3 -0 
C 3 -0.795609 2.683901 -1.55874 2.12132 -2.12132 
C 1.55874 -2.683901 0.795609 -3 0 -3 
C -0.795609 -3 -1.55874 -2.683901 -2.12132 -2.12132 
C -2.683901 -1.55874 -3 -0.795609 -3 0 
C -3 0.795609 -2.683901 1.55874 -2.12132 2.12132 
C -1.55874 2.683901 -0.795609 3 0 3 
z
"/>
    </defs>
    <g clip-path="url(#p16cfd1accd)">
     <use xlink:href="#C0_0_b3fe165342" x="329.82909" y="99.964112" style="fill: #440154; stroke: #000000"/>
    </g>
    <g clip-path="url(#p16cfd1accd)">
     <use xlink:href="#C0_0_b3fe165342" x="376.648094" y="249.438003" style="fill: #fde725; stroke: #000000"/>
    </g>
    <g clip-path="url(#p16cfd1accd)">
     <use xlink:href="#C0_0_b3fe165342" x="198.015683" y="307.550706" style="fill: #440154; stroke: #000000"/>
    </g>
    <g clip-path="url(#p16cfd1accd)">
     <use xlink:href="#C0_0_b3fe165342" x="153.137915" y="221.503934" style="fill: #440154; stroke: #000000"/>
    </g>
    <g clip-path="url(#p16cfd1accd)">
     <use xlink:href="#C0_0_b3fe165342" x="392.105982" y="235.512976" style="fill: #fde725; stroke: #000000"/>
    </g>
    <g clip-path="url(#p16cfd1accd)">
     <use xlink:href="#C0_0_b3fe165342" x="244.775934" y="157.330592" style="fill: #440154; stroke: #000000"/>
    </g>
    <g clip-path="url(#p16cfd1accd)">
     <use xlink:href="#C0_0_b3fe165342" x="278.202115" y="323.463707" style="fill: #fde725; stroke: #000000"/>
    </g>
    <g clip-path="url(#p16cfd1accd)">
     <use xlink:href="#C0_0_b3fe165342" x="324.920195" y="188.490782" style="fill: #fde725; stroke: #000000"/>
    </g>
    <g clip-path="url(#p16cfd1accd)">
     <use xlink:href="#C0_0_b3fe165342" x="219.926394" y="275.986578" style="fill: #440154; stroke: #000000"/>
    </g>
    <g clip-path="url(#p16cfd1accd)">
     <use xlink:href="#C0_0_b3fe165342" x="310.842151" y="301.316047" style="fill: #fde725; stroke: #000000"/>
    </g>
    <g clip-path="url(#p16cfd1accd)">
     <use xlink:href="#C0_0_b3fe165342" x="456.202593" y="203.140733" style="fill: #fde725; stroke: #000000"/>
    </g>
    <g clip-path="url(#p16cfd1accd)">
     <use xlink:href="#C0_0_b3fe165342" x="299.464936" y="191.130202" style="fill: #440154; stroke: #000000"/>
    </g>
    <g clip-path="url(#p16cfd1accd)">
     <use xlink:href="#C0_0_b3fe165342" x="221.788909" y="272.952148" style="fill: #440154; stroke: #000000"/>
    </g>
    <g clip-path="url(#p16cfd1accd)">
     <use xlink:href="#C0_0_b3fe165342" x="353.091734" y="181.802754" style="fill: #fde725; stroke: #000000"/>
    </g>
    <g clip-path="url(#p16cfd1accd)">
     <use xlink:href="#C0_0_b3fe165342" x="397.793348" y="232.187477" style="fill: #fde725; stroke: #000000"/>
    </g>
    <g clip-path="url(#p16cfd1accd)">
     <use xlink:href="#C0_0_b3fe165342" x="207.500285" y="290.389286" style="fill: #440154; stroke: #000000"/>
    </g>
    <g clip-path="url(#p16cfd1accd)">
     <use xlink:href="#C0_0_b3fe165342" x="358.63456" y="267.048178" style="fill: #fde725; stroke: #000000"/>
    </g>
    <g clip-path="url(#p16cfd1accd)">
     <use xlink:href="#C0_0_b3fe165342" x="244.230983" y="247.622405" style="fill: #440154; stroke: #000000"/>
    </g>
    <g clip-path="url(#p16cfd1accd)">
     <use xlink:href="#C0_0_b3fe165342" x="388.688117" y="233.647682" style="fill: #fde725; stroke: #000000"/>
    </g>
    <g clip-path="url(#p16cfd1accd)">
     <use xlink:href="#C0_0_b3fe165342" x="160.000359" y="217.258097" style="fill: #440154; stroke: #000000"/>
    </g>
    <g clip-path="url(#p16cfd1accd)">
     <use xlink:href="#C0_0_b3fe165342" x="339.492533" y="283.697809" style="fill: #fde725; stroke: #000000"/>
    </g>
    <g clip-path="url(#p16cfd1accd)">
     <use xlink:href="#C0_0_b3fe165342" x="285.695994" y="220.552568" style="fill: #fde725; stroke: #000000"/>
    </g>
    <g clip-path="url(#p16cfd1accd)">
     <use xlink:href="#C0_0_b3fe165342" x="207.226491" y="288.705358" style="fill: #440154; stroke: #000000"/>
    </g>
    <g clip-path="url(#p16cfd1accd)">
     <use xlink:href="#C0_0_b3fe165342" x="134.197407" y="234.612998" style="fill: #440154; stroke: #000000"/>
    </g>
    <g clip-path="url(#p16cfd1accd)">
     <use xlink:href="#C0_0_b3fe165342" x="346.40973" y="265.632909" style="fill: #fde725; stroke: #000000"/>
    </g>
    <g clip-path="url(#p16cfd1accd)">
     <use xlink:href="#C0_0_b3fe165342" x="290.597349" y="210.636642" style="fill: #440154; stroke: #000000"/>
    </g>
    <g clip-path="url(#p16cfd1accd)">
     <use xlink:href="#C0_0_b3fe165342" x="334.055284" y="278.890803" style="fill: #fde725; stroke: #000000"/>
    </g>
    <g clip-path="url(#p16cfd1accd)">
     <use xlink:href="#C0_0_b3fe165342" x="398.208673" y="235.674525" style="fill: #fde725; stroke: #000000"/>
    </g>
    <g clip-path="url(#p16cfd1accd)">
     <use xlink:href="#C0_0_b3fe165342" x="374.640049" y="154.331497" style="fill: #fde725; stroke: #000000"/>
    </g>
    <g clip-path="url(#p16cfd1accd)">
     <use xlink:href="#C0_0_b3fe165342" x="310.620167" y="208.19055" style="fill: #fde725; stroke: #000000"/>
    </g>
    <g clip-path="url(#p16cfd1accd)">
     <use xlink:href="#C0_0_b3fe165342" x="291.725424" y="125.596882" style="fill: #440154; stroke: #000000"/>
    </g>
    <g clip-path="url(#p16cfd1accd)">
     <use xlink:href="#C0_0_b3fe165342" x="167.012004" y="336.355888" style="fill: #440154; stroke: #000000"/>
    </g>
    <g clip-path="url(#p16cfd1accd)">
     <use xlink:href="#C0_0_b3fe165342" x="169.002316" y="211.936818" style="fill: #440154; stroke: #000000"/>
    </g>
    <g clip-path="url(#p16cfd1accd)">
     <use xlink:href="#C0_0_b3fe165342" x="191.892022" y="290.533961" style="fill: #440154; stroke: #000000"/>
    </g>
    <g clip-path="url(#p16cfd1accd)">
     <use xlink:href="#C0_0_b3fe165342" x="374.652089" y="152.867418" style="fill: #fde725; stroke: #000000"/>
    </g>
    <g clip-path="url(#p16cfd1accd)">
     <use xlink:href="#C0_0_b3fe165342" x="355.007016" y="188.160727" style="fill: #fde725; stroke: #000000"/>
    </g>
    <g clip-path="url(#p16cfd1accd)">
     <use xlink:href="#C0_0_b3fe165342" x="178.318434" y="203.807992" style="fill: #440154; stroke: #000000"/>
    </g>
    <g clip-path="url(#p16cfd1accd)">
     <use xlink:href="#C0_0_b3fe165342" x="236.397556" y="161.976731" style="fill: #440154; stroke: #000000"/>
    </g>
    <g clip-path="url(#p16cfd1accd)">
     <use xlink:href="#C0_0_b3fe165342" x="226.721757" y="256.316066" style="fill: #440154; stroke: #000000"/>
    </g>
    <g clip-path="url(#p16cfd1accd)">
     <use xlink:href="#C0_0_b3fe165342" x="271.046681" y="214.088697" style="fill: #440154; stroke: #000000"/>
    </g>
    <g clip-path="url(#p16cfd1accd)">
     <use xlink:href="#C0_0_b3fe165342" x="315.388434" y="184.862899" style="fill: #fde725; stroke: #000000"/>
    </g>
    <g clip-path="url(#p16cfd1accd)">
     <use xlink:href="#C0_0_b3fe165342" x="359.166111" y="188.233816" style="fill: #fde725; stroke: #000000"/>
    </g>
    <g clip-path="url(#p16cfd1accd)">
     <use xlink:href="#C0_0_b3fe165342" x="263.417349" y="143.668769" style="fill: #440154; stroke: #000000"/>
    </g>
    <g clip-path="url(#p16cfd1accd)">
     <use xlink:href="#C0_0_b3fe165342" x="337.364106" y="165.492851" style="fill: #fde725; stroke: #000000"/>
    </g>
    <g clip-path="url(#p16cfd1accd)">
     <use xlink:href="#C0_0_b3fe165342" x="362.372878" y="262.089837" style="fill: #fde725; stroke: #000000"/>
    </g>
    <g clip-path="url(#p16cfd1accd)">
     <use xlink:href="#C0_0_b3fe165342" x="207.827198" y="297.723634" style="fill: #440154; stroke: #000000"/>
    </g>
    <g clip-path="url(#p16cfd1accd)">
     <use xlink:href="#C0_0_b3fe165342" x="348.05078" y="270.09607" style="fill: #fde725; stroke: #000000"/>
    </g>
    <g clip-path="url(#p16cfd1accd)">
     <use xlink:href="#C0_0_b3fe165342" x="299.292011" y="298.460348" style="fill: #fde725; stroke: #000000"/>
    </g>
    <g clip-path="url(#p16cfd1accd)">
     <use xlink:href="#C0_0_b3fe165342" x="390.633862" y="240.59487" style="fill: #fde725; stroke: #000000"/>
    </g>
    <g clip-path="url(#p16cfd1accd)">
     <use xlink:href="#C0_0_b3fe165342" x="343.461937" y="273.12226" style="fill: #fde725; stroke: #000000"/>
    </g>
    <g clip-path="url(#p16cfd1accd)">
     <use xlink:href="#C0_0_b3fe165342" x="192.51294" y="194.817728" style="fill: #440154; stroke: #000000"/>
    </g>
    <g clip-path="url(#p16cfd1accd)">
     <use xlink:href="#C0_0_b3fe165342" x="336.414199" y="172.265775" style="fill: #fde725; stroke: #000000"/>
    </g>
    <g clip-path="url(#p16cfd1accd)">
     <use xlink:href="#C0_0_b3fe165342" x="368.346024" y="162.375736" style="fill: #fde725; stroke: #000000"/>
    </g>
    <g clip-path="url(#p16cfd1accd)">
     <use xlink:href="#C0_0_b3fe165342" x="363.380001" y="154.622639" style="fill: #fde725; stroke: #000000"/>
    </g>
    <g clip-path="url(#p16cfd1accd)">
     <use xlink:href="#C0_0_b3fe165342" x="237.86442" y="163.822703" style="fill: #440154; stroke: #000000"/>
    </g>
    <g clip-path="url(#p16cfd1accd)">
     <use xlink:href="#C0_0_b3fe165342" x="198.7209" y="283.992749" style="fill: #440154; stroke: #000000"/>
    </g>
    <g clip-path="url(#p16cfd1accd)">
     <use xlink:href="#C0_0_b3fe165342" x="274.423482" y="139.39586" style="fill: #440154; stroke: #000000"/>
    </g>
    <g clip-path="url(#p16cfd1accd)">
     <use xlink:href="#C0_0_b3fe165342" x="323.059758" y="287.141382" style="fill: #fde725; stroke: #000000"/>
    </g>
    <g clip-path="url(#p16cfd1accd)">
     <use xlink:href="#C0_0_b3fe165342" x="232.441864" y="269.805737" style="fill: #440154; stroke: #000000"/>
    </g>
    <g clip-path="url(#p16cfd1accd)">
     <use xlink:href="#C0_0_b3fe165342" x="224.622131" y="172.050891" style="fill: #440154; stroke: #000000"/>
    </g>
    <g clip-path="url(#p16cfd1accd)">
     <use xlink:href="#C0_0_b3fe165342" x="261.470602" y="249.773189" style="fill: #440154; stroke: #000000"/>
    </g>
    <g clip-path="url(#p16cfd1accd)">
     <use xlink:href="#C0_0_b3fe165342" x="362.617554" y="263.303894" style="fill: #fde725; stroke: #000000"/>
    </g>
    <g clip-path="url(#p16cfd1accd)">
     <use xlink:href="#C0_0_b3fe165342" x="346.399823" y="189.181382" style="fill: #fde725; stroke: #000000"/>
    </g>
    <g clip-path="url(#p16cfd1accd)">
     <use xlink:href="#C0_0_b3fe165342" x="316.261814" y="187.340705" style="fill: #fde725; stroke: #000000"/>
    </g>
    <g clip-path="url(#p16cfd1accd)">
     <use xlink:href="#C0_0_b3fe165342" x="215.06825" y="179.777712" style="fill: #440154; stroke: #000000"/>
    </g>
    <g clip-path="url(#p16cfd1accd)">
     <use xlink:href="#C0_0_b3fe165342" x="366.685098" y="249.255638" style="fill: #fde725; stroke: #000000"/>
    </g>
    <g clip-path="url(#p16cfd1accd)">
     <use xlink:href="#C0_0_b3fe165342" x="210.417396" y="293.870622" style="fill: #440154; stroke: #000000"/>
    </g>
    <g clip-path="url(#p16cfd1accd)">
     <use xlink:href="#C0_0_b3fe165342" x="150.238987" y="223.384668" style="fill: #440154; stroke: #000000"/>
    </g>
    <g clip-path="url(#p16cfd1accd)">
     <use xlink:href="#C0_0_b3fe165342" x="273.328264" y="139.839314" style="fill: #440154; stroke: #000000"/>
    </g>
    <g clip-path="url(#p16cfd1accd)">
     <use xlink:href="#C0_0_b3fe165342" x="368.010031" y="179.477135" style="fill: #fde725; stroke: #000000"/>
    </g>
    <g clip-path="url(#p16cfd1accd)">
     <use xlink:href="#C0_0_b3fe165342" x="392.829486" y="142.770279" style="fill: #fde725; stroke: #000000"/>
    </g>
    <g clip-path="url(#p16cfd1accd)">
     <use xlink:href="#C0_0_b3fe165342" x="189.732237" y="292.615819" style="fill: #440154; stroke: #000000"/>
    </g>
    <g clip-path="url(#p16cfd1accd)">
     <use xlink:href="#C0_0_b3fe165342" x="230.832015" y="169.295952" style="fill: #440154; stroke: #000000"/>
    </g>
    <g clip-path="url(#p16cfd1accd)">
     <use xlink:href="#C0_0_b3fe165342" x="409.471871" y="104.015841" style="fill: #fde725; stroke: #000000"/>
    </g>
    <g clip-path="url(#p16cfd1accd)">
     <use xlink:href="#C0_0_b3fe165342" x="390.391455" y="131.110829" style="fill: #fde725; stroke: #000000"/>
    </g>
    <g clip-path="url(#p16cfd1accd)">
     <use xlink:href="#C0_0_b3fe165342" x="205.79097" y="283.58897" style="fill: #440154; stroke: #000000"/>
    </g>
    <g clip-path="url(#p16cfd1accd)">
     <use xlink:href="#C0_0_b3fe165342" x="386.359184" y="238.474587" style="fill: #fde725; stroke: #000000"/>
    </g>
    <g clip-path="url(#p16cfd1accd)">
     <use xlink:href="#C0_0_b3fe165342" x="442.359577" y="106.320424" style="fill: #fde725; stroke: #000000"/>
    </g>
    <g clip-path="url(#p16cfd1accd)">
     <use xlink:href="#C0_0_b3fe165342" x="219.326261" y="280.711407" style="fill: #440154; stroke: #000000"/>
    </g>
    <g clip-path="url(#p16cfd1accd)">
     <use xlink:href="#C0_0_b3fe165342" x="246.06214" y="157.775755" style="fill: #440154; stroke: #000000"/>
    </g>
    <g clip-path="url(#p16cfd1accd)">
     <use xlink:href="#C0_0_b3fe165342" x="198.972788" y="287.605919" style="fill: #440154; stroke: #000000"/>
    </g>
    <g clip-path="url(#p16cfd1accd)">
     <use xlink:href="#C0_0_b3fe165342" x="418.50997" y="215.969489" style="fill: #fde725; stroke: #000000"/>
    </g>
    <g clip-path="url(#p16cfd1accd)">
     <use xlink:href="#C0_0_b3fe165342" x="304.683009" y="118.76333" style="fill: #440154; stroke: #000000"/>
    </g>
    <g clip-path="url(#p16cfd1accd)">
     <use xlink:href="#C0_0_b3fe165342" x="170.423117" y="330.39408" style="fill: #440154; stroke: #000000"/>
    </g>
    <g clip-path="url(#p16cfd1accd)">
     <use xlink:href="#C0_0_b3fe165342" x="452.383347" y="121.514912" style="fill: #fde725; stroke: #000000"/>
    </g>
    <g clip-path="url(#p16cfd1accd)">
     <use xlink:href="#C0_0_b3fe165342" x="348.64785" y="149.483238" style="fill: #fde725; stroke: #000000"/>
    </g>
    <g clip-path="url(#p16cfd1accd)">
     <use xlink:href="#C0_0_b3fe165342" x="379.334685" y="159.330033" style="fill: #fde725; stroke: #000000"/>
    </g>
    <g clip-path="url(#p16cfd1accd)">
     <use xlink:href="#C0_0_b3fe165342" x="359.699006" y="259.273586" style="fill: #fde725; stroke: #000000"/>
    </g>
    <g clip-path="url(#p16cfd1accd)">
     <use xlink:href="#C0_0_b3fe165342" x="181.811492" y="202.407679" style="fill: #440154; stroke: #000000"/>
    </g>
    <g clip-path="url(#p16cfd1accd)">
     <use xlink:href="#C0_0_b3fe165342" x="245.667271" y="259.727472" style="fill: #440154; stroke: #000000"/>
    </g>
    <g clip-path="url(#p16cfd1accd)">
     <use xlink:href="#C0_0_b3fe165342" x="246.343546" y="156.758575" style="fill: #440154; stroke: #000000"/>
    </g>
    <g clip-path="url(#p16cfd1accd)">
     <use xlink:href="#C0_0_b3fe165342" x="170.06809" y="322.803451" style="fill: #440154; stroke: #000000"/>
    </g>
    <g clip-path="url(#p16cfd1accd)">
     <use xlink:href="#C0_0_b3fe165342" x="380.413262" y="162.965872" style="fill: #fde725; stroke: #000000"/>
    </g>
    <g clip-path="url(#p16cfd1accd)">
     <use xlink:href="#C0_0_b3fe165342" x="259.270573" y="232.970216" style="fill: #440154; stroke: #000000"/>
    </g>
    <g clip-path="url(#p16cfd1accd)">
     <use xlink:href="#C0_0_b3fe165342" x="410.957065" y="138.165284" style="fill: #fde725; stroke: #000000"/>
    </g>
    <g clip-path="url(#p16cfd1accd)">
     <use xlink:href="#C0_0_b3fe165342" x="407.284457" y="222.133644" style="fill: #fde725; stroke: #000000"/>
    </g>
    <g clip-path="url(#p16cfd1accd)">
     <use xlink:href="#C0_0_b3fe165342" x="366.851129" y="260.89957" style="fill: #fde725; stroke: #000000"/>
    </g>
    <g clip-path="url(#p16cfd1accd)">
     <use xlink:href="#C0_0_b3fe165342" x="259.723222" y="148.029314" style="fill: #440154; stroke: #000000"/>
    </g>
    <g clip-path="url(#p16cfd1accd)">
     <use xlink:href="#C0_0_b3fe165342" x="223.005374" y="173.260683" style="fill: #440154; stroke: #000000"/>
    </g>
    <g clip-path="url(#p16cfd1accd)">
     <use xlink:href="#C0_0_b3fe165342" x="185.86617" y="197.585025" style="fill: #440154; stroke: #000000"/>
    </g>
   </g>
   <g id="PathCollection_9"/>
   <g id="matplotlib.axis_1">
    <g id="xtick_1">
     <g id="line2d_1">
      <path d="M 108.441993 384.48 
L 108.441993 51.84 
" clip-path="url(#p16cfd1accd)" style="fill: none; stroke-dasharray: 2.22,0.96; stroke-dashoffset: 0; stroke: #b0b0b0; stroke-opacity: 0.7; stroke-width: 0.6"/>
     </g>
     <g id="line2d_2">
      <defs>
       <path id="m5cc2979db5" d="M 0 0 
L 0 -3.5 
" style="stroke: #1a1a1a; stroke-width: 0.8"/>
      </defs>
      <g>
       <use xlink:href="#m5cc2979db5" x="108.441993" y="384.48" style="fill: #1a1a1a; stroke: #1a1a1a; stroke-width: 0.8"/>
      </g>
     </g>
     <g id="text_1">
      <!-- 3 -->
      <g style="fill: #1a1a1a" transform="translate(99.596681 397.098125) scale(0.12 -0.12)">
       <defs>
        <path id="DejaVuSans-2212" d="M 678 2272 
L 4684 2272 
L 4684 1741 
L 678 1741 
L 678 2272 
z
" transform="scale(0.015625)"/>
        <path id="DejaVuSans-33" d="M 2597 2516 
Q 3050 2419 3304 2112 
Q 3559 1806 3559 1356 
Q 3559 666 3084 287 
Q 2609 -91 1734 -91 
Q 1441 -91 1130 -33 
Q 819 25 488 141 
L 488 750 
Q 750 597 1062 519 
Q 1375 441 1716 441 
Q 2309 441 2620 675 
Q 2931 909 2931 1356 
Q 2931 1769 2642 2001 
Q 2353 2234 1838 2234 
L 1294 2234 
L 1294 2753 
L 1863 2753 
Q 2328 2753 2575 2939 
Q 2822 3125 2822 3475 
Q 2822 3834 2567 4026 
Q 2313 4219 1838 4219 
Q 1578 4219 1281 4162 
Q 984 4106 628 3988 
L 628 4550 
Q 988 4650 1302 4700 
Q 1616 4750 1894 4750 
Q 2613 4750 3031 4423 
Q 3450 4097 3450 3541 
Q 3450 3153 3228 2886 
Q 3006 2619 2597 2516 
z
" transform="scale(0.015625)"/>
       </defs>
       <use xlink:href="#DejaVuSans-2212"/>
       <use xlink:href="#DejaVuSans-33" x="83.789062"/>
      </g>
     </g>
    </g>
    <g id="xtick_2">
     <g id="line2d_3">
      <path d="M 170.639401 384.48 
L 170.639401 51.84 
" clip-path="url(#p16cfd1accd)" style="fill: none; stroke-dasharray: 2.22,0.96; stroke-dashoffset: 0; stroke: #b0b0b0; stroke-opacity: 0.7; stroke-width: 0.6"/>
     </g>
     <g id="line2d_4">
      <g>
       <use xlink:href="#m5cc2979db5" x="170.639401" y="384.48" style="fill: #1a1a1a; stroke: #1a1a1a; stroke-width: 0.8"/>
      </g>
     </g>
     <g id="text_2">
      <!-- 2 -->
      <g style="fill: #1a1a1a" transform="translate(161.794088 397.098125) scale(0.12 -0.12)">
       <defs>
        <path id="DejaVuSans-32" d="M 1228 531 
L 3431 531 
L 3431 0 
L 469 0 
L 469 531 
Q 828 903 1448 1529 
Q 2069 2156 2228 2338 
Q 2531 2678 2651 2914 
Q 2772 3150 2772 3378 
Q 2772 3750 2511 3984 
Q 2250 4219 1831 4219 
Q 1534 4219 1204 4116 
Q 875 4013 500 3803 
L 500 4441 
Q 881 4594 1212 4672 
Q 1544 4750 1819 4750 
Q 2544 4750 2975 4387 
Q 3406 4025 3406 3419 
Q 3406 3131 3298 2873 
Q 3191 2616 2906 2266 
Q 2828 2175 2409 1742 
Q 1991 1309 1228 531 
z
" transform="scale(0.015625)"/>
       </defs>
       <use xlink:href="#DejaVuSans-2212"/>
       <use xlink:href="#DejaVuSans-32" x="83.789062"/>
      </g>
     </g>
    </g>
    <g id="xtick_3">
     <g id="line2d_5">
      <path d="M 232.836808 384.48 
L 232.836808 51.84 
" clip-path="url(#p16cfd1accd)" style="fill: none; stroke-dasharray: 2.22,0.96; stroke-dashoffset: 0; stroke: #b0b0b0; stroke-opacity: 0.7; stroke-width: 0.6"/>
     </g>
     <g id="line2d_6">
      <g>
       <use xlink:href="#m5cc2979db5" x="232.836808" y="384.48" style="fill: #1a1a1a; stroke: #1a1a1a; stroke-width: 0.8"/>
      </g>
     </g>
     <g id="text_3">
      <!-- 1 -->
      <g style="fill: #1a1a1a" transform="translate(223.991496 397.098125) scale(0.12 -0.12)">
       <defs>
        <path id="DejaVuSans-31" d="M 794 531 
L 1825 531 
L 1825 4091 
L 703 3866 
L 703 4441 
L 1819 4666 
L 2450 4666 
L 2450 531 
L 3481 531 
L 3481 0 
L 794 0 
L 794 531 
z
" transform="scale(0.015625)"/>
       </defs>
       <use xlink:href="#DejaVuSans-2212"/>
       <use xlink:href="#DejaVuSans-31" x="83.789062"/>
      </g>
     </g>
    </g>
    <g id="xtick_4">
     <g id="line2d_7">
      <path d="M 295.034216 384.48 
L 295.034216 51.84 
" clip-path="url(#p16cfd1accd)" style="fill: none; stroke-dasharray: 2.22,0.96; stroke-dashoffset: 0; stroke: #b0b0b0; stroke-opacity: 0.7; stroke-width: 0.6"/>
     </g>
     <g id="line2d_8">
      <g>
       <use xlink:href="#m5cc2979db5" x="295.034216" y="384.48" style="fill: #1a1a1a; stroke: #1a1a1a; stroke-width: 0.8"/>
      </g>
     </g>
     <g id="text_4">
      <!-- 0 -->
      <g style="fill: #1a1a1a" transform="translate(291.216716 397.098125) scale(0.12 -0.12)">
       <defs>
        <path id="DejaVuSans-30" d="M 2034 4250 
Q 1547 4250 1301 3770 
Q 1056 3291 1056 2328 
Q 1056 1369 1301 889 
Q 1547 409 2034 409 
Q 2525 409 2770 889 
Q 3016 1369 3016 2328 
Q 3016 3291 2770 3770 
Q 2525 4250 2034 4250 
z
M 2034 4750 
Q 2819 4750 3233 4129 
Q 3647 3509 3647 2328 
Q 3647 1150 3233 529 
Q 2819 -91 2034 -91 
Q 1250 -91 836 529 
Q 422 1150 422 2328 
Q 422 3509 836 4129 
Q 1250 4750 2034 4750 
z
" transform="scale(0.015625)"/>
       </defs>
       <use xlink:href="#DejaVuSans-30"/>
      </g>
     </g>
    </g>
    <g id="xtick_5">
     <g id="line2d_9">
      <path d="M 357.231623 384.48 
L 357.231623 51.84 
" clip-path="url(#p16cfd1accd)" style="fill: none; stroke-dasharray: 2.22,0.96; stroke-dashoffset: 0; stroke: #b0b0b0; stroke-opacity: 0.7; stroke-width: 0.6"/>
     </g>
     <g id="line2d_10">
      <g>
       <use xlink:href="#m5cc2979db5" x="357.231623" y="384.48" style="fill: #1a1a1a; stroke: #1a1a1a; stroke-width: 0.8"/>
      </g>
     </g>
     <g id="text_5">
      <!-- 1 -->
      <g style="fill: #1a1a1a" transform="translate(353.414123 397.098125) scale(0.12 -0.12)">
       <use xlink:href="#DejaVuSans-31"/>
      </g>
     </g>
    </g>
    <g id="xtick_6">
     <g id="line2d_11">
      <path d="M 419.429031 384.48 
L 419.429031 51.84 
" clip-path="url(#p16cfd1accd)" style="fill: none; stroke-dasharray: 2.22,0.96; stroke-dashoffset: 0; stroke: #b0b0b0; stroke-opacity: 0.7; stroke-width: 0.6"/>
     </g>
     <g id="line2d_12">
      <g>
       <use xlink:href="#m5cc2979db5" x="419.429031" y="384.48" style="fill: #1a1a1a; stroke: #1a1a1a; stroke-width: 0.8"/>
      </g>
     </g>
     <g id="text_6">
      <!-- 2 -->
      <g style="fill: #1a1a1a" transform="translate(415.611531 397.098125) scale(0.12 -0.12)">
       <use xlink:href="#DejaVuSans-32"/>
      </g>
     </g>
    </g>
    <g id="xtick_7">
     <g id="line2d_13">
      <path d="M 481.626438 384.48 
L 481.626438 51.84 
" clip-path="url(#p16cfd1accd)" style="fill: none; stroke-dasharray: 2.22,0.96; stroke-dashoffset: 0; stroke: #b0b0b0; stroke-opacity: 0.7; stroke-width: 0.6"/>
     </g>
     <g id="line2d_14">
      <g>
       <use xlink:href="#m5cc2979db5" x="481.626438" y="384.48" style="fill: #1a1a1a; stroke: #1a1a1a; stroke-width: 0.8"/>
      </g>
     </g>
     <g id="text_7">
      <!-- 3 -->
      <g style="fill: #1a1a1a" transform="translate(477.808938 397.098125) scale(0.12 -0.12)">
       <use xlink:href="#DejaVuSans-33"/>
      </g>
     </g>
    </g>
    <g id="text_8">
     <!-- Feature 1 -->
     <g style="fill: #1a1a1a" transform="translate(266.807813 412.711875) scale(0.12 -0.12)">
      <defs>
       <path id="DejaVuSans-46" d="M 628 4666 
L 3309 4666 
L 3309 4134 
L 1259 4134 
L 1259 2759 
L 3109 2759 
L 3109 2228 
L 1259 2228 
L 1259 0 
L 628 0 
L 628 4666 
z
" transform="scale(0.015625)"/>
       <path id="DejaVuSans-65" d="M 3597 1894 
L 3597 1613 
L 953 1613 
Q 991 1019 1311 708 
Q 1631 397 2203 397 
Q 2534 397 2845 478 
Q 3156 559 3463 722 
L 3463 178 
Q 3153 47 2828 -22 
Q 2503 -91 2169 -91 
Q 1331 -91 842 396 
Q 353 884 353 1716 
Q 353 2575 817 3079 
Q 1281 3584 2069 3584 
Q 2775 3584 3186 3129 
Q 3597 2675 3597 1894 
z
M 3022 2063 
Q 3016 2534 2758 2815 
Q 2500 3097 2075 3097 
Q 1594 3097 1305 2825 
Q 1016 2553 972 2059 
L 3022 2063 
z
" transform="scale(0.015625)"/>
       <path id="DejaVuSans-61" d="M 2194 1759 
Q 1497 1759 1228 1600 
Q 959 1441 959 1056 
Q 959 750 1161 570 
Q 1363 391 1709 391 
Q 2188 391 2477 730 
Q 2766 1069 2766 1631 
L 2766 1759 
L 2194 1759 
z
M 3341 1997 
L 3341 0 
L 2766 0 
L 2766 531 
Q 2569 213 2275 61 
Q 1981 -91 1556 -91 
Q 1019 -91 701 211 
Q 384 513 384 1019 
Q 384 1609 779 1909 
Q 1175 2209 1959 2209 
L 2766 2209 
L 2766 2266 
Q 2766 2663 2505 2880 
Q 2244 3097 1772 3097 
Q 1472 3097 1187 3025 
Q 903 2953 641 2809 
L 641 3341 
Q 956 3463 1253 3523 
Q 1550 3584 1831 3584 
Q 2591 3584 2966 3190 
Q 3341 2797 3341 1997 
z
" transform="scale(0.015625)"/>
       <path id="DejaVuSans-74" d="M 1172 4494 
L 1172 3500 
L 2356 3500 
L 2356 3053 
L 1172 3053 
L 1172 1153 
Q 1172 725 1289 603 
Q 1406 481 1766 481 
L 2356 481 
L 2356 0 
L 1766 0 
Q 1100 0 847 248 
Q 594 497 594 1153 
L 594 3053 
L 172 3053 
L 172 3500 
L 594 3500 
L 594 4494 
L 1172 4494 
z
" transform="scale(0.015625)"/>
       <path id="DejaVuSans-75" d="M 544 1381 
L 544 3500 
L 1119 3500 
L 1119 1403 
Q 1119 906 1312 657 
Q 1506 409 1894 409 
Q 2359 409 2629 706 
Q 2900 1003 2900 1516 
L 2900 3500 
L 3475 3500 
L 3475 0 
L 2900 0 
L 2900 538 
Q 2691 219 2414 64 
Q 2138 -91 1772 -91 
Q 1169 -91 856 284 
Q 544 659 544 1381 
z
M 1991 3584 
L 1991 3584 
z
" transform="scale(0.015625)"/>
       <path id="DejaVuSans-72" d="M 2631 2963 
Q 2534 3019 2420 3045 
Q 2306 3072 2169 3072 
Q 1681 3072 1420 2755 
Q 1159 2438 1159 1844 
L 1159 0 
L 581 0 
L 581 3500 
L 1159 3500 
L 1159 2956 
Q 1341 3275 1631 3429 
Q 1922 3584 2338 3584 
Q 2397 3584 2469 3576 
Q 2541 3569 2628 3553 
L 2631 2963 
z
" transform="scale(0.015625)"/>
       <path id="DejaVuSans-20" transform="scale(0.015625)"/>
      </defs>
      <use xlink:href="#DejaVuSans-46"/>
      <use xlink:href="#DejaVuSans-65" x="52.019531"/>
      <use xlink:href="#DejaVuSans-61" x="113.542969"/>
      <use xlink:href="#DejaVuSans-74" x="174.822266"/>
      <use xlink:href="#DejaVuSans-75" x="214.03125"/>
      <use xlink:href="#DejaVuSans-72" x="277.410156"/>
      <use xlink:href="#DejaVuSans-65" x="316.273438"/>
      <use xlink:href="#DejaVuSans-20" x="377.796875"/>
      <use xlink:href="#DejaVuSans-31" x="409.583984"/>
     </g>
    </g>
   </g>
   <g id="matplotlib.axis_2">
    <g id="ytick_1">
     <g id="line2d_15">
      <path d="M 72 359.2902 
L 518.4 359.2902 
" clip-path="url(#p16cfd1accd)" style="fill: none; stroke-dasharray: 2.22,0.96; stroke-dashoffset: 0; stroke: #b0b0b0; stroke-opacity: 0.7; stroke-width: 0.6"/>
     </g>
     <g id="line2d_16">
      <defs>
       <path id="mcb8a47c986" d="M 0 0 
L 3.5 0 
" style="stroke: #1a1a1a; stroke-width: 0.8"/>
      </defs>
      <g>
       <use xlink:href="#mcb8a47c986" x="72" y="359.2902" style="fill: #1a1a1a; stroke: #1a1a1a; stroke-width: 0.8"/>
      </g>
     </g>
     <g id="text_9">
      <!-- 3 -->
      <g style="fill: #1a1a1a" transform="translate(50.809375 363.849263) scale(0.12 -0.12)">
       <use xlink:href="#DejaVuSans-2212"/>
       <use xlink:href="#DejaVuSans-33" x="83.789062"/>
      </g>
     </g>
    </g>
    <g id="ytick_2">
     <g id="line2d_17">
      <path d="M 72 311.166089 
L 518.4 311.166089 
" clip-path="url(#p16cfd1accd)" style="fill: none; stroke-dasharray: 2.22,0.96; stroke-dashoffset: 0; stroke: #b0b0b0; stroke-opacity: 0.7; stroke-width: 0.6"/>
     </g>
     <g id="line2d_18">
      <g>
       <use xlink:href="#mcb8a47c986" x="72" y="311.166089" style="fill: #1a1a1a; stroke: #1a1a1a; stroke-width: 0.8"/>
      </g>
     </g>
     <g id="text_10">
      <!-- 2 -->
      <g style="fill: #1a1a1a" transform="translate(50.809375 315.725151) scale(0.12 -0.12)">
       <use xlink:href="#DejaVuSans-2212"/>
       <use xlink:href="#DejaVuSans-32" x="83.789062"/>
      </g>
     </g>
    </g>
    <g id="ytick_3">
     <g id="line2d_19">
      <path d="M 72 263.041977 
L 518.4 263.041977 
" clip-path="url(#p16cfd1accd)" style="fill: none; stroke-dasharray: 2.22,0.96; stroke-dashoffset: 0; stroke: #b0b0b0; stroke-opacity: 0.7; stroke-width: 0.6"/>
     </g>
     <g id="line2d_20">
      <g>
       <use xlink:href="#mcb8a47c986" x="72" y="263.041977" style="fill: #1a1a1a; stroke: #1a1a1a; stroke-width: 0.8"/>
      </g>
     </g>
     <g id="text_11">
      <!-- 1 -->
      <g style="fill: #1a1a1a" transform="translate(50.809375 267.60104) scale(0.12 -0.12)">
       <use xlink:href="#DejaVuSans-2212"/>
       <use xlink:href="#DejaVuSans-31" x="83.789062"/>
      </g>
     </g>
    </g>
    <g id="ytick_4">
     <g id="line2d_21">
      <path d="M 72 214.917865 
L 518.4 214.917865 
" clip-path="url(#p16cfd1accd)" style="fill: none; stroke-dasharray: 2.22,0.96; stroke-dashoffset: 0; stroke: #b0b0b0; stroke-opacity: 0.7; stroke-width: 0.6"/>
     </g>
     <g id="line2d_22">
      <g>
       <use xlink:href="#mcb8a47c986" x="72" y="214.917865" style="fill: #1a1a1a; stroke: #1a1a1a; stroke-width: 0.8"/>
      </g>
     </g>
     <g id="text_12">
      <!-- 0 -->
      <g style="fill: #1a1a1a" transform="translate(60.865 219.476928) scale(0.12 -0.12)">
       <use xlink:href="#DejaVuSans-30"/>
      </g>
     </g>
    </g>
    <g id="ytick_5">
     <g id="line2d_23">
      <path d="M 72 166.793754 
L 518.4 166.793754 
" clip-path="url(#p16cfd1accd)" style="fill: none; stroke-dasharray: 2.22,0.96; stroke-dashoffset: 0; stroke: #b0b0b0; stroke-opacity: 0.7; stroke-width: 0.6"/>
     </g>
     <g id="line2d_24">
      <g>
       <use xlink:href="#mcb8a47c986" x="72" y="166.793754" style="fill: #1a1a1a; stroke: #1a1a1a; stroke-width: 0.8"/>
      </g>
     </g>
     <g id="text_13">
      <!-- 1 -->
      <g style="fill: #1a1a1a" transform="translate(60.865 171.352816) scale(0.12 -0.12)">
       <use xlink:href="#DejaVuSans-31"/>
      </g>
     </g>
    </g>
    <g id="ytick_6">
     <g id="line2d_25">
      <path d="M 72 118.669642 
L 518.4 118.669642 
" clip-path="url(#p16cfd1accd)" style="fill: none; stroke-dasharray: 2.22,0.96; stroke-dashoffset: 0; stroke: #b0b0b0; stroke-opacity: 0.7; stroke-width: 0.6"/>
     </g>
     <g id="line2d_26">
      <g>
       <use xlink:href="#mcb8a47c986" x="72" y="118.669642" style="fill: #1a1a1a; stroke: #1a1a1a; stroke-width: 0.8"/>
      </g>
     </g>
     <g id="text_14">
      <!-- 2 -->
      <g style="fill: #1a1a1a" transform="translate(60.865 123.228705) scale(0.12 -0.12)">
       <use xlink:href="#DejaVuSans-32"/>
      </g>
     </g>
    </g>
    <g id="ytick_7">
     <g id="line2d_27">
      <path d="M 72 70.545531 
L 518.4 70.545531 
" clip-path="url(#p16cfd1accd)" style="fill: none; stroke-dasharray: 2.22,0.96; stroke-dashoffset: 0; stroke: #b0b0b0; stroke-opacity: 0.7; stroke-width: 0.6"/>
     </g>
     <g id="line2d_28">
      <g>
       <use xlink:href="#mcb8a47c986" x="72" y="70.545531" style="fill: #1a1a1a; stroke: #1a1a1a; stroke-width: 0.8"/>
      </g>
     </g>
     <g id="text_15">
      <!-- 3 -->
      <g style="fill: #1a1a1a" transform="translate(60.865 75.104593) scale(0.12 -0.12)">
       <use xlink:href="#DejaVuSans-33"/>
      </g>
     </g>
    </g>
    <g id="text_16">
     <!-- Feature 2 -->
     <g style="fill: #1a1a1a" transform="translate(44.31375 246.552187) rotate(-90) scale(0.12 -0.12)">
      <use xlink:href="#DejaVuSans-46"/>
      <use xlink:href="#DejaVuSans-65" x="52.019531"/>
      <use xlink:href="#DejaVuSans-61" x="113.542969"/>
      <use xlink:href="#DejaVuSans-74" x="174.822266"/>
      <use xlink:href="#DejaVuSans-75" x="214.03125"/>
      <use xlink:href="#DejaVuSans-72" x="277.410156"/>
      <use xlink:href="#DejaVuSans-65" x="316.273438"/>
      <use xlink:href="#DejaVuSans-20" x="377.796875"/>
      <use xlink:href="#DejaVuSans-32" x="409.583984"/>
     </g>
    </g>
   </g>
   <g id="patch_3">
    <path d="M 72 384.48 
L 72 51.84 
" style="fill: none; stroke: #1a1a1a; stroke-linejoin: miter; stroke-linecap: square"/>
   </g>
   <g id="patch_4">
    <path d="M 72 384.48 
L 518.4 384.48 
" style="fill: none; stroke: #1a1a1a; stroke-linejoin: miter; stroke-linecap: square"/>
   </g>
   <g id="text_17">
    <!-- Linear SVM Decision Boundary -->
    <g style="fill: #333333" transform="translate(172.6675 45.84) scale(0.16 -0.16)">
     <defs>
      <path id="DejaVuSans-4c" d="M 628 4666 
L 1259 4666 
L 1259 531 
L 3531 531 
L 3531 0 
L 628 0 
L 628 4666 
z
" transform="scale(0.015625)"/>
      <path id="DejaVuSans-69" d="M 603 3500 
L 1178 3500 
L 1178 0 
L 603 0 
L 603 3500 
z
M 603 4863 
L 1178 4863 
L 1178 4134 
L 603 4134 
L 603 4863 
z
" transform="scale(0.015625)"/>
      <path id="DejaVuSans-6e" d="M 3513 2113 
L 3513 0 
L 2938 0 
L 2938 2094 
Q 2938 2591 2744 2837 
Q 2550 3084 2163 3084 
Q 1697 3084 1428 2787 
Q 1159 2491 1159 1978 
L 1159 0 
L 581 0 
L 581 3500 
L 1159 3500 
L 1159 2956 
Q 1366 3272 1645 3428 
Q 1925 3584 2291 3584 
Q 2894 3584 3203 3211 
Q 3513 2838 3513 2113 
z
" transform="scale(0.015625)"/>
      <path id="DejaVuSans-53" d="M 3425 4513 
L 3425 3897 
Q 3066 4069 2747 4153 
Q 2428 4238 2131 4238 
Q 1616 4238 1336 4038 
Q 1056 3838 1056 3469 
Q 1056 3159 1242 3001 
Q 1428 2844 1947 2747 
L 2328 2669 
Q 3034 2534 3370 2195 
Q 3706 1856 3706 1288 
Q 3706 609 3251 259 
Q 2797 -91 1919 -91 
Q 1588 -91 1214 -16 
Q 841 59 441 206 
L 441 856 
Q 825 641 1194 531 
Q 1563 422 1919 422 
Q 2459 422 2753 634 
Q 3047 847 3047 1241 
Q 3047 1584 2836 1778 
Q 2625 1972 2144 2069 
L 1759 2144 
Q 1053 2284 737 2584 
Q 422 2884 422 3419 
Q 422 4038 858 4394 
Q 1294 4750 2059 4750 
Q 2388 4750 2728 4690 
Q 3069 4631 3425 4513 
z
" transform="scale(0.015625)"/>
      <path id="DejaVuSans-56" d="M 1831 0 
L 50 4666 
L 709 4666 
L 2188 738 
L 3669 4666 
L 4325 4666 
L 2547 0 
L 1831 0 
z
" transform="scale(0.015625)"/>
      <path id="DejaVuSans-4d" d="M 628 4666 
L 1569 4666 
L 2759 1491 
L 3956 4666 
L 4897 4666 
L 4897 0 
L 4281 0 
L 4281 4097 
L 3078 897 
L 2444 897 
L 1241 4097 
L 1241 0 
L 628 0 
L 628 4666 
z
" transform="scale(0.015625)"/>
      <path id="DejaVuSans-44" d="M 1259 4147 
L 1259 519 
L 2022 519 
Q 2988 519 3436 956 
Q 3884 1394 3884 2338 
Q 3884 3275 3436 3711 
Q 2988 4147 2022 4147 
L 1259 4147 
z
M 628 4666 
L 1925 4666 
Q 3281 4666 3915 4102 
Q 4550 3538 4550 2338 
Q 4550 1131 3912 565 
Q 3275 0 1925 0 
L 628 0 
L 628 4666 
z
" transform="scale(0.015625)"/>
      <path id="DejaVuSans-63" d="M 3122 3366 
L 3122 2828 
Q 2878 2963 2633 3030 
Q 2388 3097 2138 3097 
Q 1578 3097 1268 2742 
Q 959 2388 959 1747 
Q 959 1106 1268 751 
Q 1578 397 2138 397 
Q 2388 397 2633 464 
Q 2878 531 3122 666 
L 3122 134 
Q 2881 22 2623 -34 
Q 2366 -91 2075 -91 
Q 1284 -91 818 406 
Q 353 903 353 1747 
Q 353 2603 823 3093 
Q 1294 3584 2113 3584 
Q 2378 3584 2631 3529 
Q 2884 3475 3122 3366 
z
" transform="scale(0.015625)"/>
      <path id="DejaVuSans-73" d="M 2834 3397 
L 2834 2853 
Q 2591 2978 2328 3040 
Q 2066 3103 1784 3103 
Q 1356 3103 1142 2972 
Q 928 2841 928 2578 
Q 928 2378 1081 2264 
Q 1234 2150 1697 2047 
L 1894 2003 
Q 2506 1872 2764 1633 
Q 3022 1394 3022 966 
Q 3022 478 2636 193 
Q 2250 -91 1575 -91 
Q 1294 -91 989 -36 
Q 684 19 347 128 
L 347 722 
Q 666 556 975 473 
Q 1284 391 1588 391 
Q 1994 391 2212 530 
Q 2431 669 2431 922 
Q 2431 1156 2273 1281 
Q 2116 1406 1581 1522 
L 1381 1569 
Q 847 1681 609 1914 
Q 372 2147 372 2553 
Q 372 3047 722 3315 
Q 1072 3584 1716 3584 
Q 2034 3584 2315 3537 
Q 2597 3491 2834 3397 
z
" transform="scale(0.015625)"/>
      <path id="DejaVuSans-6f" d="M 1959 3097 
Q 1497 3097 1228 2736 
Q 959 2375 959 1747 
Q 959 1119 1226 758 
Q 1494 397 1959 397 
Q 2419 397 2687 759 
Q 2956 1122 2956 1747 
Q 2956 2369 2687 2733 
Q 2419 3097 1959 3097 
z
M 1959 3584 
Q 2709 3584 3137 3096 
Q 3566 2609 3566 1747 
Q 3566 888 3137 398 
Q 2709 -91 1959 -91 
Q 1206 -91 779 398 
Q 353 888 353 1747 
Q 353 2609 779 3096 
Q 1206 3584 1959 3584 
z
" transform="scale(0.015625)"/>
      <path id="DejaVuSans-42" d="M 1259 2228 
L 1259 519 
L 2272 519 
Q 2781 519 3026 730 
Q 3272 941 3272 1375 
Q 3272 1813 3026 2020 
Q 2781 2228 2272 2228 
L 1259 2228 
z
M 1259 4147 
L 1259 2741 
L 2194 2741 
Q 2656 2741 2882 2914 
Q 3109 3088 3109 3444 
Q 3109 3797 2882 3972 
Q 2656 4147 2194 4147 
L 1259 4147 
z
M 628 4666 
L 2241 4666 
Q 2963 4666 3353 4366 
Q 3744 4066 3744 3513 
Q 3744 3084 3544 2831 
Q 3344 2578 2956 2516 
Q 3422 2416 3680 2098 
Q 3938 1781 3938 1306 
Q 3938 681 3513 340 
Q 3088 0 2303 0 
L 628 0 
L 628 4666 
z
" transform="scale(0.015625)"/>
      <path id="DejaVuSans-64" d="M 2906 2969 
L 2906 4863 
L 3481 4863 
L 3481 0 
L 2906 0 
L 2906 525 
Q 2725 213 2448 61 
Q 2172 -91 1784 -91 
Q 1150 -91 751 415 
Q 353 922 353 1747 
Q 353 2572 751 3078 
Q 1150 3584 1784 3584 
Q 2172 3584 2448 3432 
Q 2725 3281 2906 2969 
z
M 947 1747 
Q 947 1113 1208 752 
Q 1469 391 1925 391 
Q 2381 391 2643 752 
Q 2906 1113 2906 1747 
Q 2906 2381 2643 2742 
Q 2381 3103 1925 3103 
Q 1469 3103 1208 2742 
Q 947 2381 947 1747 
z
" transform="scale(0.015625)"/>
      <path id="DejaVuSans-79" d="M 2059 -325 
Q 1816 -950 1584 -1140 
Q 1353 -1331 966 -1331 
L 506 -1331 
L 506 -850 
L 844 -850 
Q 1081 -850 1212 -737 
Q 1344 -625 1503 -206 
L 1606 56 
L 191 3500 
L 800 3500 
L 1894 763 
L 2988 3500 
L 3597 3500 
L 2059 -325 
z
" transform="scale(0.015625)"/>
     </defs>
     <use xlink:href="#DejaVuSans-4c"/>
     <use xlink:href="#DejaVuSans-69" x="55.712891"/>
     <use xlink:href="#DejaVuSans-6e" x="83.496094"/>
     <use xlink:href="#DejaVuSans-65" x="146.875"/>
     <use xlink:href="#DejaVuSans-61" x="208.398438"/>
     <use xlink:href="#DejaVuSans-72" x="269.677734"/>
     <use xlink:href="#DejaVuSans-20" x="310.791016"/>
     <use xlink:href="#DejaVuSans-53" x="342.578125"/>
     <use xlink:href="#DejaVuSans-56" x="406.054688"/>
     <use xlink:href="#DejaVuSans-4d" x="474.462891"/>
     <use xlink:href="#DejaVuSans-20" x="560.742188"/>
     <use xlink:href="#DejaVuSans-44" x="592.529297"/>
     <use xlink:href="#DejaVuSans-65" x="669.53125"/>
     <use xlink:href="#DejaVuSans-63" x="731.054688"/>
     <use xlink:href="#DejaVuSans-69" x="786.035156"/>
     <use xlink:href="#DejaVuSans-73" x="813.818359"/>
     <use xlink:href="#DejaVuSans-69" x="865.917969"/>
     <use xlink:href="#DejaVuSans-6f" x="893.701172"/>
     <use xlink:href="#DejaVuSans-6e" x="954.882812"/>
     <use xlink:href="#DejaVuSans-20" x="1018.261719"/>
     <use xlink:href="#DejaVuSans-42" x="1050.048828"/>
     <use xlink:href="#DejaVuSans-6f" x="1118.652344"/>
     <use xlink:href="#DejaVuSans-75" x="1179.833984"/>
     <use xlink:href="#DejaVuSans-6e" x="1243.212891"/>
     <use xlink:href="#DejaVuSans-64" x="1306.591797"/>
     <use xlink:href="#DejaVuSans-61" x="1370.068359"/>
     <use xlink:href="#DejaVuSans-72" x="1431.347656"/>
     <use xlink:href="#DejaVuSans-79" x="1472.460938"/>
    </g>
   </g>
  </g>
 </g>
 <defs>
  <clipPath id="p16cfd1accd">
   <rect x="72" y="51.84" width="446.4" height="332.64"/>
  </clipPath>
 </defs>
</svg>
