<?xml version="1.0" encoding="utf-8" standalone="no"?>
<!DOCTYPE svg PUBLIC "-//W3C//DTD SVG 1.1//EN"
  "http://www.w3.org/Graphics/SVG/1.1/DTD/svg11.dtd">
<svg xmlns:xlink="http://www.w3.org/1999/xlink" width="720pt" height="432pt" viewBox="0 0 720 432" xmlns="http://www.w3.org/2000/svg" version="1.1">
 <metadata>
  <rdf:RDF xmlns:dc="http://purl.org/dc/elements/1.1/" xmlns:cc="http://creativecommons.org/ns#" xmlns:rdf="http://www.w3.org/1999/02/22-rdf-syntax-ns#">
   <cc:Work>
    <dc:type rdf:resource="http://purl.org/dc/dcmitype/StillImage"/>
    <dc:date>2025-03-19T19:44:49.873520</dc:date>
    <dc:format>image/svg+xml</dc:format>
    <dc:creator>
     <cc:Agent>
      <dc:title>Matplotlib v3.6.3, https://matplotlib.org/</dc:title>
     </cc:Agent>
    </dc:creator>
   </cc:Work>
  </rdf:RDF>
 </metadata>
 <defs>
  <style type="text/css">*{stroke-linejoin: round; stroke-linecap: butt}</style>
 </defs>
 <g id="figure_1">
  <g id="patch_1">
   <path d="M 0 432 
L 720 432 
L 720 0 
L 0 0 
z
" style="fill: #ffffff"/>
  </g>
  <g id="axes_1">
   <g id="patch_2">
    <path d="M 90 384.48 
L 648 384.48 
L 648 51.84 
L 90 51.84 
z
" style="fill: #ffffff"/>
   </g>
   <g id="PathCollection_1">
    <path d="M 417.989554 285.557872 
L 425.060622 278.486804 
M 417.989554 278.486804 
L 425.060622 285.557872 
" clip-path="url(#p45061281ed)" style="fill: #440154; stroke: #440154; stroke-width: 1.5"/>
    <path d="M 243.962037 126.869158 
L 251.033104 119.79809 
M 243.962037 119.79809 
L 251.033104 126.869158 
" clip-path="url(#p45061281ed)" style="fill: #35b779; stroke: #35b779; stroke-width: 1.5"/>
    <path d="M 442.607356 196.384288 
L 449.678423 189.31322 
M 442.607356 189.31322 
L 449.678423 196.384288 
" clip-path="url(#p45061281ed)" style="fill: #31688e; stroke: #31688e; stroke-width: 1.5"/>
    <path d="M 274.509774 114.672694 
L 281.580842 107.601626 
M 274.509774 107.601626 
L 281.580842 114.672694 
" clip-path="url(#p45061281ed)" style="fill: #35b779; stroke: #35b779; stroke-width: 1.5"/>
    <path d="M 451.588092 292.895084 
L 458.65916 285.824016 
M 451.588092 285.824016 
L 458.65916 292.895084 
" clip-path="url(#p45061281ed)" style="fill: #440154; stroke: #440154; stroke-width: 1.5"/>
    <path d="M 619.10083 341.973512 
L 626.171898 334.902445 
M 619.10083 334.902445 
L 626.171898 341.973512 
" clip-path="url(#p45061281ed)" style="fill: #440154; stroke: #440154; stroke-width: 1.5"/>
    <path d="M 213.451211 301.788326 
L 220.522279 294.717259 
M 213.451211 294.717259 
L 220.522279 301.788326 
" clip-path="url(#p45061281ed)" style="fill: #fde725; stroke: #fde725; stroke-width: 1.5"/>
    <path d="M 462.597493 218.004409 
L 469.668561 210.933341 
M 462.597493 210.933341 
L 469.668561 218.004409 
" clip-path="url(#p45061281ed)" style="fill: #31688e; stroke: #31688e; stroke-width: 1.5"/>
    <path d="M 337.430233 96.099791 
L 344.501301 89.028723 
M 337.430233 89.028723 
L 344.501301 96.099791 
" clip-path="url(#p45061281ed)" style="fill: #35b779; stroke: #35b779; stroke-width: 1.5"/>
    <path d="M 298.289385 89.228284 
L 305.360453 82.157216 
M 298.289385 82.157216 
L 305.360453 89.228284 
" clip-path="url(#p45061281ed)" style="fill: #35b779; stroke: #35b779; stroke-width: 1.5"/>
    <path d="M 220.863075 266.254884 
L 227.934143 259.183816 
M 220.863075 259.183816 
L 227.934143 266.254884 
" clip-path="url(#p45061281ed)" style="fill: #fde725; stroke: #fde725; stroke-width: 1.5"/>
    <path d="M 146.811186 98.453227 
L 153.882253 91.382159 
M 146.811186 91.382159 
L 153.882253 98.453227 
" clip-path="url(#p45061281ed)" style="fill: #35b779; stroke: #35b779; stroke-width: 1.5"/>
    <path d="M 449.363881 214.308533 
L 456.434948 207.237465 
M 449.363881 207.237465 
L 456.434948 214.308533 
" clip-path="url(#p45061281ed)" style="fill: #31688e; stroke: #31688e; stroke-width: 1.5"/>
    <path d="M 181.003359 142.36179 
L 188.074426 135.290722 
M 181.003359 135.290722 
L 188.074426 142.36179 
" clip-path="url(#p45061281ed)" style="fill: #35b779; stroke: #35b779; stroke-width: 1.5"/>
    <path d="M 465.799941 350.726178 
L 472.871009 343.65511 
M 465.799941 343.65511 
L 472.871009 350.726178 
" clip-path="url(#p45061281ed)" style="fill: #440154; stroke: #440154; stroke-width: 1.5"/>
    <path d="M 388.367951 230.784923 
L 395.439019 223.713856 
M 388.367951 223.713856 
L 395.439019 230.784923 
" clip-path="url(#p45061281ed)" style="fill: #31688e; stroke: #31688e; stroke-width: 1.5"/>
    <path d="M 435.959135 213.505261 
L 443.030203 206.434193 
M 435.959135 206.434193 
L 443.030203 213.505261 
" clip-path="url(#p45061281ed)" style="fill: #31688e; stroke: #31688e; stroke-width: 1.5"/>
    <path d="M 551.960782 334.588849 
L 559.03185 327.517781 
M 551.960782 327.517781 
L 559.03185 334.588849 
" clip-path="url(#p45061281ed)" style="fill: #440154; stroke: #440154; stroke-width: 1.5"/>
    <path d="M 270.775628 255.606279 
L 277.846696 248.535211 
M 270.775628 248.535211 
L 277.846696 255.606279 
" clip-path="url(#p45061281ed)" style="fill: #fde725; stroke: #fde725; stroke-width: 1.5"/>
    <path d="M 269.872059 283.506851 
L 276.943127 276.435783 
M 269.872059 276.435783 
L 276.943127 283.506851 
" clip-path="url(#p45061281ed)" style="fill: #fde725; stroke: #fde725; stroke-width: 1.5"/>
    <path d="M 563.227251 311.002693 
L 570.298318 303.931625 
M 563.227251 303.931625 
L 570.298318 311.002693 
" clip-path="url(#p45061281ed)" style="fill: #440154; stroke: #440154; stroke-width: 1.5"/>
    <path d="M 490.69732 314.140478 
L 497.768388 307.06941 
M 490.69732 307.06941 
L 497.768388 314.140478 
" clip-path="url(#p45061281ed)" style="fill: #440154; stroke: #440154; stroke-width: 1.5"/>
    <path d="M 410.063995 198.261027 
L 417.135063 191.189959 
M 410.063995 191.189959 
L 417.135063 198.261027 
" clip-path="url(#p45061281ed)" style="fill: #31688e; stroke: #31688e; stroke-width: 1.5"/>
    <path d="M 198.893546 264.032619 
L 205.964614 256.961551 
M 198.893546 256.961551 
L 205.964614 264.032619 
" clip-path="url(#p45061281ed)" style="fill: #fde725; stroke: #fde725; stroke-width: 1.5"/>
    <path d="M 204.940688 271.449959 
L 212.011756 264.378892 
M 204.940688 264.378892 
L 212.011756 271.449959 
" clip-path="url(#p45061281ed)" style="fill: #fde725; stroke: #fde725; stroke-width: 1.5"/>
    <path d="M 310.31973 208.531669 
L 317.390798 201.460601 
M 310.31973 201.460601 
L 317.390798 208.531669 
" clip-path="url(#p45061281ed)" style="fill: #31688e; stroke: #31688e; stroke-width: 1.5"/>
    <path d="M 484.539637 323.783179 
L 491.610705 316.712111 
M 484.539637 316.712111 
L 491.610705 323.783179 
" clip-path="url(#p45061281ed)" style="fill: #440154; stroke: #440154; stroke-width: 1.5"/>
    <path d="M 399.26891 208.11973 
L 406.339978 201.048663 
M 399.26891 201.048663 
L 406.339978 208.11973 
" clip-path="url(#p45061281ed)" style="fill: #31688e; stroke: #31688e; stroke-width: 1.5"/>
    <path d="M 130.55419 280.50167 
L 137.625258 273.430603 
M 130.55419 273.430603 
L 137.625258 280.50167 
" clip-path="url(#p45061281ed)" style="fill: #fde725; stroke: #fde725; stroke-width: 1.5"/>
    <path d="M 367.716295 228.667604 
L 374.787363 221.596536 
M 367.716295 221.596536 
L 374.787363 228.667604 
" clip-path="url(#p45061281ed)" style="fill: #31688e; stroke: #31688e; stroke-width: 1.5"/>
    <path d="M 313.582221 112.883389 
L 320.653289 105.812321 
M 313.582221 105.812321 
L 320.653289 112.883389 
" clip-path="url(#p45061281ed)" style="fill: #35b779; stroke: #35b779; stroke-width: 1.5"/>
    <path d="M 194.212927 127.805271 
L 201.283995 120.734203 
M 194.212927 120.734203 
L 201.283995 127.805271 
" clip-path="url(#p45061281ed)" style="fill: #35b779; stroke: #35b779; stroke-width: 1.5"/>
    <path d="M 498.090451 224.03761 
L 505.161518 216.966542 
M 498.090451 216.966542 
L 505.161518 224.03761 
" clip-path="url(#p45061281ed)" style="fill: #31688e; stroke: #31688e; stroke-width: 1.5"/>
    <path d="M 265.802839 146.222041 
L 272.873907 139.150973 
M 265.802839 139.150973 
L 272.873907 146.222041 
" clip-path="url(#p45061281ed)" style="fill: #35b779; stroke: #35b779; stroke-width: 1.5"/>
    <path d="M 226.127797 110.879861 
L 233.198865 103.808793 
M 226.127797 103.808793 
L 233.198865 110.879861 
" clip-path="url(#p45061281ed)" style="fill: #35b779; stroke: #35b779; stroke-width: 1.5"/>
    <path d="M 166.194937 125.969323 
L 173.266005 118.898255 
M 166.194937 118.898255 
L 173.266005 125.969323 
" clip-path="url(#p45061281ed)" style="fill: #35b779; stroke: #35b779; stroke-width: 1.5"/>
    <path d="M 197.378865 124.624875 
L 204.449933 117.553807 
M 197.378865 117.553807 
L 204.449933 124.624875 
" clip-path="url(#p45061281ed)" style="fill: #35b779; stroke: #35b779; stroke-width: 1.5"/>
    <path d="M 150.567783 109.513657 
L 157.63885 102.442589 
M 150.567783 102.442589 
L 157.63885 109.513657 
" clip-path="url(#p45061281ed)" style="fill: #35b779; stroke: #35b779; stroke-width: 1.5"/>
    <path d="M 182.92395 275.23245 
L 189.995018 268.161382 
M 182.92395 268.161382 
L 189.995018 275.23245 
" clip-path="url(#p45061281ed)" style="fill: #fde725; stroke: #fde725; stroke-width: 1.5"/>
    <path d="M 481.937034 329.893025 
L 489.008102 322.821958 
M 481.937034 322.821958 
L 489.008102 329.893025 
" clip-path="url(#p45061281ed)" style="fill: #440154; stroke: #440154; stroke-width: 1.5"/>
    <path d="M 405.0704 241.650615 
L 412.141468 234.579547 
M 405.0704 234.579547 
L 412.141468 241.650615 
" clip-path="url(#p45061281ed)" style="fill: #31688e; stroke: #31688e; stroke-width: 1.5"/>
    <path d="M 199.7512 287.999985 
L 206.822268 280.928917 
M 199.7512 280.928917 
L 206.822268 287.999985 
" clip-path="url(#p45061281ed)" style="fill: #fde725; stroke: #fde725; stroke-width: 1.5"/>
    <path d="M 349.604743 185.110409 
L 356.675811 178.039341 
M 349.604743 178.039341 
L 356.675811 185.110409 
" clip-path="url(#p45061281ed)" style="fill: #31688e; stroke: #31688e; stroke-width: 1.5"/>
    <path d="M 472.719467 223.132142 
L 479.790534 216.061075 
M 472.719467 216.061075 
L 479.790534 223.132142 
" clip-path="url(#p45061281ed)" style="fill: #31688e; stroke: #31688e; stroke-width: 1.5"/>
    <path d="M 221.664675 275.788831 
L 228.735743 268.717763 
M 221.664675 268.717763 
L 228.735743 275.788831 
" clip-path="url(#p45061281ed)" style="fill: #fde725; stroke: #fde725; stroke-width: 1.5"/>
    <path d="M 274.253901 266.543632 
L 281.324969 259.472564 
M 274.253901 259.472564 
L 281.324969 266.543632 
" clip-path="url(#p45061281ed)" style="fill: #fde725; stroke: #fde725; stroke-width: 1.5"/>
    <path d="M 246.686497 106.01247 
L 253.757565 98.941402 
M 246.686497 98.941402 
L 253.757565 106.01247 
" clip-path="url(#p45061281ed)" style="fill: #35b779; stroke: #35b779; stroke-width: 1.5"/>
    <path d="M 233.248354 267.219437 
L 240.319422 260.148369 
M 233.248354 260.148369 
L 240.319422 267.219437 
" clip-path="url(#p45061281ed)" style="fill: #fde725; stroke: #fde725; stroke-width: 1.5"/>
    <path d="M 238.905959 122.068256 
L 245.977027 114.997188 
M 238.905959 114.997188 
L 245.977027 122.068256 
" clip-path="url(#p45061281ed)" style="fill: #35b779; stroke: #35b779; stroke-width: 1.5"/>
    <path d="M 507.077929 304.413953 
L 514.148996 297.342885 
M 507.077929 297.342885 
L 514.148996 304.413953 
" clip-path="url(#p45061281ed)" style="fill: #440154; stroke: #440154; stroke-width: 1.5"/>
    <path d="M 202.50919 245.008078 
L 209.580258 237.937011 
M 202.50919 237.937011 
L 209.580258 245.008078 
" clip-path="url(#p45061281ed)" style="fill: #fde725; stroke: #fde725; stroke-width: 1.5"/>
    <path d="M 543.124642 331.152717 
L 550.195709 324.081649 
M 543.124642 324.081649 
L 550.195709 331.152717 
" clip-path="url(#p45061281ed)" style="fill: #440154; stroke: #440154; stroke-width: 1.5"/>
    <path d="M 284.120734 120.624198 
L 291.191802 113.553131 
M 284.120734 113.553131 
L 291.191802 120.624198 
" clip-path="url(#p45061281ed)" style="fill: #35b779; stroke: #35b779; stroke-width: 1.5"/>
    <path d="M 484.493146 327.12991 
L 491.564214 320.058842 
M 484.493146 320.058842 
L 491.564214 327.12991 
" clip-path="url(#p45061281ed)" style="fill: #440154; stroke: #440154; stroke-width: 1.5"/>
    <path d="M 489.09958 287.994703 
L 496.170648 280.923635 
M 489.09958 280.923635 
L 496.170648 287.994703 
" clip-path="url(#p45061281ed)" style="fill: #440154; stroke: #440154; stroke-width: 1.5"/>
    <path d="M 267.39377 264.92068 
L 274.464838 257.849612 
M 267.39377 257.849612 
L 274.464838 264.92068 
" clip-path="url(#p45061281ed)" style="fill: #fde725; stroke: #fde725; stroke-width: 1.5"/>
    <path d="M 350.067958 114.859629 
L 357.139025 107.788561 
M 350.067958 107.788561 
L 357.139025 114.859629 
" clip-path="url(#p45061281ed)" style="fill: #35b779; stroke: #35b779; stroke-width: 1.5"/>
    <path d="M 265.052652 290.398377 
L 272.12372 283.32731 
M 265.052652 283.32731 
L 272.12372 290.398377 
" clip-path="url(#p45061281ed)" style="fill: #fde725; stroke: #fde725; stroke-width: 1.5"/>
    <path d="M 213.596035 117.278997 
L 220.667102 110.20793 
M 213.596035 110.20793 
L 220.667102 117.278997 
" clip-path="url(#p45061281ed)" style="fill: #35b779; stroke: #35b779; stroke-width: 1.5"/>
    <path d="M 460.966888 321.892148 
L 468.037956 314.82108 
M 460.966888 314.82108 
L 468.037956 321.892148 
" clip-path="url(#p45061281ed)" style="fill: #440154; stroke: #440154; stroke-width: 1.5"/>
    <path d="M 178.749235 130.105549 
L 185.820303 123.034481 
M 178.749235 123.034481 
L 185.820303 130.105549 
" clip-path="url(#p45061281ed)" style="fill: #35b779; stroke: #35b779; stroke-width: 1.5"/>
    <path d="M 397.483259 219.758577 
L 404.554327 212.687509 
M 397.483259 212.687509 
L 404.554327 219.758577 
" clip-path="url(#p45061281ed)" style="fill: #31688e; stroke: #31688e; stroke-width: 1.5"/>
    <path d="M 233.4232 70.495534 
L 240.494267 63.424466 
M 233.4232 63.424466 
L 240.494267 70.495534 
" clip-path="url(#p45061281ed)" style="fill: #35b779; stroke: #35b779; stroke-width: 1.5"/>
    <path d="M 272.996019 260.975495 
L 280.067087 253.904428 
M 272.996019 253.904428 
L 280.067087 260.975495 
" clip-path="url(#p45061281ed)" style="fill: #fde725; stroke: #fde725; stroke-width: 1.5"/>
    <path d="M 190.148905 256.355156 
L 197.219973 249.284089 
M 190.148905 249.284089 
L 197.219973 256.355156 
" clip-path="url(#p45061281ed)" style="fill: #fde725; stroke: #fde725; stroke-width: 1.5"/>
    <path d="M 261.525379 266.060033 
L 268.596447 258.988966 
M 261.525379 258.988966 
L 268.596447 266.060033 
" clip-path="url(#p45061281ed)" style="fill: #fde725; stroke: #fde725; stroke-width: 1.5"/>
    <path d="M 163.197592 123.794729 
L 170.26866 116.723661 
M 163.197592 116.723661 
L 170.26866 123.794729 
" clip-path="url(#p45061281ed)" style="fill: #35b779; stroke: #35b779; stroke-width: 1.5"/>
    <path d="M 536.513477 321.237497 
L 543.584545 314.166429 
M 536.513477 314.166429 
L 543.584545 321.237497 
" clip-path="url(#p45061281ed)" style="fill: #440154; stroke: #440154; stroke-width: 1.5"/>
    <path d="M 147.062335 113.68727 
L 154.133403 106.616202 
M 147.062335 106.616202 
L 154.133403 113.68727 
" clip-path="url(#p45061281ed)" style="fill: #35b779; stroke: #35b779; stroke-width: 1.5"/>
    <path d="M 237.501376 253.122807 
L 244.572444 246.051739 
M 237.501376 246.051739 
L 244.572444 253.122807 
" clip-path="url(#p45061281ed)" style="fill: #fde725; stroke: #fde725; stroke-width: 1.5"/>
    <path d="M 455.522005 224.094314 
L 462.593073 217.023246 
M 455.522005 217.023246 
L 462.593073 224.094314 
" clip-path="url(#p45061281ed)" style="fill: #31688e; stroke: #31688e; stroke-width: 1.5"/>
    <path d="M 315.597551 249.680202 
L 322.668618 242.609134 
M 315.597551 242.609134 
L 322.668618 249.680202 
" clip-path="url(#p45061281ed)" style="fill: #fde725; stroke: #fde725; stroke-width: 1.5"/>
    <path d="M 273.073688 107.207003 
L 280.144756 100.135935 
M 273.073688 100.135935 
L 280.144756 107.207003 
" clip-path="url(#p45061281ed)" style="fill: #35b779; stroke: #35b779; stroke-width: 1.5"/>
    <path d="M 229.168436 260.343042 
L 236.239503 253.271974 
M 229.168436 253.271974 
L 236.239503 260.343042 
" clip-path="url(#p45061281ed)" style="fill: #fde725; stroke: #fde725; stroke-width: 1.5"/>
    <path d="M 236.997302 291.952836 
L 244.06837 284.881768 
M 236.997302 284.881768 
L 244.06837 291.952836 
" clip-path="url(#p45061281ed)" style="fill: #fde725; stroke: #fde725; stroke-width: 1.5"/>
    <path d="M 292.542951 95.467034 
L 299.614019 88.395966 
M 292.542951 88.395966 
L 299.614019 95.467034 
" clip-path="url(#p45061281ed)" style="fill: #35b779; stroke: #35b779; stroke-width: 1.5"/>
    <path d="M 217.347811 260.335849 
L 224.418879 253.264781 
M 217.347811 253.264781 
L 224.418879 260.335849 
" clip-path="url(#p45061281ed)" style="fill: #fde725; stroke: #fde725; stroke-width: 1.5"/>
    <path d="M 445.304314 207.57553 
L 452.375382 200.504462 
M 445.304314 200.504462 
L 452.375382 207.57553 
" clip-path="url(#p45061281ed)" style="fill: #31688e; stroke: #31688e; stroke-width: 1.5"/>
    <path d="M 518.792814 328.599776 
L 525.863881 321.528708 
M 518.792814 321.528708 
L 525.863881 328.599776 
" clip-path="url(#p45061281ed)" style="fill: #440154; stroke: #440154; stroke-width: 1.5"/>
    <path d="M 273.211838 102.916013 
L 280.282906 95.844946 
M 273.211838 95.844946 
L 280.282906 102.916013 
" clip-path="url(#p45061281ed)" style="fill: #35b779; stroke: #35b779; stroke-width: 1.5"/>
    <path d="M 450.301436 347.150153 
L 457.372504 340.079085 
M 450.301436 340.079085 
L 457.372504 347.150153 
" clip-path="url(#p45061281ed)" style="fill: #440154; stroke: #440154; stroke-width: 1.5"/>
    <path d="M 399.339618 226.882902 
L 406.410686 219.811834 
M 399.339618 219.811834 
L 406.410686 226.882902 
" clip-path="url(#p45061281ed)" style="fill: #31688e; stroke: #31688e; stroke-width: 1.5"/>
    <path d="M 452.222333 318.012204 
L 459.293401 310.941136 
M 452.222333 310.941136 
L 459.293401 318.012204 
" clip-path="url(#p45061281ed)" style="fill: #440154; stroke: #440154; stroke-width: 1.5"/>
    <path d="M 487.019661 315.321898 
L 494.090729 308.25083 
M 487.019661 308.25083 
L 494.090729 315.321898 
" clip-path="url(#p45061281ed)" style="fill: #440154; stroke: #440154; stroke-width: 1.5"/>
    <path d="M 279.889838 95.132399 
L 286.960906 88.061331 
M 279.889838 88.061331 
L 286.960906 95.132399 
" clip-path="url(#p45061281ed)" style="fill: #35b779; stroke: #35b779; stroke-width: 1.5"/>
    <path d="M 425.603896 189.397456 
L 432.674964 182.326388 
M 425.603896 182.326388 
L 432.674964 189.397456 
" clip-path="url(#p45061281ed)" style="fill: #31688e; stroke: #31688e; stroke-width: 1.5"/>
    <path d="M 536.484973 325.931446 
L 543.556041 318.860378 
M 536.484973 318.860378 
L 543.556041 325.931446 
" clip-path="url(#p45061281ed)" style="fill: #440154; stroke: #440154; stroke-width: 1.5"/>
    <path d="M 386.418126 200.164633 
L 393.489193 193.093565 
M 386.418126 193.093565 
L 393.489193 200.164633 
" clip-path="url(#p45061281ed)" style="fill: #31688e; stroke: #31688e; stroke-width: 1.5"/>
    <path d="M 194.941994 149.5996 
L 202.013062 142.528533 
M 194.941994 142.528533 
L 202.013062 149.5996 
" clip-path="url(#p45061281ed)" style="fill: #35b779; stroke: #35b779; stroke-width: 1.5"/>
    <path d="M 240.631675 124.549713 
L 247.702742 117.478646 
M 240.631675 117.478646 
L 247.702742 124.549713 
" clip-path="url(#p45061281ed)" style="fill: #35b779; stroke: #35b779; stroke-width: 1.5"/>
    <path d="M 394.215902 235.25535 
L 401.28697 228.184282 
M 394.215902 228.184282 
L 401.28697 235.25535 
" clip-path="url(#p45061281ed)" style="fill: #31688e; stroke: #31688e; stroke-width: 1.5"/>
    <path d="M 491.071439 322.518431 
L 498.142506 315.447364 
M 491.071439 315.447364 
L 498.142506 322.518431 
" clip-path="url(#p45061281ed)" style="fill: #440154; stroke: #440154; stroke-width: 1.5"/>
    <path d="M 202.043185 90.556039 
L 209.114253 83.484971 
M 202.043185 83.484971 
L 209.114253 90.556039 
" clip-path="url(#p45061281ed)" style="fill: #35b779; stroke: #35b779; stroke-width: 1.5"/>
    <path d="M 218.284387 259.210026 
L 225.355455 252.138958 
M 218.284387 252.138958 
L 225.355455 259.210026 
" clip-path="url(#p45061281ed)" style="fill: #fde725; stroke: #fde725; stroke-width: 1.5"/>
    <path d="M 262.046471 255.72614 
L 269.117539 248.655073 
M 262.046471 248.655073 
L 269.117539 255.72614 
" clip-path="url(#p45061281ed)" style="fill: #fde725; stroke: #fde725; stroke-width: 1.5"/>
    <path d="M 443.295397 235.754724 
L 450.366465 228.683656 
M 443.295397 228.683656 
L 450.366465 235.754724 
" clip-path="url(#p45061281ed)" style="fill: #31688e; stroke: #31688e; stroke-width: 1.5"/>
    <path d="M 458.56358 308.728841 
L 465.634648 301.657774 
M 458.56358 301.657774 
L 465.634648 308.728841 
" clip-path="url(#p45061281ed)" style="fill: #440154; stroke: #440154; stroke-width: 1.5"/>
    <path d="M 554.435968 317.10639 
L 561.507036 310.035322 
M 554.435968 310.035322 
L 561.507036 317.10639 
" clip-path="url(#p45061281ed)" style="fill: #440154; stroke: #440154; stroke-width: 1.5"/>
    <path d="M 374.341005 185.239584 
L 381.412073 178.168516 
M 374.341005 178.168516 
L 381.412073 185.239584 
" clip-path="url(#p45061281ed)" style="fill: #31688e; stroke: #31688e; stroke-width: 1.5"/>
    <path d="M 111.828102 251.091836 
L 118.89917 244.020768 
M 111.828102 244.020768 
L 118.89917 251.091836 
" clip-path="url(#p45061281ed)" style="fill: #fde725; stroke: #fde725; stroke-width: 1.5"/>
    <path d="M 307.801829 90.617539 
L 314.872897 83.546471 
M 307.801829 83.546471 
L 314.872897 90.617539 
" clip-path="url(#p45061281ed)" style="fill: #35b779; stroke: #35b779; stroke-width: 1.5"/>
    <path d="M 482.34487 362.979452 
L 489.415938 355.908384 
M 482.34487 355.908384 
L 489.415938 362.979452 
" clip-path="url(#p45061281ed)" style="fill: #440154; stroke: #440154; stroke-width: 1.5"/>
    <path d="M 300.479674 118.88607 
L 307.550742 111.815002 
M 300.479674 111.815002 
L 307.550742 118.88607 
" clip-path="url(#p45061281ed)" style="fill: #35b779; stroke: #35b779; stroke-width: 1.5"/>
    <path d="M 536.382354 333.23037 
L 543.453421 326.159302 
M 536.382354 326.159302 
L 543.453421 333.23037 
" clip-path="url(#p45061281ed)" style="fill: #440154; stroke: #440154; stroke-width: 1.5"/>
    <path d="M 434.658387 213.075047 
L 441.729455 206.003979 
M 434.658387 206.003979 
L 441.729455 213.075047 
" clip-path="url(#p45061281ed)" style="fill: #31688e; stroke: #31688e; stroke-width: 1.5"/>
    <path d="M 525.49206 311.840843 
L 532.563128 304.769775 
M 525.49206 304.769775 
L 532.563128 311.840843 
" clip-path="url(#p45061281ed)" style="fill: #440154; stroke: #440154; stroke-width: 1.5"/>
    <path d="M 541.906655 352.029538 
L 548.977723 344.95847 
M 541.906655 344.95847 
L 548.977723 352.029538 
" clip-path="url(#p45061281ed)" style="fill: #440154; stroke: #440154; stroke-width: 1.5"/>
    <path d="M 457.261351 203.682085 
L 464.332419 196.611017 
M 457.261351 196.611017 
L 464.332419 203.682085 
" clip-path="url(#p45061281ed)" style="fill: #31688e; stroke: #31688e; stroke-width: 1.5"/>
    <path d="M 251.625899 144.039757 
L 258.696967 136.968689 
M 251.625899 136.968689 
L 258.696967 144.039757 
" clip-path="url(#p45061281ed)" style="fill: #35b779; stroke: #35b779; stroke-width: 1.5"/>
    <path d="M 429.257249 188.087906 
L 436.328317 181.016838 
M 429.257249 181.016838 
L 436.328317 188.087906 
" clip-path="url(#p45061281ed)" style="fill: #31688e; stroke: #31688e; stroke-width: 1.5"/>
    <path d="M 271.081373 283.41541 
L 278.152441 276.344343 
M 271.081373 276.344343 
L 278.152441 283.41541 
" clip-path="url(#p45061281ed)" style="fill: #fde725; stroke: #fde725; stroke-width: 1.5"/>
    <path d="M 229.001658 242.579873 
L 236.072725 235.508805 
M 229.001658 235.508805 
L 236.072725 242.579873 
" clip-path="url(#p45061281ed)" style="fill: #fde725; stroke: #fde725; stroke-width: 1.5"/>
    <path d="M 474.931079 335.284435 
L 482.002147 328.213368 
M 474.931079 328.213368 
L 482.002147 335.284435 
" clip-path="url(#p45061281ed)" style="fill: #440154; stroke: #440154; stroke-width: 1.5"/>
    <path d="M 184.817409 106.519377 
L 191.888477 99.448309 
M 184.817409 99.448309 
L 191.888477 106.519377 
" clip-path="url(#p45061281ed)" style="fill: #35b779; stroke: #35b779; stroke-width: 1.5"/>
    <path d="M 495.077826 327.156225 
L 502.148894 320.085158 
M 495.077826 320.085158 
L 502.148894 327.156225 
" clip-path="url(#p45061281ed)" style="fill: #440154; stroke: #440154; stroke-width: 1.5"/>
    <path d="M 516.142098 244.668231 
L 523.213165 237.597164 
M 516.142098 237.597164 
L 523.213165 244.668231 
" clip-path="url(#p45061281ed)" style="fill: #31688e; stroke: #31688e; stroke-width: 1.5"/>
    <path d="M 226.197548 123.339349 
L 233.268616 116.268281 
M 226.197548 116.268281 
L 233.268616 123.339349 
" clip-path="url(#p45061281ed)" style="fill: #35b779; stroke: #35b779; stroke-width: 1.5"/>
    <path d="M 438.763503 311.813118 
L 445.834571 304.74205 
M 438.763503 304.74205 
L 445.834571 311.813118 
" clip-path="url(#p45061281ed)" style="fill: #440154; stroke: #440154; stroke-width: 1.5"/>
    <path d="M 477.893355 294.973602 
L 484.964423 287.902534 
M 477.893355 287.902534 
L 484.964423 294.973602 
" clip-path="url(#p45061281ed)" style="fill: #440154; stroke: #440154; stroke-width: 1.5"/>
    <path d="M 388.812036 185.84547 
L 395.883104 178.774402 
M 388.812036 178.774402 
L 395.883104 185.84547 
" clip-path="url(#p45061281ed)" style="fill: #31688e; stroke: #31688e; stroke-width: 1.5"/>
    <path d="M 311.673026 259.074176 
L 318.744094 252.003108 
M 311.673026 252.003108 
L 318.744094 259.074176 
" clip-path="url(#p45061281ed)" style="fill: #fde725; stroke: #fde725; stroke-width: 1.5"/>
    <path d="M 483.06545 331.519383 
L 490.136518 324.448315 
M 483.06545 324.448315 
L 490.136518 331.519383 
" clip-path="url(#p45061281ed)" style="fill: #440154; stroke: #440154; stroke-width: 1.5"/>
    <path d="M 275.009827 241.43589 
L 282.080895 234.364822 
M 275.009827 234.364822 
L 282.080895 241.43589 
" clip-path="url(#p45061281ed)" style="fill: #fde725; stroke: #fde725; stroke-width: 1.5"/>
    <path d="M 457.047483 331.985029 
L 464.118551 324.913961 
M 457.047483 324.913961 
L 464.118551 331.985029 
" clip-path="url(#p45061281ed)" style="fill: #440154; stroke: #440154; stroke-width: 1.5"/>
    <path d="M 463.710325 300.965782 
L 470.781393 293.894714 
M 463.710325 293.894714 
L 470.781393 300.965782 
" clip-path="url(#p45061281ed)" style="fill: #440154; stroke: #440154; stroke-width: 1.5"/>
    <path d="M 511.416961 315.988128 
L 518.488029 308.91706 
M 511.416961 308.91706 
L 518.488029 315.988128 
" clip-path="url(#p45061281ed)" style="fill: #440154; stroke: #440154; stroke-width: 1.5"/>
    <path d="M 482.631665 330.00711 
L 489.702733 322.936042 
M 482.631665 322.936042 
L 489.702733 330.00711 
" clip-path="url(#p45061281ed)" style="fill: #440154; stroke: #440154; stroke-width: 1.5"/>
    <path d="M 248.216547 279.971131 
L 255.287614 272.900064 
M 248.216547 272.900064 
L 255.287614 279.971131 
" clip-path="url(#p45061281ed)" style="fill: #fde725; stroke: #fde725; stroke-width: 1.5"/>
    <path d="M 440.718725 321.691784 
L 447.789793 314.620716 
M 440.718725 314.620716 
L 447.789793 321.691784 
" clip-path="url(#p45061281ed)" style="fill: #440154; stroke: #440154; stroke-width: 1.5"/>
    <path d="M 218.806898 291.226252 
L 225.877965 284.155184 
M 218.806898 284.155184 
L 225.877965 291.226252 
" clip-path="url(#p45061281ed)" style="fill: #fde725; stroke: #fde725; stroke-width: 1.5"/>
    <path d="M 326.965704 104.067154 
L 334.036772 96.996087 
M 326.965704 96.996087 
L 334.036772 104.067154 
" clip-path="url(#p45061281ed)" style="fill: #35b779; stroke: #35b779; stroke-width: 1.5"/>
    <path d="M 226.619088 276.622221 
L 233.690156 269.551154 
M 226.619088 269.551154 
L 233.690156 276.622221 
" clip-path="url(#p45061281ed)" style="fill: #fde725; stroke: #fde725; stroke-width: 1.5"/>
    <path d="M 222.783014 282.406643 
L 229.854081 275.335575 
M 222.783014 275.335575 
L 229.854081 282.406643 
" clip-path="url(#p45061281ed)" style="fill: #fde725; stroke: #fde725; stroke-width: 1.5"/>
    <path d="M 541.215341 351.760535 
L 548.286409 344.689467 
M 541.215341 344.689467 
L 548.286409 351.760535 
" clip-path="url(#p45061281ed)" style="fill: #440154; stroke: #440154; stroke-width: 1.5"/>
    <path d="M 246.566262 133.627616 
L 253.637329 126.556549 
M 246.566262 126.556549 
L 253.637329 133.627616 
" clip-path="url(#p45061281ed)" style="fill: #35b779; stroke: #35b779; stroke-width: 1.5"/>
    <path d="M 256.427555 279.45633 
L 263.498623 272.385263 
M 256.427555 272.385263 
L 263.498623 279.45633 
" clip-path="url(#p45061281ed)" style="fill: #fde725; stroke: #fde725; stroke-width: 1.5"/>
    <path d="M 168.090506 247.589392 
L 175.161574 240.518324 
M 168.090506 240.518324 
L 175.161574 247.589392 
" clip-path="url(#p45061281ed)" style="fill: #fde725; stroke: #fde725; stroke-width: 1.5"/>
    <path d="M 191.520178 124.708409 
L 198.591246 117.637341 
M 191.520178 117.637341 
L 198.591246 124.708409 
" clip-path="url(#p45061281ed)" style="fill: #35b779; stroke: #35b779; stroke-width: 1.5"/>
    <path d="M 391.042762 251.502793 
L 398.11383 244.431726 
M 391.042762 244.431726 
L 398.11383 251.502793 
" clip-path="url(#p45061281ed)" style="fill: #31688e; stroke: #31688e; stroke-width: 1.5"/>
    <path d="M 311.564337 125.463976 
L 318.635405 118.392908 
M 311.564337 118.392908 
L 318.635405 125.463976 
" clip-path="url(#p45061281ed)" style="fill: #35b779; stroke: #35b779; stroke-width: 1.5"/>
    <path d="M 152.841963 106.805016 
L 159.913031 99.733949 
M 152.841963 99.733949 
L 159.913031 106.805016 
" clip-path="url(#p45061281ed)" style="fill: #35b779; stroke: #35b779; stroke-width: 1.5"/>
    <path d="M 272.348552 260.626393 
L 279.41962 253.555325 
M 272.348552 253.555325 
L 279.41962 260.626393 
" clip-path="url(#p45061281ed)" style="fill: #fde725; stroke: #fde725; stroke-width: 1.5"/>
    <path d="M 450.375292 248.07148 
L 457.44636 241.000413 
M 450.375292 241.000413 
L 457.44636 248.07148 
" clip-path="url(#p45061281ed)" style="fill: #31688e; stroke: #31688e; stroke-width: 1.5"/>
    <path d="M 227.889739 221.2924 
L 234.960807 214.221332 
M 227.889739 214.221332 
L 234.960807 221.2924 
" clip-path="url(#p45061281ed)" style="fill: #fde725; stroke: #fde725; stroke-width: 1.5"/>
    <path d="M 497.820103 186.101426 
L 504.89117 179.030358 
M 497.820103 179.030358 
L 504.89117 186.101426 
" clip-path="url(#p45061281ed)" style="fill: #31688e; stroke: #31688e; stroke-width: 1.5"/>
    <path d="M 216.867643 282.973762 
L 223.938711 275.902694 
M 216.867643 275.902694 
L 223.938711 282.973762 
" clip-path="url(#p45061281ed)" style="fill: #fde725; stroke: #fde725; stroke-width: 1.5"/>
    <path d="M 246.424072 130.540836 
L 253.49514 123.469768 
M 246.424072 123.469768 
L 253.49514 130.540836 
" clip-path="url(#p45061281ed)" style="fill: #35b779; stroke: #35b779; stroke-width: 1.5"/>
    <path d="M 353.890517 224.17451 
L 360.961584 217.103442 
M 353.890517 217.103442 
L 360.961584 224.17451 
" clip-path="url(#p45061281ed)" style="fill: #31688e; stroke: #31688e; stroke-width: 1.5"/>
    <path d="M 267.985724 130.101015 
L 275.056792 123.029947 
M 267.985724 123.029947 
L 275.056792 130.101015 
" clip-path="url(#p45061281ed)" style="fill: #35b779; stroke: #35b779; stroke-width: 1.5"/>
    <path d="M 214.588612 121.715833 
L 221.659679 114.644765 
M 214.588612 114.644765 
L 221.659679 121.715833 
" clip-path="url(#p45061281ed)" style="fill: #35b779; stroke: #35b779; stroke-width: 1.5"/>
    <path d="M 236.375292 110.780202 
L 243.44636 103.709134 
M 236.375292 103.709134 
L 243.44636 110.780202 
" clip-path="url(#p45061281ed)" style="fill: #35b779; stroke: #35b779; stroke-width: 1.5"/>
    <path d="M 427.46252 212.599411 
L 434.533587 205.528343 
M 427.46252 205.528343 
L 434.533587 212.599411 
" clip-path="url(#p45061281ed)" style="fill: #31688e; stroke: #31688e; stroke-width: 1.5"/>
    <path d="M 306.777063 160.262659 
L 313.848131 153.191591 
M 306.777063 153.191591 
L 313.848131 160.262659 
" clip-path="url(#p45061281ed)" style="fill: #35b779; stroke: #35b779; stroke-width: 1.5"/>
    <path d="M 370.644487 206.29506 
L 377.715555 199.223992 
M 370.644487 199.223992 
L 377.715555 206.29506 
" clip-path="url(#p45061281ed)" style="fill: #31688e; stroke: #31688e; stroke-width: 1.5"/>
    <path d="M 474.469219 349.311561 
L 481.540287 342.240493 
M 474.469219 342.240493 
L 481.540287 349.311561 
" clip-path="url(#p45061281ed)" style="fill: #440154; stroke: #440154; stroke-width: 1.5"/>
    <path d="M 273.323853 261.943883 
L 280.394921 254.872816 
M 273.323853 254.872816 
L 280.394921 261.943883 
" clip-path="url(#p45061281ed)" style="fill: #fde725; stroke: #fde725; stroke-width: 1.5"/>
    <path d="M 281.960135 106.12713 
L 289.031202 99.056062 
M 281.960135 99.056062 
L 289.031202 106.12713 
" clip-path="url(#p45061281ed)" style="fill: #35b779; stroke: #35b779; stroke-width: 1.5"/>
    <path d="M 207.429393 282.187908 
L 214.50046 275.11684 
M 207.429393 275.11684 
L 214.50046 282.187908 
" clip-path="url(#p45061281ed)" style="fill: #fde725; stroke: #fde725; stroke-width: 1.5"/>
    <path d="M 497.782554 321.07539 
L 504.853622 314.004322 
M 497.782554 314.004322 
L 504.853622 321.07539 
" clip-path="url(#p45061281ed)" style="fill: #440154; stroke: #440154; stroke-width: 1.5"/>
    <path d="M 438.433358 202.699263 
L 445.504426 195.628195 
M 438.433358 195.628195 
L 445.504426 202.699263 
" clip-path="url(#p45061281ed)" style="fill: #31688e; stroke: #31688e; stroke-width: 1.5"/>
    <path d="M 203.86915 99.88135 
L 210.940218 92.810282 
M 203.86915 92.810282 
L 210.940218 99.88135 
" clip-path="url(#p45061281ed)" style="fill: #35b779; stroke: #35b779; stroke-width: 1.5"/>
    <path d="M 405.123893 228.243106 
L 412.194961 221.172038 
M 405.123893 221.172038 
L 412.194961 228.243106 
" clip-path="url(#p45061281ed)" style="fill: #31688e; stroke: #31688e; stroke-width: 1.5"/>
    <path d="M 410.799389 225.791636 
L 417.870457 218.720568 
M 410.799389 218.720568 
L 417.870457 225.791636 
" clip-path="url(#p45061281ed)" style="fill: #31688e; stroke: #31688e; stroke-width: 1.5"/>
    <path d="M 480.09781 295.093448 
L 487.168877 288.02238 
M 480.09781 288.02238 
L 487.168877 295.093448 
" clip-path="url(#p45061281ed)" style="fill: #440154; stroke: #440154; stroke-width: 1.5"/>
    <path d="M 416.335605 205.844277 
L 423.406673 198.773209 
M 416.335605 198.773209 
L 423.406673 205.844277 
" clip-path="url(#p45061281ed)" style="fill: #31688e; stroke: #31688e; stroke-width: 1.5"/>
    <path d="M 149.69259 270.669671 
L 156.763658 263.598603 
M 149.69259 263.598603 
L 156.763658 270.669671 
" clip-path="url(#p45061281ed)" style="fill: #fde725; stroke: #fde725; stroke-width: 1.5"/>
    <path d="M 278.959216 311.506629 
L 286.030284 304.435562 
M 278.959216 304.435562 
L 286.030284 311.506629 
" clip-path="url(#p45061281ed)" style="fill: #fde725; stroke: #fde725; stroke-width: 1.5"/>
    <path d="M 369.823746 202.830029 
L 376.894814 195.758961 
M 369.823746 195.758961 
L 376.894814 202.830029 
" clip-path="url(#p45061281ed)" style="fill: #31688e; stroke: #31688e; stroke-width: 1.5"/>
    <path d="M 464.221177 310.527268 
L 471.292245 303.4562 
M 464.221177 303.4562 
L 471.292245 310.527268 
" clip-path="url(#p45061281ed)" style="fill: #440154; stroke: #440154; stroke-width: 1.5"/>
    <path d="M 447.143495 240.069452 
L 454.214563 232.998384 
M 447.143495 232.998384 
L 454.214563 240.069452 
" clip-path="url(#p45061281ed)" style="fill: #31688e; stroke: #31688e; stroke-width: 1.5"/>
    <path d="M 437.002074 227.587798 
L 444.073141 220.51673 
M 437.002074 220.51673 
L 444.073141 227.587798 
" clip-path="url(#p45061281ed)" style="fill: #31688e; stroke: #31688e; stroke-width: 1.5"/>
    <path d="M 258.469189 100.189295 
L 265.540257 93.118227 
M 258.469189 93.118227 
L 265.540257 100.189295 
" clip-path="url(#p45061281ed)" style="fill: #35b779; stroke: #35b779; stroke-width: 1.5"/>
    <path d="M 467.85394 329.081025 
L 474.925008 322.009957 
M 467.85394 322.009957 
L 474.925008 329.081025 
" clip-path="url(#p45061281ed)" style="fill: #440154; stroke: #440154; stroke-width: 1.5"/>
    <path d="M 499.88601 193.802792 
L 506.957078 186.731724 
M 499.88601 186.731724 
L 506.957078 193.802792 
" clip-path="url(#p45061281ed)" style="fill: #31688e; stroke: #31688e; stroke-width: 1.5"/>
    <path d="M 250.929011 225.5478 
L 258.000079 218.476732 
M 250.929011 218.476732 
L 258.000079 225.5478 
" clip-path="url(#p45061281ed)" style="fill: #fde725; stroke: #fde725; stroke-width: 1.5"/>
    <path d="M 264.357993 112.315257 
L 271.429061 105.244189 
M 264.357993 105.244189 
L 271.429061 112.315257 
" clip-path="url(#p45061281ed)" style="fill: #35b779; stroke: #35b779; stroke-width: 1.5"/>
    <path d="M 544.211953 299.3281 
L 551.28302 292.257032 
M 544.211953 292.257032 
L 551.28302 299.3281 
" clip-path="url(#p45061281ed)" style="fill: #440154; stroke: #440154; stroke-width: 1.5"/>
    <path d="M 531.983659 310.611887 
L 539.054727 303.540819 
M 531.983659 303.540819 
L 539.054727 310.611887 
" clip-path="url(#p45061281ed)" style="fill: #440154; stroke: #440154; stroke-width: 1.5"/>
    <path d="M 397.570124 226.82534 
L 404.641192 219.754272 
M 397.570124 219.754272 
L 404.641192 226.82534 
" clip-path="url(#p45061281ed)" style="fill: #31688e; stroke: #31688e; stroke-width: 1.5"/>
    <path d="M 278.439679 255.901092 
L 285.510747 248.830024 
M 278.439679 248.830024 
L 285.510747 255.901092 
" clip-path="url(#p45061281ed)" style="fill: #fde725; stroke: #fde725; stroke-width: 1.5"/>
    <path d="M 556.256664 321.253221 
L 563.327731 314.182153 
M 556.256664 314.182153 
L 563.327731 321.253221 
" clip-path="url(#p45061281ed)" style="fill: #440154; stroke: #440154; stroke-width: 1.5"/>
    <path d="M 483.461588 223.581999 
L 490.532656 216.510931 
M 483.461588 216.510931 
L 490.532656 223.581999 
" clip-path="url(#p45061281ed)" style="fill: #31688e; stroke: #31688e; stroke-width: 1.5"/>
    <path d="M 181.507484 267.678147 
L 188.578552 260.607079 
M 181.507484 260.607079 
L 188.578552 267.678147 
" clip-path="url(#p45061281ed)" style="fill: #fde725; stroke: #fde725; stroke-width: 1.5"/>
    <path d="M 231.218066 258.531324 
L 238.289134 251.460256 
M 231.218066 251.460256 
L 238.289134 258.531324 
" clip-path="url(#p45061281ed)" style="fill: #fde725; stroke: #fde725; stroke-width: 1.5"/>
    <path d="M 359.580622 212.399716 
L 366.65169 205.328649 
M 359.580622 205.328649 
L 366.65169 212.399716 
" clip-path="url(#p45061281ed)" style="fill: #31688e; stroke: #31688e; stroke-width: 1.5"/>
    <path d="M 464.079737 218.136359 
L 471.150804 211.065291 
M 464.079737 211.065291 
L 471.150804 218.136359 
" clip-path="url(#p45061281ed)" style="fill: #31688e; stroke: #31688e; stroke-width: 1.5"/>
    <path d="M 435.453232 194.075169 
L 442.5243 187.004101 
M 435.453232 187.004101 
L 442.5243 194.075169 
" clip-path="url(#p45061281ed)" style="fill: #31688e; stroke: #31688e; stroke-width: 1.5"/>
    <path d="M 412.6281 217.510292 
L 419.699168 210.439224 
M 412.6281 210.439224 
L 419.699168 217.510292 
" clip-path="url(#p45061281ed)" style="fill: #31688e; stroke: #31688e; stroke-width: 1.5"/>
    <path d="M 544.291782 310.28975 
L 551.36285 303.218682 
M 544.291782 303.218682 
L 551.36285 310.28975 
" clip-path="url(#p45061281ed)" style="fill: #440154; stroke: #440154; stroke-width: 1.5"/>
    <path d="M 219.373818 134.246486 
L 226.444886 127.175418 
M 219.373818 127.175418 
L 226.444886 134.246486 
" clip-path="url(#p45061281ed)" style="fill: #35b779; stroke: #35b779; stroke-width: 1.5"/>
    <path d="M 380.120665 245.972926 
L 387.191732 238.901859 
M 380.120665 238.901859 
L 387.191732 245.972926 
" clip-path="url(#p45061281ed)" style="fill: #31688e; stroke: #31688e; stroke-width: 1.5"/>
    <path d="M 275.840739 264.117809 
L 282.911806 257.046741 
M 275.840739 257.046741 
L 282.911806 264.117809 
" clip-path="url(#p45061281ed)" style="fill: #fde725; stroke: #fde725; stroke-width: 1.5"/>
    <path d="M 431.856264 214.871919 
L 438.927331 207.800851 
M 431.856264 207.800851 
L 438.927331 214.871919 
" clip-path="url(#p45061281ed)" style="fill: #31688e; stroke: #31688e; stroke-width: 1.5"/>
    <path d="M 396.544412 223.035082 
L 403.61548 215.964014 
M 396.544412 215.964014 
L 403.61548 223.035082 
" clip-path="url(#p45061281ed)" style="fill: #31688e; stroke: #31688e; stroke-width: 1.5"/>
    <path d="M 189.480506 288.61467 
L 196.551574 281.543602 
M 189.480506 281.543602 
L 196.551574 288.61467 
" clip-path="url(#p45061281ed)" style="fill: #fde725; stroke: #fde725; stroke-width: 1.5"/>
    <path d="M 247.94163 278.12567 
L 255.012698 271.054602 
M 247.94163 271.054602 
L 255.012698 278.12567 
" clip-path="url(#p45061281ed)" style="fill: #fde725; stroke: #fde725; stroke-width: 1.5"/>
    <path d="M 138.02226 259.805543 
L 145.093328 252.734475 
M 138.02226 252.734475 
L 145.093328 259.805543 
" clip-path="url(#p45061281ed)" style="fill: #fde725; stroke: #fde725; stroke-width: 1.5"/>
    <path d="M 481.042294 239.832379 
L 488.113362 232.761311 
M 481.042294 232.761311 
L 488.113362 239.832379 
" clip-path="url(#p45061281ed)" style="fill: #31688e; stroke: #31688e; stroke-width: 1.5"/>
    <path d="M 203.291563 283.960638 
L 210.36263 276.889571 
M 203.291563 276.889571 
L 210.36263 283.960638 
" clip-path="url(#p45061281ed)" style="fill: #fde725; stroke: #fde725; stroke-width: 1.5"/>
    <path d="M 212.936645 109.755267 
L 220.007713 102.6842 
M 212.936645 102.6842 
L 220.007713 109.755267 
" clip-path="url(#p45061281ed)" style="fill: #35b779; stroke: #35b779; stroke-width: 1.5"/>
    <path d="M 446.234992 240.183913 
L 453.30606 233.112845 
M 446.234992 233.112845 
L 453.30606 240.183913 
" clip-path="url(#p45061281ed)" style="fill: #31688e; stroke: #31688e; stroke-width: 1.5"/>
    <path d="M 278.33096 251.52689 
L 285.402027 244.455823 
M 278.33096 244.455823 
L 285.402027 251.52689 
" clip-path="url(#p45061281ed)" style="fill: #fde725; stroke: #fde725; stroke-width: 1.5"/>
    <path d="M 497.869464 353.095695 
L 504.940532 346.024627 
M 497.869464 346.024627 
L 504.940532 353.095695 
" clip-path="url(#p45061281ed)" style="fill: #440154; stroke: #440154; stroke-width: 1.5"/>
    <path d="M 213.544869 287.622882 
L 220.615937 280.551814 
M 213.544869 280.551814 
L 220.615937 287.622882 
" clip-path="url(#p45061281ed)" style="fill: #fde725; stroke: #fde725; stroke-width: 1.5"/>
    <path d="M 447.437415 232.698128 
L 454.508483 225.627061 
M 447.437415 225.627061 
L 454.508483 232.698128 
" clip-path="url(#p45061281ed)" style="fill: #31688e; stroke: #31688e; stroke-width: 1.5"/>
    <path d="M 238.546683 169.055104 
L 245.617751 161.984036 
M 238.546683 161.984036 
L 245.617751 169.055104 
" clip-path="url(#p45061281ed)" style="fill: #35b779; stroke: #35b779; stroke-width: 1.5"/>
    <path d="M 232.345709 263.976934 
L 239.416776 256.905866 
M 232.345709 256.905866 
L 239.416776 263.976934 
" clip-path="url(#p45061281ed)" style="fill: #fde725; stroke: #fde725; stroke-width: 1.5"/>
    <path d="M 300.214023 88.553652 
L 307.28509 81.482584 
M 300.214023 81.482584 
L 307.28509 88.553652 
" clip-path="url(#p45061281ed)" style="fill: #35b779; stroke: #35b779; stroke-width: 1.5"/>
    <path d="M 436.503186 208.867276 
L 443.574254 201.796208 
M 436.503186 201.796208 
L 443.574254 208.867276 
" clip-path="url(#p45061281ed)" style="fill: #31688e; stroke: #31688e; stroke-width: 1.5"/>
    <path d="M 277.806237 147.091928 
L 284.877305 140.02086 
M 277.806237 140.02086 
L 284.877305 147.091928 
" clip-path="url(#p45061281ed)" style="fill: #35b779; stroke: #35b779; stroke-width: 1.5"/>
    <path d="M 459.962354 212.976237 
L 467.033422 205.905169 
M 459.962354 205.905169 
L 467.033422 212.976237 
" clip-path="url(#p45061281ed)" style="fill: #31688e; stroke: #31688e; stroke-width: 1.5"/>
    <path d="M 226.359275 269.168788 
L 233.430343 262.09772 
M 226.359275 262.09772 
L 233.430343 269.168788 
" clip-path="url(#p45061281ed)" style="fill: #fde725; stroke: #fde725; stroke-width: 1.5"/>
    <path d="M 353.134227 211.97738 
L 360.205295 204.906312 
M 353.134227 204.906312 
L 360.205295 211.97738 
" clip-path="url(#p45061281ed)" style="fill: #31688e; stroke: #31688e; stroke-width: 1.5"/>
    <path d="M 485.851534 198.623322 
L 492.922602 191.552254 
M 485.851534 191.552254 
L 492.922602 198.623322 
" clip-path="url(#p45061281ed)" style="fill: #31688e; stroke: #31688e; stroke-width: 1.5"/>
    <path d="M 244.612755 117.345004 
L 251.683823 110.273936 
M 244.612755 110.273936 
L 251.683823 117.345004 
" clip-path="url(#p45061281ed)" style="fill: #35b779; stroke: #35b779; stroke-width: 1.5"/>
    <path d="M 298.514773 274.488033 
L 305.585841 267.416966 
M 298.514773 267.416966 
L 305.585841 274.488033 
" clip-path="url(#p45061281ed)" style="fill: #fde725; stroke: #fde725; stroke-width: 1.5"/>
    <path d="M 284.780303 270.22571 
L 291.85137 263.154642 
M 284.780303 263.154642 
L 291.85137 270.22571 
" clip-path="url(#p45061281ed)" style="fill: #fde725; stroke: #fde725; stroke-width: 1.5"/>
    <path d="M 506.724228 335.115224 
L 513.795296 328.044156 
M 506.724228 328.044156 
L 513.795296 335.115224 
" clip-path="url(#p45061281ed)" style="fill: #440154; stroke: #440154; stroke-width: 1.5"/>
    <path d="M 581.545833 360.209358 
L 588.616901 353.138291 
M 581.545833 353.138291 
L 588.616901 360.209358 
" clip-path="url(#p45061281ed)" style="fill: #440154; stroke: #440154; stroke-width: 1.5"/>
    <path d="M 386.674415 219.395386 
L 393.745483 212.324319 
M 386.674415 212.324319 
L 393.745483 219.395386 
" clip-path="url(#p45061281ed)" style="fill: #31688e; stroke: #31688e; stroke-width: 1.5"/>
    <path d="M 208.966626 120.372943 
L 216.037694 113.301876 
M 208.966626 113.301876 
L 216.037694 120.372943 
" clip-path="url(#p45061281ed)" style="fill: #35b779; stroke: #35b779; stroke-width: 1.5"/>
    <path d="M 548.689691 331.255623 
L 555.760758 324.184555 
M 548.689691 324.184555 
L 555.760758 331.255623 
" clip-path="url(#p45061281ed)" style="fill: #440154; stroke: #440154; stroke-width: 1.5"/>
    <path d="M 511.078 336.159803 
L 518.149068 329.088735 
M 511.078 329.088735 
L 518.149068 336.159803 
" clip-path="url(#p45061281ed)" style="fill: #440154; stroke: #440154; stroke-width: 1.5"/>
    <path d="M 153.737408 253.897444 
L 160.808476 246.826377 
M 153.737408 246.826377 
L 160.808476 253.897444 
" clip-path="url(#p45061281ed)" style="fill: #fde725; stroke: #fde725; stroke-width: 1.5"/>
    <path d="M 478.541314 347.811836 
L 485.612382 340.740768 
M 478.541314 340.740768 
L 485.612382 347.811836 
" clip-path="url(#p45061281ed)" style="fill: #440154; stroke: #440154; stroke-width: 1.5"/>
    <path d="M 153.150589 255.620923 
L 160.221656 248.549855 
M 153.150589 248.549855 
L 160.221656 255.620923 
" clip-path="url(#p45061281ed)" style="fill: #fde725; stroke: #fde725; stroke-width: 1.5"/>
    <path d="M 387.579736 256.098256 
L 394.650804 249.027188 
M 387.579736 249.027188 
L 394.650804 256.098256 
" clip-path="url(#p45061281ed)" style="fill: #31688e; stroke: #31688e; stroke-width: 1.5"/>
    <path d="M 317.955869 129.987237 
L 325.026937 122.916169 
M 317.955869 122.916169 
L 325.026937 129.987237 
" clip-path="url(#p45061281ed)" style="fill: #35b779; stroke: #35b779; stroke-width: 1.5"/>
    <path d="M 265.999121 114.96811 
L 273.070188 107.897042 
M 265.999121 107.897042 
L 273.070188 114.96811 
" clip-path="url(#p45061281ed)" style="fill: #35b779; stroke: #35b779; stroke-width: 1.5"/>
    <path d="M 517.988285 193.601361 
L 525.059353 186.530293 
M 517.988285 186.530293 
L 525.059353 193.601361 
" clip-path="url(#p45061281ed)" style="fill: #31688e; stroke: #31688e; stroke-width: 1.5"/>
    <path d="M 430.893128 223.713067 
L 437.964196 216.641999 
M 430.893128 216.641999 
L 437.964196 223.713067 
" clip-path="url(#p45061281ed)" style="fill: #31688e; stroke: #31688e; stroke-width: 1.5"/>
    <path d="M 245.523319 86.640934 
L 252.594387 79.569866 
M 245.523319 79.569866 
L 252.594387 86.640934 
" clip-path="url(#p45061281ed)" style="fill: #35b779; stroke: #35b779; stroke-width: 1.5"/>
    <path d="M 409.579519 233.829232 
L 416.650587 226.758164 
M 409.579519 226.758164 
L 416.650587 233.829232 
" clip-path="url(#p45061281ed)" style="fill: #31688e; stroke: #31688e; stroke-width: 1.5"/>
    <path d="M 422.369621 319.425475 
L 429.440689 312.354408 
M 422.369621 312.354408 
L 429.440689 319.425475 
" clip-path="url(#p45061281ed)" style="fill: #440154; stroke: #440154; stroke-width: 1.5"/>
    <path d="M 267.611092 261.97136 
L 274.68216 254.900292 
M 267.611092 254.900292 
L 274.68216 261.97136 
" clip-path="url(#p45061281ed)" style="fill: #fde725; stroke: #fde725; stroke-width: 1.5"/>
    <path d="M 414.315067 219.319192 
L 421.386135 212.248124 
M 414.315067 212.248124 
L 421.386135 219.319192 
" clip-path="url(#p45061281ed)" style="fill: #31688e; stroke: #31688e; stroke-width: 1.5"/>
    <path d="M 506.04143 328.210898 
L 513.112497 321.13983 
M 506.04143 321.13983 
L 513.112497 328.210898 
" clip-path="url(#p45061281ed)" style="fill: #440154; stroke: #440154; stroke-width: 1.5"/>
    <path d="M 256.6927 257.000137 
L 263.763767 249.929069 
M 256.6927 249.929069 
L 263.763767 257.000137 
" clip-path="url(#p45061281ed)" style="fill: #fde725; stroke: #fde725; stroke-width: 1.5"/>
    <path d="M 269.941889 82.589065 
L 277.012957 75.517998 
M 269.941889 75.517998 
L 277.012957 82.589065 
" clip-path="url(#p45061281ed)" style="fill: #35b779; stroke: #35b779; stroke-width: 1.5"/>
    <path d="M 208.79076 257.166096 
L 215.861827 250.095028 
M 208.79076 250.095028 
L 215.861827 257.166096 
" clip-path="url(#p45061281ed)" style="fill: #fde725; stroke: #fde725; stroke-width: 1.5"/>
    <path d="M 567.327338 317.111366 
L 574.398406 310.040298 
M 567.327338 310.040298 
L 574.398406 317.111366 
" clip-path="url(#p45061281ed)" style="fill: #440154; stroke: #440154; stroke-width: 1.5"/>
    <path d="M 374.710952 204.068122 
L 381.78202 196.997054 
M 374.710952 196.997054 
L 381.78202 204.068122 
" clip-path="url(#p45061281ed)" style="fill: #31688e; stroke: #31688e; stroke-width: 1.5"/>
    <path d="M 617.031177 323.597021 
L 624.102244 316.525953 
M 617.031177 316.525953 
L 624.102244 323.597021 
" clip-path="url(#p45061281ed)" style="fill: #440154; stroke: #440154; stroke-width: 1.5"/>
    <path d="M 231.034097 122.552181 
L 238.105165 115.481113 
M 231.034097 115.481113 
L 238.105165 122.552181 
" clip-path="url(#p45061281ed)" style="fill: #35b779; stroke: #35b779; stroke-width: 1.5"/>
    <path d="M 234.944261 117.96769 
L 242.015329 110.896622 
M 234.944261 110.896622 
L 242.015329 117.96769 
" clip-path="url(#p45061281ed)" style="fill: #35b779; stroke: #35b779; stroke-width: 1.5"/>
    <path d="M 212.187993 128.374824 
L 219.25906 121.303756 
M 212.187993 121.303756 
L 219.25906 128.374824 
" clip-path="url(#p45061281ed)" style="fill: #35b779; stroke: #35b779; stroke-width: 1.5"/>
    <path d="M 222.926964 110.505411 
L 229.998032 103.434343 
M 222.926964 103.434343 
L 229.998032 110.505411 
" clip-path="url(#p45061281ed)" style="fill: #35b779; stroke: #35b779; stroke-width: 1.5"/>
    <path d="M 225.60532 246.147074 
L 232.676387 239.076006 
M 225.60532 239.076006 
L 232.676387 246.147074 
" clip-path="url(#p45061281ed)" style="fill: #fde725; stroke: #fde725; stroke-width: 1.5"/>
    <path d="M 252.410035 259.474401 
L 259.481103 252.403333 
M 252.410035 252.403333 
L 259.481103 259.474401 
" clip-path="url(#p45061281ed)" style="fill: #fde725; stroke: #fde725; stroke-width: 1.5"/>
    <path d="M 296.77387 162.003864 
L 303.844938 154.932796 
M 296.77387 154.932796 
L 303.844938 162.003864 
" clip-path="url(#p45061281ed)" style="fill: #35b779; stroke: #35b779; stroke-width: 1.5"/>
    <path d="M 539.340183 203.27993 
L 546.411251 196.208863 
M 539.340183 196.208863 
L 546.411251 203.27993 
" clip-path="url(#p45061281ed)" style="fill: #31688e; stroke: #31688e; stroke-width: 1.5"/>
    <path d="M 234.477373 259.133753 
L 241.548441 252.062685 
M 234.477373 252.062685 
L 241.548441 259.133753 
" clip-path="url(#p45061281ed)" style="fill: #fde725; stroke: #fde725; stroke-width: 1.5"/>
    <path d="M 468.387444 330.237825 
L 475.458512 323.166758 
M 468.387444 323.166758 
L 475.458512 330.237825 
" clip-path="url(#p45061281ed)" style="fill: #440154; stroke: #440154; stroke-width: 1.5"/>
    <path d="M 393.048502 210.596705 
L 400.11957 203.525637 
M 393.048502 203.525637 
L 400.11957 210.596705 
" clip-path="url(#p45061281ed)" style="fill: #31688e; stroke: #31688e; stroke-width: 1.5"/>
    <path d="M 212.950515 250.838354 
L 220.021583 243.767286 
M 212.950515 243.767286 
L 220.021583 250.838354 
" clip-path="url(#p45061281ed)" style="fill: #fde725; stroke: #fde725; stroke-width: 1.5"/>
    <path d="M 203.46911 232.074857 
L 210.540177 225.003789 
M 203.46911 225.003789 
L 210.540177 232.074857 
" clip-path="url(#p45061281ed)" style="fill: #fde725; stroke: #fde725; stroke-width: 1.5"/>
    <path d="M 305.727747 230.990811 
L 312.798815 223.919743 
M 305.727747 223.919743 
L 312.798815 230.990811 
" clip-path="url(#p45061281ed)" style="fill: #fde725; stroke: #fde725; stroke-width: 1.5"/>
    <path d="M 510.384059 343.924946 
L 517.455126 336.853878 
M 510.384059 336.853878 
L 517.455126 343.924946 
" clip-path="url(#p45061281ed)" style="fill: #440154; stroke: #440154; stroke-width: 1.5"/>
    <path d="M 519.468042 318.641808 
L 526.53911 311.57074 
M 519.468042 311.57074 
L 526.53911 318.641808 
" clip-path="url(#p45061281ed)" style="fill: #440154; stroke: #440154; stroke-width: 1.5"/>
    <path d="M 247.338497 116.038447 
L 254.409565 108.967379 
M 247.338497 108.967379 
L 254.409565 116.038447 
" clip-path="url(#p45061281ed)" style="fill: #35b779; stroke: #35b779; stroke-width: 1.5"/>
    <path d="M 423.981066 212.919602 
L 431.052134 205.848534 
M 423.981066 205.848534 
L 431.052134 212.919602 
" clip-path="url(#p45061281ed)" style="fill: #31688e; stroke: #31688e; stroke-width: 1.5"/>
    <path d="M 379.090673 201.294289 
L 386.161741 194.223221 
M 379.090673 194.223221 
L 386.161741 201.294289 
" clip-path="url(#p45061281ed)" style="fill: #31688e; stroke: #31688e; stroke-width: 1.5"/>
    <path d="M 186.27367 247.22918 
L 193.344738 240.158112 
M 186.27367 240.158112 
L 193.344738 247.22918 
" clip-path="url(#p45061281ed)" style="fill: #fde725; stroke: #fde725; stroke-width: 1.5"/>
    <path d="M 458.967871 330.739243 
L 466.038939 323.668175 
M 458.967871 323.668175 
L 466.038939 330.739243 
" clip-path="url(#p45061281ed)" style="fill: #440154; stroke: #440154; stroke-width: 1.5"/>
    <path d="M 309.115308 105.098705 
L 316.186375 98.027637 
M 309.115308 98.027637 
L 316.186375 105.098705 
" clip-path="url(#p45061281ed)" style="fill: #35b779; stroke: #35b779; stroke-width: 1.5"/>
    <path d="M 275.522027 257.040291 
L 282.593095 249.969223 
M 275.522027 249.969223 
L 282.593095 257.040291 
" clip-path="url(#p45061281ed)" style="fill: #fde725; stroke: #fde725; stroke-width: 1.5"/>
    <path d="M 468.877087 233.73372 
L 475.948154 226.662652 
M 468.877087 226.662652 
L 475.948154 233.73372 
" clip-path="url(#p45061281ed)" style="fill: #31688e; stroke: #31688e; stroke-width: 1.5"/>
    <path d="M 307.619142 118.283385 
L 314.69021 111.212317 
M 307.619142 111.212317 
L 314.69021 118.283385 
" clip-path="url(#p45061281ed)" style="fill: #35b779; stroke: #35b779; stroke-width: 1.5"/>
    <path d="M 408.580385 186.943287 
L 415.651453 179.87222 
M 408.580385 179.87222 
L 415.651453 186.943287 
" clip-path="url(#p45061281ed)" style="fill: #31688e; stroke: #31688e; stroke-width: 1.5"/>
    <path d="M 516.74077 312.308312 
L 523.811838 305.237244 
M 516.74077 305.237244 
L 523.811838 312.308312 
" clip-path="url(#p45061281ed)" style="fill: #440154; stroke: #440154; stroke-width: 1.5"/>
    <path d="M 446.134898 331.741339 
L 453.205965 324.670271 
M 446.134898 324.670271 
L 453.205965 331.741339 
" clip-path="url(#p45061281ed)" style="fill: #440154; stroke: #440154; stroke-width: 1.5"/>
    <path d="M 156.418432 255.046771 
L 163.4895 247.975703 
M 156.418432 247.975703 
L 163.4895 255.046771 
" clip-path="url(#p45061281ed)" style="fill: #fde725; stroke: #fde725; stroke-width: 1.5"/>
    <path d="M 201.817688 276.718721 
L 208.888756 269.647653 
M 201.817688 269.647653 
L 208.888756 276.718721 
" clip-path="url(#p45061281ed)" style="fill: #fde725; stroke: #fde725; stroke-width: 1.5"/>
    <path d="M 534.079252 246.593104 
L 541.15032 239.522036 
M 534.079252 239.522036 
L 541.15032 246.593104 
" clip-path="url(#p45061281ed)" style="fill: #31688e; stroke: #31688e; stroke-width: 1.5"/>
    <path d="M 612.573704 298.701892 
L 619.644772 291.630825 
M 612.573704 291.630825 
L 619.644772 298.701892 
" clip-path="url(#p45061281ed)" style="fill: #440154; stroke: #440154; stroke-width: 1.5"/>
    <path d="M 495.782496 347.659938 
L 502.853564 340.58887 
M 495.782496 340.58887 
L 502.853564 347.659938 
" clip-path="url(#p45061281ed)" style="fill: #440154; stroke: #440154; stroke-width: 1.5"/>
    <path d="M 455.350464 307.588346 
L 462.421532 300.517279 
M 455.350464 300.517279 
L 462.421532 307.588346 
" clip-path="url(#p45061281ed)" style="fill: #440154; stroke: #440154; stroke-width: 1.5"/>
    <path d="M 515.418692 203.973904 
L 522.48976 196.902836 
M 515.418692 196.902836 
L 522.48976 203.973904 
" clip-path="url(#p45061281ed)" style="fill: #31688e; stroke: #31688e; stroke-width: 1.5"/>
    <path d="M 257.152551 104.538915 
L 264.223619 97.467847 
M 257.152551 97.467847 
L 264.223619 104.538915 
" clip-path="url(#p45061281ed)" style="fill: #35b779; stroke: #35b779; stroke-width: 1.5"/>
    <path d="M 209.518442 115.460154 
L 216.589509 108.389086 
M 209.518442 108.389086 
L 216.589509 115.460154 
" clip-path="url(#p45061281ed)" style="fill: #35b779; stroke: #35b779; stroke-width: 1.5"/>
    <path d="M 565.671057 303.340608 
L 572.742125 296.26954 
M 565.671057 296.26954 
L 572.742125 303.340608 
" clip-path="url(#p45061281ed)" style="fill: #440154; stroke: #440154; stroke-width: 1.5"/>
    <path d="M 554.931481 317.079136 
L 562.002549 310.008068 
M 554.931481 310.008068 
L 562.002549 317.079136 
" clip-path="url(#p45061281ed)" style="fill: #440154; stroke: #440154; stroke-width: 1.5"/>
    <path d="M 481.634537 242.629126 
L 488.705605 235.558059 
M 481.634537 235.558059 
L 488.705605 242.629126 
" clip-path="url(#p45061281ed)" style="fill: #31688e; stroke: #31688e; stroke-width: 1.5"/>
    <path d="M 535.114651 324.930387 
L 542.185719 317.859319 
M 535.114651 317.859319 
L 542.185719 324.930387 
" clip-path="url(#p45061281ed)" style="fill: #440154; stroke: #440154; stroke-width: 1.5"/>
    <path d="M 525.194236 324.60622 
L 532.265303 317.535153 
M 525.194236 317.535153 
L 532.265303 324.60622 
" clip-path="url(#p45061281ed)" style="fill: #440154; stroke: #440154; stroke-width: 1.5"/>
    <path d="M 602.954568 315.790568 
L 610.025635 308.7195 
M 602.954568 308.7195 
L 610.025635 315.790568 
" clip-path="url(#p45061281ed)" style="fill: #440154; stroke: #440154; stroke-width: 1.5"/>
    <path d="M 232.741059 131.72802 
L 239.812127 124.656952 
M 232.741059 124.656952 
L 239.812127 131.72802 
" clip-path="url(#p45061281ed)" style="fill: #35b779; stroke: #35b779; stroke-width: 1.5"/>
    <path d="M 303.249413 246.645902 
L 310.320481 239.574834 
M 303.249413 239.574834 
L 310.320481 246.645902 
" clip-path="url(#p45061281ed)" style="fill: #fde725; stroke: #fde725; stroke-width: 1.5"/>
    <path d="M 250.671769 93.595707 
L 257.742837 86.52464 
M 250.671769 86.52464 
L 257.742837 93.595707 
" clip-path="url(#p45061281ed)" style="fill: #35b779; stroke: #35b779; stroke-width: 1.5"/>
    <path d="M 424.202208 232.312965 
L 431.273276 225.241897 
M 424.202208 225.241897 
L 431.273276 232.312965 
" clip-path="url(#p45061281ed)" style="fill: #31688e; stroke: #31688e; stroke-width: 1.5"/>
    <path d="M 530.721094 372.895534 
L 537.792162 365.824466 
M 530.721094 365.824466 
L 537.792162 372.895534 
" clip-path="url(#p45061281ed)" style="fill: #440154; stroke: #440154; stroke-width: 1.5"/>
    <path d="M 493.673528 316.152361 
L 500.744596 309.081293 
M 493.673528 309.081293 
L 500.744596 316.152361 
" clip-path="url(#p45061281ed)" style="fill: #440154; stroke: #440154; stroke-width: 1.5"/>
    <path d="M 266.657019 135.876238 
L 273.728087 128.80517 
M 266.657019 128.80517 
L 273.728087 135.876238 
" clip-path="url(#p45061281ed)" style="fill: #35b779; stroke: #35b779; stroke-width: 1.5"/>
    <path d="M 225.294073 90.62072 
L 232.365141 83.549652 
M 225.294073 83.549652 
L 232.365141 90.62072 
" clip-path="url(#p45061281ed)" style="fill: #35b779; stroke: #35b779; stroke-width: 1.5"/>
    <path d="M 254.631731 110.072969 
L 261.702799 103.001901 
M 254.631731 103.001901 
L 261.702799 110.072969 
" clip-path="url(#p45061281ed)" style="fill: #35b779; stroke: #35b779; stroke-width: 1.5"/>
    <path d="M 505.899032 302.306499 
L 512.9701 295.235432 
M 505.899032 295.235432 
L 512.9701 302.306499 
" clip-path="url(#p45061281ed)" style="fill: #440154; stroke: #440154; stroke-width: 1.5"/>
    <path d="M 548.015202 307.96497 
L 555.08627 300.893902 
M 548.015202 300.893902 
L 555.08627 307.96497 
" clip-path="url(#p45061281ed)" style="fill: #440154; stroke: #440154; stroke-width: 1.5"/>
    <path d="M 387.223372 213.347453 
L 394.294439 206.276386 
M 387.223372 206.276386 
L 394.294439 213.347453 
" clip-path="url(#p45061281ed)" style="fill: #31688e; stroke: #31688e; stroke-width: 1.5"/>
    <path d="M 381.848197 115.389193 
L 388.919265 108.318125 
M 381.848197 108.318125 
L 388.919265 115.389193 
" clip-path="url(#p45061281ed)" style="fill: #35b779; stroke: #35b779; stroke-width: 1.5"/>
    <path d="M 214.747608 267.101502 
L 221.818675 260.030434 
M 214.747608 260.030434 
L 221.818675 267.101502 
" clip-path="url(#p45061281ed)" style="fill: #fde725; stroke: #fde725; stroke-width: 1.5"/>
   </g>
   <g id="PathCollection_2">
    <defs>
     <path id="m9ba6095b9b" d="M -3.535534 7.071068 
L 0 3.535534 
L 3.535534 7.071068 
L 7.071068 3.535534 
L 3.535534 0 
L 7.071068 -3.535534 
L 3.535534 -7.071068 
L 0 -3.535534 
L -3.535534 -7.071068 
L -7.071068 -3.535534 
L -3.535534 0 
L -7.071068 3.535534 
z
" style="stroke: #ff0000; stroke-opacity: 0.75"/>
    </defs>
    <g clip-path="url(#p45061281ed)">
     <use xlink:href="#m9ba6095b9b" x="510.121633" y="320.199801" style="fill: #ff0000; fill-opacity: 0.75; stroke: #ff0000; stroke-opacity: 0.75"/>
     <use xlink:href="#m9ba6095b9b" x="430.253741" y="213.328589" style="fill: #ff0000; fill-opacity: 0.75; stroke: #ff0000; stroke-opacity: 0.75"/>
     <use xlink:href="#m9ba6095b9b" x="250.622708" y="112.979637" style="fill: #ff0000; fill-opacity: 0.75; stroke: #ff0000; stroke-opacity: 0.75"/>
     <use xlink:href="#m9ba6095b9b" x="234.295649" y="261.124105" style="fill: #ff0000; fill-opacity: 0.75; stroke: #ff0000; stroke-opacity: 0.75"/>
    </g>
   </g>
   <g id="matplotlib.axis_1">
    <g id="xtick_1">
     <g id="line2d_1">
      <path d="M 124.829136 384.48 
L 124.829136 51.84 
" clip-path="url(#p45061281ed)" style="fill: none; stroke-dasharray: 2.22,0.96; stroke-dashoffset: 0; stroke: #b0b0b0; stroke-opacity: 0.7; stroke-width: 0.6"/>
     </g>
     <g id="line2d_2">
      <defs>
       <path id="mb993d256bc" d="M 0 0 
L 0 -3.5 
" style="stroke: #1a1a1a; stroke-width: 0.8"/>
      </defs>
      <g>
       <use xlink:href="#mb993d256bc" x="124.829136" y="384.48" style="fill: #1a1a1a; stroke: #1a1a1a; stroke-width: 0.8"/>
      </g>
     </g>
     <g id="text_1">
      <!-- 3 -->
      <g style="fill: #1a1a1a" transform="translate(115.983824 397.098125) scale(0.12 -0.12)">
       <defs>
        <path id="DejaVuSans-2212" d="M 678 2272 
L 4684 2272 
L 4684 1741 
L 678 1741 
L 678 2272 
z
" transform="scale(0.015625)"/>
        <path id="DejaVuSans-33" d="M 2597 2516 
Q 3050 2419 3304 2112 
Q 3559 1806 3559 1356 
Q 3559 666 3084 287 
Q 2609 -91 1734 -91 
Q 1441 -91 1130 -33 
Q 819 25 488 141 
L 488 750 
Q 750 597 1062 519 
Q 1375 441 1716 441 
Q 2309 441 2620 675 
Q 2931 909 2931 1356 
Q 2931 1769 2642 2001 
Q 2353 2234 1838 2234 
L 1294 2234 
L 1294 2753 
L 1863 2753 
Q 2328 2753 2575 2939 
Q 2822 3125 2822 3475 
Q 2822 3834 2567 4026 
Q 2313 4219 1838 4219 
Q 1578 4219 1281 4162 
Q 984 4106 628 3988 
L 628 4550 
Q 988 4650 1302 4700 
Q 1616 4750 1894 4750 
Q 2613 4750 3031 4423 
Q 3450 4097 3450 3541 
Q 3450 3153 3228 2886 
Q 3006 2619 2597 2516 
z
" transform="scale(0.015625)"/>
       </defs>
       <use xlink:href="#DejaVuSans-2212"/>
       <use xlink:href="#DejaVuSans-33" x="83.789062"/>
      </g>
     </g>
    </g>
    <g id="xtick_2">
     <g id="line2d_3">
      <path d="M 202.157002 384.48 
L 202.157002 51.84 
" clip-path="url(#p45061281ed)" style="fill: none; stroke-dasharray: 2.22,0.96; stroke-dashoffset: 0; stroke: #b0b0b0; stroke-opacity: 0.7; stroke-width: 0.6"/>
     </g>
     <g id="line2d_4">
      <g>
       <use xlink:href="#mb993d256bc" x="202.157002" y="384.48" style="fill: #1a1a1a; stroke: #1a1a1a; stroke-width: 0.8"/>
      </g>
     </g>
     <g id="text_2">
      <!-- 2 -->
      <g style="fill: #1a1a1a" transform="translate(193.31169 397.098125) scale(0.12 -0.12)">
       <defs>
        <path id="DejaVuSans-32" d="M 1228 531 
L 3431 531 
L 3431 0 
L 469 0 
L 469 531 
Q 828 903 1448 1529 
Q 2069 2156 2228 2338 
Q 2531 2678 2651 2914 
Q 2772 3150 2772 3378 
Q 2772 3750 2511 3984 
Q 2250 4219 1831 4219 
Q 1534 4219 1204 4116 
Q 875 4013 500 3803 
L 500 4441 
Q 881 4594 1212 4672 
Q 1544 4750 1819 4750 
Q 2544 4750 2975 4387 
Q 3406 4025 3406 3419 
Q 3406 3131 3298 2873 
Q 3191 2616 2906 2266 
Q 2828 2175 2409 1742 
Q 1991 1309 1228 531 
z
" transform="scale(0.015625)"/>
       </defs>
       <use xlink:href="#DejaVuSans-2212"/>
       <use xlink:href="#DejaVuSans-32" x="83.789062"/>
      </g>
     </g>
    </g>
    <g id="xtick_3">
     <g id="line2d_5">
      <path d="M 279.484868 384.48 
L 279.484868 51.84 
" clip-path="url(#p45061281ed)" style="fill: none; stroke-dasharray: 2.22,0.96; stroke-dashoffset: 0; stroke: #b0b0b0; stroke-opacity: 0.7; stroke-width: 0.6"/>
     </g>
     <g id="line2d_6">
      <g>
       <use xlink:href="#mb993d256bc" x="279.484868" y="384.48" style="fill: #1a1a1a; stroke: #1a1a1a; stroke-width: 0.8"/>
      </g>
     </g>
     <g id="text_3">
      <!-- 1 -->
      <g style="fill: #1a1a1a" transform="translate(270.639556 397.098125) scale(0.12 -0.12)">
       <defs>
        <path id="DejaVuSans-31" d="M 794 531 
L 1825 531 
L 1825 4091 
L 703 3866 
L 703 4441 
L 1819 4666 
L 2450 4666 
L 2450 531 
L 3481 531 
L 3481 0 
L 794 0 
L 794 531 
z
" transform="scale(0.015625)"/>
       </defs>
       <use xlink:href="#DejaVuSans-2212"/>
       <use xlink:href="#DejaVuSans-31" x="83.789062"/>
      </g>
     </g>
    </g>
    <g id="xtick_4">
     <g id="line2d_7">
      <path d="M 356.812735 384.48 
L 356.812735 51.84 
" clip-path="url(#p45061281ed)" style="fill: none; stroke-dasharray: 2.22,0.96; stroke-dashoffset: 0; stroke: #b0b0b0; stroke-opacity: 0.7; stroke-width: 0.6"/>
     </g>
     <g id="line2d_8">
      <g>
       <use xlink:href="#mb993d256bc" x="356.812735" y="384.48" style="fill: #1a1a1a; stroke: #1a1a1a; stroke-width: 0.8"/>
      </g>
     </g>
     <g id="text_4">
      <!-- 0 -->
      <g style="fill: #1a1a1a" transform="translate(352.995235 397.098125) scale(0.12 -0.12)">
       <defs>
        <path id="DejaVuSans-30" d="M 2034 4250 
Q 1547 4250 1301 3770 
Q 1056 3291 1056 2328 
Q 1056 1369 1301 889 
Q 1547 409 2034 409 
Q 2525 409 2770 889 
Q 3016 1369 3016 2328 
Q 3016 3291 2770 3770 
Q 2525 4250 2034 4250 
z
M 2034 4750 
Q 2819 4750 3233 4129 
Q 3647 3509 3647 2328 
Q 3647 1150 3233 529 
Q 2819 -91 2034 -91 
Q 1250 -91 836 529 
Q 422 1150 422 2328 
Q 422 3509 836 4129 
Q 1250 4750 2034 4750 
z
" transform="scale(0.015625)"/>
       </defs>
       <use xlink:href="#DejaVuSans-30"/>
      </g>
     </g>
    </g>
    <g id="xtick_5">
     <g id="line2d_9">
      <path d="M 434.140601 384.48 
L 434.140601 51.84 
" clip-path="url(#p45061281ed)" style="fill: none; stroke-dasharray: 2.22,0.96; stroke-dashoffset: 0; stroke: #b0b0b0; stroke-opacity: 0.7; stroke-width: 0.6"/>
     </g>
     <g id="line2d_10">
      <g>
       <use xlink:href="#mb993d256bc" x="434.140601" y="384.48" style="fill: #1a1a1a; stroke: #1a1a1a; stroke-width: 0.8"/>
      </g>
     </g>
     <g id="text_5">
      <!-- 1 -->
      <g style="fill: #1a1a1a" transform="translate(430.323101 397.098125) scale(0.12 -0.12)">
       <use xlink:href="#DejaVuSans-31"/>
      </g>
     </g>
    </g>
    <g id="xtick_6">
     <g id="line2d_11">
      <path d="M 511.468467 384.48 
L 511.468467 51.84 
" clip-path="url(#p45061281ed)" style="fill: none; stroke-dasharray: 2.22,0.96; stroke-dashoffset: 0; stroke: #b0b0b0; stroke-opacity: 0.7; stroke-width: 0.6"/>
     </g>
     <g id="line2d_12">
      <g>
       <use xlink:href="#mb993d256bc" x="511.468467" y="384.48" style="fill: #1a1a1a; stroke: #1a1a1a; stroke-width: 0.8"/>
      </g>
     </g>
     <g id="text_6">
      <!-- 2 -->
      <g style="fill: #1a1a1a" transform="translate(507.650967 397.098125) scale(0.12 -0.12)">
       <use xlink:href="#DejaVuSans-32"/>
      </g>
     </g>
    </g>
    <g id="xtick_7">
     <g id="line2d_13">
      <path d="M 588.796333 384.48 
L 588.796333 51.84 
" clip-path="url(#p45061281ed)" style="fill: none; stroke-dasharray: 2.22,0.96; stroke-dashoffset: 0; stroke: #b0b0b0; stroke-opacity: 0.7; stroke-width: 0.6"/>
     </g>
     <g id="line2d_14">
      <g>
       <use xlink:href="#mb993d256bc" x="588.796333" y="384.48" style="fill: #1a1a1a; stroke: #1a1a1a; stroke-width: 0.8"/>
      </g>
     </g>
     <g id="text_7">
      <!-- 3 -->
      <g style="fill: #1a1a1a" transform="translate(584.978833 397.098125) scale(0.12 -0.12)">
       <use xlink:href="#DejaVuSans-33"/>
      </g>
     </g>
    </g>
    <g id="text_8">
     <!-- Feature 1 -->
     <g style="fill: #1a1a1a" transform="translate(340.607813 412.711875) scale(0.12 -0.12)">
      <defs>
       <path id="DejaVuSans-46" d="M 628 4666 
L 3309 4666 
L 3309 4134 
L 1259 4134 
L 1259 2759 
L 3109 2759 
L 3109 2228 
L 1259 2228 
L 1259 0 
L 628 0 
L 628 4666 
z
" transform="scale(0.015625)"/>
       <path id="DejaVuSans-65" d="M 3597 1894 
L 3597 1613 
L 953 1613 
Q 991 1019 1311 708 
Q 1631 397 2203 397 
Q 2534 397 2845 478 
Q 3156 559 3463 722 
L 3463 178 
Q 3153 47 2828 -22 
Q 2503 -91 2169 -91 
Q 1331 -91 842 396 
Q 353 884 353 1716 
Q 353 2575 817 3079 
Q 1281 3584 2069 3584 
Q 2775 3584 3186 3129 
Q 3597 2675 3597 1894 
z
M 3022 2063 
Q 3016 2534 2758 2815 
Q 2500 3097 2075 3097 
Q 1594 3097 1305 2825 
Q 1016 2553 972 2059 
L 3022 2063 
z
" transform="scale(0.015625)"/>
       <path id="DejaVuSans-61" d="M 2194 1759 
Q 1497 1759 1228 1600 
Q 959 1441 959 1056 
Q 959 750 1161 570 
Q 1363 391 1709 391 
Q 2188 391 2477 730 
Q 2766 1069 2766 1631 
L 2766 1759 
L 2194 1759 
z
M 3341 1997 
L 3341 0 
L 2766 0 
L 2766 531 
Q 2569 213 2275 61 
Q 1981 -91 1556 -91 
Q 1019 -91 701 211 
Q 384 513 384 1019 
Q 384 1609 779 1909 
Q 1175 2209 1959 2209 
L 2766 2209 
L 2766 2266 
Q 2766 2663 2505 2880 
Q 2244 3097 1772 3097 
Q 1472 3097 1187 3025 
Q 903 2953 641 2809 
L 641 3341 
Q 956 3463 1253 3523 
Q 1550 3584 1831 3584 
Q 2591 3584 2966 3190 
Q 3341 2797 3341 1997 
z
" transform="scale(0.015625)"/>
       <path id="DejaVuSans-74" d="M 1172 4494 
L 1172 3500 
L 2356 3500 
L 2356 3053 
L 1172 3053 
L 1172 1153 
Q 1172 725 1289 603 
Q 1406 481 1766 481 
L 2356 481 
L 2356 0 
L 1766 0 
Q 1100 0 847 248 
Q 594 497 594 1153 
L 594 3053 
L 172 3053 
L 172 3500 
L 594 3500 
L 594 4494 
L 1172 4494 
z
" transform="scale(0.015625)"/>
       <path id="DejaVuSans-75" d="M 544 1381 
L 544 3500 
L 1119 3500 
L 1119 1403 
Q 1119 906 1312 657 
Q 1506 409 1894 409 
Q 2359 409 2629 706 
Q 2900 1003 2900 1516 
L 2900 3500 
L 3475 3500 
L 3475 0 
L 2900 0 
L 2900 538 
Q 2691 219 2414 64 
Q 2138 -91 1772 -91 
Q 1169 -91 856 284 
Q 544 659 544 1381 
z
M 1991 3584 
L 1991 3584 
z
" transform="scale(0.015625)"/>
       <path id="DejaVuSans-72" d="M 2631 2963 
Q 2534 3019 2420 3045 
Q 2306 3072 2169 3072 
Q 1681 3072 1420 2755 
Q 1159 2438 1159 1844 
L 1159 0 
L 581 0 
L 581 3500 
L 1159 3500 
L 1159 2956 
Q 1341 3275 1631 3429 
Q 1922 3584 2338 3584 
Q 2397 3584 2469 3576 
Q 2541 3569 2628 3553 
L 2631 2963 
z
" transform="scale(0.015625)"/>
       <path id="DejaVuSans-20" transform="scale(0.015625)"/>
      </defs>
      <use xlink:href="#DejaVuSans-46"/>
      <use xlink:href="#DejaVuSans-65" x="52.019531"/>
      <use xlink:href="#DejaVuSans-61" x="113.542969"/>
      <use xlink:href="#DejaVuSans-74" x="174.822266"/>
      <use xlink:href="#DejaVuSans-75" x="214.03125"/>
      <use xlink:href="#DejaVuSans-72" x="277.410156"/>
      <use xlink:href="#DejaVuSans-65" x="316.273438"/>
      <use xlink:href="#DejaVuSans-20" x="377.796875"/>
      <use xlink:href="#DejaVuSans-31" x="409.583984"/>
     </g>
    </g>
   </g>
   <g id="matplotlib.axis_2">
    <g id="ytick_1">
     <g id="line2d_15">
      <path d="M 90 346.311956 
L 648 346.311956 
" clip-path="url(#p45061281ed)" style="fill: none; stroke-dasharray: 2.22,0.96; stroke-dashoffset: 0; stroke: #b0b0b0; stroke-opacity: 0.7; stroke-width: 0.6"/>
     </g>
     <g id="line2d_16">
      <defs>
       <path id="m415eca046d" d="M 0 0 
L 3.5 0 
" style="stroke: #1a1a1a; stroke-width: 0.8"/>
      </defs>
      <g>
       <use xlink:href="#m415eca046d" x="90" y="346.311956" style="fill: #1a1a1a; stroke: #1a1a1a; stroke-width: 0.8"/>
      </g>
     </g>
     <g id="text_9">
      <!-- 0 -->
      <g style="fill: #1a1a1a" transform="translate(78.865 350.871019) scale(0.12 -0.12)">
       <use xlink:href="#DejaVuSans-30"/>
      </g>
     </g>
    </g>
    <g id="ytick_2">
     <g id="line2d_17">
      <path d="M 90 286.125811 
L 648 286.125811 
" clip-path="url(#p45061281ed)" style="fill: none; stroke-dasharray: 2.22,0.96; stroke-dashoffset: 0; stroke: #b0b0b0; stroke-opacity: 0.7; stroke-width: 0.6"/>
     </g>
     <g id="line2d_18">
      <g>
       <use xlink:href="#m415eca046d" x="90" y="286.125811" style="fill: #1a1a1a; stroke: #1a1a1a; stroke-width: 0.8"/>
      </g>
     </g>
     <g id="text_10">
      <!-- 2 -->
      <g style="fill: #1a1a1a" transform="translate(78.865 290.684873) scale(0.12 -0.12)">
       <use xlink:href="#DejaVuSans-32"/>
      </g>
     </g>
    </g>
    <g id="ytick_3">
     <g id="line2d_19">
      <path d="M 90 225.939665 
L 648 225.939665 
" clip-path="url(#p45061281ed)" style="fill: none; stroke-dasharray: 2.22,0.96; stroke-dashoffset: 0; stroke: #b0b0b0; stroke-opacity: 0.7; stroke-width: 0.6"/>
     </g>
     <g id="line2d_20">
      <g>
       <use xlink:href="#m415eca046d" x="90" y="225.939665" style="fill: #1a1a1a; stroke: #1a1a1a; stroke-width: 0.8"/>
      </g>
     </g>
     <g id="text_11">
      <!-- 4 -->
      <g style="fill: #1a1a1a" transform="translate(78.865 230.498727) scale(0.12 -0.12)">
       <defs>
        <path id="DejaVuSans-34" d="M 2419 4116 
L 825 1625 
L 2419 1625 
L 2419 4116 
z
M 2253 4666 
L 3047 4666 
L 3047 1625 
L 3713 1625 
L 3713 1100 
L 3047 1100 
L 3047 0 
L 2419 0 
L 2419 1100 
L 313 1100 
L 313 1709 
L 2253 4666 
z
" transform="scale(0.015625)"/>
       </defs>
       <use xlink:href="#DejaVuSans-34"/>
      </g>
     </g>
    </g>
    <g id="ytick_4">
     <g id="line2d_21">
      <path d="M 90 165.753519 
L 648 165.753519 
" clip-path="url(#p45061281ed)" style="fill: none; stroke-dasharray: 2.22,0.96; stroke-dashoffset: 0; stroke: #b0b0b0; stroke-opacity: 0.7; stroke-width: 0.6"/>
     </g>
     <g id="line2d_22">
      <g>
       <use xlink:href="#m415eca046d" x="90" y="165.753519" style="fill: #1a1a1a; stroke: #1a1a1a; stroke-width: 0.8"/>
      </g>
     </g>
     <g id="text_12">
      <!-- 6 -->
      <g style="fill: #1a1a1a" transform="translate(78.865 170.312581) scale(0.12 -0.12)">
       <defs>
        <path id="DejaVuSans-36" d="M 2113 2584 
Q 1688 2584 1439 2293 
Q 1191 2003 1191 1497 
Q 1191 994 1439 701 
Q 1688 409 2113 409 
Q 2538 409 2786 701 
Q 3034 994 3034 1497 
Q 3034 2003 2786 2293 
Q 2538 2584 2113 2584 
z
M 3366 4563 
L 3366 3988 
Q 3128 4100 2886 4159 
Q 2644 4219 2406 4219 
Q 1781 4219 1451 3797 
Q 1122 3375 1075 2522 
Q 1259 2794 1537 2939 
Q 1816 3084 2150 3084 
Q 2853 3084 3261 2657 
Q 3669 2231 3669 1497 
Q 3669 778 3244 343 
Q 2819 -91 2113 -91 
Q 1303 -91 875 529 
Q 447 1150 447 2328 
Q 447 3434 972 4092 
Q 1497 4750 2381 4750 
Q 2619 4750 2861 4703 
Q 3103 4656 3366 4563 
z
" transform="scale(0.015625)"/>
       </defs>
       <use xlink:href="#DejaVuSans-36"/>
      </g>
     </g>
    </g>
    <g id="ytick_5">
     <g id="line2d_23">
      <path d="M 90 105.567373 
L 648 105.567373 
" clip-path="url(#p45061281ed)" style="fill: none; stroke-dasharray: 2.22,0.96; stroke-dashoffset: 0; stroke: #b0b0b0; stroke-opacity: 0.7; stroke-width: 0.6"/>
     </g>
     <g id="line2d_24">
      <g>
       <use xlink:href="#m415eca046d" x="90" y="105.567373" style="fill: #1a1a1a; stroke: #1a1a1a; stroke-width: 0.8"/>
      </g>
     </g>
     <g id="text_13">
      <!-- 8 -->
      <g style="fill: #1a1a1a" transform="translate(78.865 110.126435) scale(0.12 -0.12)">
       <defs>
        <path id="DejaVuSans-38" d="M 2034 2216 
Q 1584 2216 1326 1975 
Q 1069 1734 1069 1313 
Q 1069 891 1326 650 
Q 1584 409 2034 409 
Q 2484 409 2743 651 
Q 3003 894 3003 1313 
Q 3003 1734 2745 1975 
Q 2488 2216 2034 2216 
z
M 1403 2484 
Q 997 2584 770 2862 
Q 544 3141 544 3541 
Q 544 4100 942 4425 
Q 1341 4750 2034 4750 
Q 2731 4750 3128 4425 
Q 3525 4100 3525 3541 
Q 3525 3141 3298 2862 
Q 3072 2584 2669 2484 
Q 3125 2378 3379 2068 
Q 3634 1759 3634 1313 
Q 3634 634 3220 271 
Q 2806 -91 2034 -91 
Q 1263 -91 848 271 
Q 434 634 434 1313 
Q 434 1759 690 2068 
Q 947 2378 1403 2484 
z
M 1172 3481 
Q 1172 3119 1398 2916 
Q 1625 2713 2034 2713 
Q 2441 2713 2670 2916 
Q 2900 3119 2900 3481 
Q 2900 3844 2670 4047 
Q 2441 4250 2034 4250 
Q 1625 4250 1398 4047 
Q 1172 3844 1172 3481 
z
" transform="scale(0.015625)"/>
       </defs>
       <use xlink:href="#DejaVuSans-38"/>
      </g>
     </g>
    </g>
    <g id="text_14">
     <!-- Feature 2 -->
     <g style="fill: #1a1a1a" transform="translate(72.369375 246.552187) rotate(-90) scale(0.12 -0.12)">
      <use xlink:href="#DejaVuSans-46"/>
      <use xlink:href="#DejaVuSans-65" x="52.019531"/>
      <use xlink:href="#DejaVuSans-61" x="113.542969"/>
      <use xlink:href="#DejaVuSans-74" x="174.822266"/>
      <use xlink:href="#DejaVuSans-75" x="214.03125"/>
      <use xlink:href="#DejaVuSans-72" x="277.410156"/>
      <use xlink:href="#DejaVuSans-65" x="316.273438"/>
      <use xlink:href="#DejaVuSans-20" x="377.796875"/>
      <use xlink:href="#DejaVuSans-32" x="409.583984"/>
     </g>
    </g>
   </g>
   <g id="patch_3">
    <path d="M 90 384.48 
L 90 51.84 
" style="fill: none; stroke: #1a1a1a; stroke-linejoin: miter; stroke-linecap: square"/>
   </g>
   <g id="patch_4">
    <path d="M 90 384.48 
L 648 384.48 
" style="fill: none; stroke: #1a1a1a; stroke-linejoin: miter; stroke-linecap: square"/>
   </g>
   <g id="text_15">
    <!-- K-Means Clustering Process -->
    <g style="fill: #333333" transform="translate(259.54875 45.84) scale(0.16 -0.16)">
     <defs>
      <path id="DejaVuSans-4b" d="M 628 4666 
L 1259 4666 
L 1259 2694 
L 3353 4666 
L 4166 4666 
L 1850 2491 
L 4331 0 
L 3500 0 
L 1259 2247 
L 1259 0 
L 628 0 
L 628 4666 
z
" transform="scale(0.015625)"/>
      <path id="DejaVuSans-2d" d="M 313 2009 
L 1997 2009 
L 1997 1497 
L 313 1497 
L 313 2009 
z
" transform="scale(0.015625)"/>
      <path id="DejaVuSans-4d" d="M 628 4666 
L 1569 4666 
L 2759 1491 
L 3956 4666 
L 4897 4666 
L 4897 0 
L 4281 0 
L 4281 4097 
L 3078 897 
L 2444 897 
L 1241 4097 
L 1241 0 
L 628 0 
L 628 4666 
z
" transform="scale(0.015625)"/>
      <path id="DejaVuSans-6e" d="M 3513 2113 
L 3513 0 
L 2938 0 
L 2938 2094 
Q 2938 2591 2744 2837 
Q 2550 3084 2163 3084 
Q 1697 3084 1428 2787 
Q 1159 2491 1159 1978 
L 1159 0 
L 581 0 
L 581 3500 
L 1159 3500 
L 1159 2956 
Q 1366 3272 1645 3428 
Q 1925 3584 2291 3584 
Q 2894 3584 3203 3211 
Q 3513 2838 3513 2113 
z
" transform="scale(0.015625)"/>
      <path id="DejaVuSans-73" d="M 2834 3397 
L 2834 2853 
Q 2591 2978 2328 3040 
Q 2066 3103 1784 3103 
Q 1356 3103 1142 2972 
Q 928 2841 928 2578 
Q 928 2378 1081 2264 
Q 1234 2150 1697 2047 
L 1894 2003 
Q 2506 1872 2764 1633 
Q 3022 1394 3022 966 
Q 3022 478 2636 193 
Q 2250 -91 1575 -91 
Q 1294 -91 989 -36 
Q 684 19 347 128 
L 347 722 
Q 666 556 975 473 
Q 1284 391 1588 391 
Q 1994 391 2212 530 
Q 2431 669 2431 922 
Q 2431 1156 2273 1281 
Q 2116 1406 1581 1522 
L 1381 1569 
Q 847 1681 609 1914 
Q 372 2147 372 2553 
Q 372 3047 722 3315 
Q 1072 3584 1716 3584 
Q 2034 3584 2315 3537 
Q 2597 3491 2834 3397 
z
" transform="scale(0.015625)"/>
      <path id="DejaVuSans-43" d="M 4122 4306 
L 4122 3641 
Q 3803 3938 3442 4084 
Q 3081 4231 2675 4231 
Q 1875 4231 1450 3742 
Q 1025 3253 1025 2328 
Q 1025 1406 1450 917 
Q 1875 428 2675 428 
Q 3081 428 3442 575 
Q 3803 722 4122 1019 
L 4122 359 
Q 3791 134 3420 21 
Q 3050 -91 2638 -91 
Q 1578 -91 968 557 
Q 359 1206 359 2328 
Q 359 3453 968 4101 
Q 1578 4750 2638 4750 
Q 3056 4750 3426 4639 
Q 3797 4528 4122 4306 
z
" transform="scale(0.015625)"/>
      <path id="DejaVuSans-6c" d="M 603 4863 
L 1178 4863 
L 1178 0 
L 603 0 
L 603 4863 
z
" transform="scale(0.015625)"/>
      <path id="DejaVuSans-69" d="M 603 3500 
L 1178 3500 
L 1178 0 
L 603 0 
L 603 3500 
z
M 603 4863 
L 1178 4863 
L 1178 4134 
L 603 4134 
L 603 4863 
z
" transform="scale(0.015625)"/>
      <path id="DejaVuSans-67" d="M 2906 1791 
Q 2906 2416 2648 2759 
Q 2391 3103 1925 3103 
Q 1463 3103 1205 2759 
Q 947 2416 947 1791 
Q 947 1169 1205 825 
Q 1463 481 1925 481 
Q 2391 481 2648 825 
Q 2906 1169 2906 1791 
z
M 3481 434 
Q 3481 -459 3084 -895 
Q 2688 -1331 1869 -1331 
Q 1566 -1331 1297 -1286 
Q 1028 -1241 775 -1147 
L 775 -588 
Q 1028 -725 1275 -790 
Q 1522 -856 1778 -856 
Q 2344 -856 2625 -561 
Q 2906 -266 2906 331 
L 2906 616 
Q 2728 306 2450 153 
Q 2172 0 1784 0 
Q 1141 0 747 490 
Q 353 981 353 1791 
Q 353 2603 747 3093 
Q 1141 3584 1784 3584 
Q 2172 3584 2450 3431 
Q 2728 3278 2906 2969 
L 2906 3500 
L 3481 3500 
L 3481 434 
z
" transform="scale(0.015625)"/>
      <path id="DejaVuSans-50" d="M 1259 4147 
L 1259 2394 
L 2053 2394 
Q 2494 2394 2734 2622 
Q 2975 2850 2975 3272 
Q 2975 3691 2734 3919 
Q 2494 4147 2053 4147 
L 1259 4147 
z
M 628 4666 
L 2053 4666 
Q 2838 4666 3239 4311 
Q 3641 3956 3641 3272 
Q 3641 2581 3239 2228 
Q 2838 1875 2053 1875 
L 1259 1875 
L 1259 0 
L 628 0 
L 628 4666 
z
" transform="scale(0.015625)"/>
      <path id="DejaVuSans-6f" d="M 1959 3097 
Q 1497 3097 1228 2736 
Q 959 2375 959 1747 
Q 959 1119 1226 758 
Q 1494 397 1959 397 
Q 2419 397 2687 759 
Q 2956 1122 2956 1747 
Q 2956 2369 2687 2733 
Q 2419 3097 1959 3097 
z
M 1959 3584 
Q 2709 3584 3137 3096 
Q 3566 2609 3566 1747 
Q 3566 888 3137 398 
Q 2709 -91 1959 -91 
Q 1206 -91 779 398 
Q 353 888 353 1747 
Q 353 2609 779 3096 
Q 1206 3584 1959 3584 
z
" transform="scale(0.015625)"/>
      <path id="DejaVuSans-63" d="M 3122 3366 
L 3122 2828 
Q 2878 2963 2633 3030 
Q 2388 3097 2138 3097 
Q 1578 3097 1268 2742 
Q 959 2388 959 1747 
Q 959 1106 1268 751 
Q 1578 397 2138 397 
Q 2388 397 2633 464 
Q 2878 531 3122 666 
L 3122 134 
Q 2881 22 2623 -34 
Q 2366 -91 2075 -91 
Q 1284 -91 818 406 
Q 353 903 353 1747 
Q 353 2603 823 3093 
Q 1294 3584 2113 3584 
Q 2378 3584 2631 3529 
Q 2884 3475 3122 3366 
z
" transform="scale(0.015625)"/>
     </defs>
     <use xlink:href="#DejaVuSans-4b"/>
     <use xlink:href="#DejaVuSans-2d" x="55.076172"/>
     <use xlink:href="#DejaVuSans-4d" x="91.160156"/>
     <use xlink:href="#DejaVuSans-65" x="177.439453"/>
     <use xlink:href="#DejaVuSans-61" x="238.962891"/>
     <use xlink:href="#DejaVuSans-6e" x="300.242188"/>
     <use xlink:href="#DejaVuSans-73" x="363.621094"/>
     <use xlink:href="#DejaVuSans-20" x="415.720703"/>
     <use xlink:href="#DejaVuSans-43" x="447.507812"/>
     <use xlink:href="#DejaVuSans-6c" x="517.332031"/>
     <use xlink:href="#DejaVuSans-75" x="545.115234"/>
     <use xlink:href="#DejaVuSans-73" x="608.494141"/>
     <use xlink:href="#DejaVuSans-74" x="660.59375"/>
     <use xlink:href="#DejaVuSans-65" x="699.802734"/>
     <use xlink:href="#DejaVuSans-72" x="761.326172"/>
     <use xlink:href="#DejaVuSans-69" x="802.439453"/>
     <use xlink:href="#DejaVuSans-6e" x="830.222656"/>
     <use xlink:href="#DejaVuSans-67" x="893.601562"/>
     <use xlink:href="#DejaVuSans-20" x="957.078125"/>
     <use xlink:href="#DejaVuSans-50" x="988.865234"/>
     <use xlink:href="#DejaVuSans-72" x="1047.417969"/>
     <use xlink:href="#DejaVuSans-6f" x="1086.28125"/>
     <use xlink:href="#DejaVuSans-63" x="1147.462891"/>
     <use xlink:href="#DejaVuSans-65" x="1202.443359"/>
     <use xlink:href="#DejaVuSans-73" x="1263.966797"/>
     <use xlink:href="#DejaVuSans-73" x="1316.066406"/>
    </g>
   </g>
  </g>
 </g>
 <defs>
  <clipPath id="p45061281ed">
   <rect x="90" y="51.84" width="558" height="332.64"/>
  </clipPath>
 </defs>
</svg>
